<svg xmlns="http://www.w3.org/2000/svg" xmlns:xlink="http://www.w3.org/1999/xlink" width="3575pt" height="1892" viewBox="0 0 3575.36 1419.4"><g id="graph0" class="graph" transform="scale(1 1) rotate(0) translate(4 1415.4)"><title>UmlClassDiagram</title><polygon fill="#fff" stroke="transparent" points="-4 4 -4 -1415.4 3571.359 -1415.4 3571.359 4 -4 4"/><g id="node1" class="node"><title>0</title><polygon fill="#f2f2f2" stroke="#000" points="726.26 -1168.5 726.26 -1410.9 1164.86 -1410.9 1164.86 -1168.5 726.26 -1168.5"/><text x="945.56" y="-1394.3" fill="#000" font-family="Times,serif" font-size="14" text-anchor="middle">&lt;&lt;Interface&gt;&gt;</text><text x="945.56" y="-1377.5" fill="#000" font-family="Times,serif" font-size="14" text-anchor="middle">IERC20</text><polyline fill="none" stroke="#000" points="726.26 -1369.3 1164.86 -1369.3"/><polyline fill="none" stroke="#000" points="726.26 -1344.5 1164.86 -1344.5"/><text x="734.26" y="-1327.9" fill="#000" font-family="Times,serif" font-size="14" text-anchor="start">External:</text><text x="734.26" y="-1311.1" fill="#000" font-family="Times,serif" font-size="14" text-anchor="start">totalSupply(): uint256</text><text x="734.26" y="-1294.3" fill="#000" font-family="Times,serif" font-size="14" text-anchor="start">balanceOf(account: address): uint256</text><text x="734.26" y="-1277.5" fill="#000" font-family="Times,serif" font-size="14" text-anchor="start">transfer(recipient: address, amount: uint256): bool</text><text x="734.26" y="-1260.7" fill="#000" font-family="Times,serif" font-size="14" text-anchor="start">allowance(owner: address, spender: address): uint256</text><text x="734.26" y="-1243.9" fill="#000" font-family="Times,serif" font-size="14" text-anchor="start">approve(spender: address, amount: uint256): bool</text><text x="734.26" y="-1227.1" fill="#000" font-family="Times,serif" font-size="14" text-anchor="start">transferFrom(sender: address, recipient: address, amount: uint256): bool</text><text x="734.26" y="-1210.3" fill="#000" font-family="Times,serif" font-size="14" text-anchor="start">Public:</text><text x="734.26" y="-1193.5" fill="#000" font-family="Times,serif" font-size="14" text-anchor="start">&lt;&lt;event&gt;&gt; Transfer(from: address, to: address, value: uint256)</text><text x="734.26" y="-1176.7" fill="#000" font-family="Times,serif" font-size="14" text-anchor="start">&lt;&lt;event&gt;&gt; Approval(owner: address, spender: address, value: uint256)</text></g><g id="node2" class="node"><title>1</title><polygon fill="#f2f2f2" stroke="#000" points="789.183 -989.9 789.183 -1131.5 917.937 -1131.5 917.937 -989.9 789.183 -989.9"/><text x="853.56" y="-1114.9" fill="#000" font-family="Times,serif" font-size="14" text-anchor="middle">&lt;&lt;Interface&gt;&gt;</text><text x="853.56" y="-1098.1" fill="#000" font-family="Times,serif" font-size="14" text-anchor="middle">IERC20Metadata</text><polyline fill="none" stroke="#000" points="789.183 -1089.9 917.937 -1089.9"/><polyline fill="none" stroke="#000" points="789.183 -1065.1 917.937 -1065.1"/><text x="797.183" y="-1048.5" fill="#000" font-family="Times,serif" font-size="14" text-anchor="start">External:</text><text x="797.183" y="-1031.7" fill="#000" font-family="Times,serif" font-size="14" text-anchor="start">name(): string</text><text x="797.183" y="-1014.9" fill="#000" font-family="Times,serif" font-size="14" text-anchor="start">symbol(): string</text><text x="797.183" y="-998.1" fill="#000" font-family="Times,serif" font-size="14" text-anchor="start">decimals(): uint8</text></g><g id="edge1" class="edge"><title>1-&gt;0</title><path fill="none" stroke="#000" stroke-dasharray="5 2" d="M882.0393,-1131.5888C883.1768,-1134.4201 884.3311,-1137.2933 885.4987,-1140.1998"/><polygon fill="none" stroke="#000" points="875.821 -1144.276 896.747 -1168.199 895.307 -1136.448 875.821 -1144.276"/></g><g id="node3" class="node"><title>2</title><polygon fill="#f2f2f2" stroke="#000" points="515.611 -998.3 515.611 -1123.1 673.509 -1123.1 673.509 -998.3 515.611 -998.3"/><text x="594.56" y="-1106.5" fill="#000" font-family="Times,serif" font-size="14" text-anchor="middle">&lt;&lt;Abstract&gt;&gt;</text><text x="594.56" y="-1089.7" fill="#000" font-family="Times,serif" font-size="14" text-anchor="middle">Context</text><polyline fill="none" stroke="#000" points="515.611 -1081.5 673.509 -1081.5"/><polyline fill="none" stroke="#000" points="515.611 -1056.7 673.509 -1056.7"/><text x="523.611" y="-1040.1" fill="#000" font-family="Times,serif" font-size="14" text-anchor="start">Internal:</text><text x="523.611" y="-1023.3" fill="#000" font-family="Times,serif" font-size="14" text-anchor="start">_msgSender(): address</text><text x="523.611" y="-1006.5" fill="#000" font-family="Times,serif" font-size="14" text-anchor="start">_msgData(): bytes</text></g><g id="node4" class="node"><title>3</title><polygon fill="#f2f2f2" stroke="#000" points="636.01 -492.1 636.01 -952.9 1071.11 -952.9 1071.11 -492.1 636.01 -492.1"/><text x="853.56" y="-936.3" fill="#000" font-family="Times,serif" font-size="14" text-anchor="middle">ERC20</text><polyline fill="none" stroke="#000" points="636.01 -928.1 1071.11 -928.1"/><text x="644.01" y="-911.5" fill="#000" font-family="Times,serif" font-size="14" text-anchor="start">Private:</text><text x="644.01" y="-894.7" fill="#000" font-family="Times,serif" font-size="14" text-anchor="start">_balances: mapping(address=&gt;uint256)</text><text x="644.01" y="-877.9" fill="#000" font-family="Times,serif" font-size="14" text-anchor="start">_allowances: mapping(address=&gt;mapping(address=&gt;uint256))</text><text x="644.01" y="-861.1" fill="#000" font-family="Times,serif" font-size="14" text-anchor="start">_totalSupply: uint256</text><text x="644.01" y="-844.3" fill="#000" font-family="Times,serif" font-size="14" text-anchor="start">_name: string</text><text x="644.01" y="-827.5" fill="#000" font-family="Times,serif" font-size="14" text-anchor="start">_symbol: string</text><polyline fill="none" stroke="#000" points="636.01 -819.3 1071.11 -819.3"/><text x="644.01" y="-802.7" fill="#000" font-family="Times,serif" font-size="14" text-anchor="start">Internal:</text><text x="644.01" y="-785.9" fill="#000" font-family="Times,serif" font-size="14" text-anchor="start">_transfer(sender: address, recipient: address, amount: uint256)</text><text x="644.01" y="-769.1" fill="#000" font-family="Times,serif" font-size="14" text-anchor="start">_mint(account: address, amount: uint256)</text><text x="644.01" y="-752.3" fill="#000" font-family="Times,serif" font-size="14" text-anchor="start">_burn(account: address, amount: uint256)</text><text x="644.01" y="-735.5" fill="#000" font-family="Times,serif" font-size="14" text-anchor="start">_approve(owner: address, spender: address, amount: uint256)</text><text x="644.01" y="-718.7" fill="#000" font-family="Times,serif" font-size="14" text-anchor="start">_beforeTokenTransfer(from: address, to: address, amount: uint256)</text><text x="644.01" y="-701.9" fill="#000" font-family="Times,serif" font-size="14" text-anchor="start">Public:</text><text x="644.01" y="-685.1" fill="#000" font-family="Times,serif" font-size="14" text-anchor="start">constructor(name_: string, symbol_: string)</text><text x="644.01" y="-668.3" fill="#000" font-family="Times,serif" font-size="14" text-anchor="start">name(): string</text><text x="644.01" y="-651.5" fill="#000" font-family="Times,serif" font-size="14" text-anchor="start">symbol(): string</text><text x="644.01" y="-634.7" fill="#000" font-family="Times,serif" font-size="14" text-anchor="start">decimals(): uint8</text><text x="644.01" y="-617.9" fill="#000" font-family="Times,serif" font-size="14" text-anchor="start">totalSupply(): uint256</text><text x="644.01" y="-601.1" fill="#000" font-family="Times,serif" font-size="14" text-anchor="start">balanceOf(account: address): uint256</text><text x="644.01" y="-584.3" fill="#000" font-family="Times,serif" font-size="14" text-anchor="start">transfer(recipient: address, amount: uint256): bool</text><text x="644.01" y="-567.5" fill="#000" font-family="Times,serif" font-size="14" text-anchor="start">allowance(owner: address, spender: address): uint256</text><text x="644.01" y="-550.7" fill="#000" font-family="Times,serif" font-size="14" text-anchor="start">approve(spender: address, amount: uint256): bool</text><text x="644.01" y="-533.9" fill="#000" font-family="Times,serif" font-size="14" text-anchor="start">transferFrom(sender: address, recipient: address, amount: uint256): bool</text><text x="644.01" y="-517.1" fill="#000" font-family="Times,serif" font-size="14" text-anchor="start">increaseAllowance(spender: address, addedValue: uint256): bool</text><text x="644.01" y="-500.3" fill="#000" font-family="Times,serif" font-size="14" text-anchor="start">decreaseAllowance(spender: address, subtractedValue: uint256): bool</text></g><g id="edge3" class="edge"><title>3-&gt;0</title><path fill="none" stroke="#000" stroke-dasharray="5 2" d="M919.711,-952.9596C922.2563,-965.234 924.5666,-977.4351 926.5599,-989.4 934.5542,-1037.385 939.2466,-1090.1956 941.9815,-1137.9718"/><polygon fill="none" stroke="#000" points="931.505 -1138.711 943.494 -1168.147 952.479 -1137.659 931.505 -1138.711"/></g><g id="edge4" class="edge"><title>3-&gt;1</title><path fill="none" stroke="#000" stroke-dasharray="5 2" d="M853.5599,-953.2267C853.5599,-955.3298 853.5599,-957.4182 853.5599,-959.4902"/><polygon fill="none" stroke="#000" points="843.06 -959.685 853.56 -989.685 864.06 -959.685 843.06 -959.685"/></g><g id="edge2" class="edge"><title>3-&gt;2</title><path fill="none" stroke="#000" d="M676.865,-953.2267C671.3807,-960.3882 666.0271,-967.3788 660.852,-974.1364"/><polygon fill="none" stroke="#000" points="652.34 -967.982 642.436 -998.184 669.013 -980.75 652.34 -967.982"/></g><g id="node5" class="node"><title>4</title><polygon fill="#f2f2f2" stroke="#000" points="450.866 -263.1 450.866 -387.9 738.254 -387.9 738.254 -263.1 450.866 -263.1"/><text x="594.56" y="-371.3" fill="#000" font-family="Times,serif" font-size="14" text-anchor="middle">&lt;&lt;Abstract&gt;&gt;</text><text x="594.56" y="-354.5" fill="#000" font-family="Times,serif" font-size="14" text-anchor="middle">ERC20Burnable</text><polyline fill="none" stroke="#000" points="450.866 -346.3 738.254 -346.3"/><polyline fill="none" stroke="#000" points="450.866 -321.5 738.254 -321.5"/><text x="458.866" y="-304.9" fill="#000" font-family="Times,serif" font-size="14" text-anchor="start">Public:</text><text x="458.866" y="-288.1" fill="#000" font-family="Times,serif" font-size="14" text-anchor="start">burn(amount: uint256)</text><text x="458.866" y="-271.3" fill="#000" font-family="Times,serif" font-size="14" text-anchor="start">burnFrom(account: address, amount: uint256)</text></g><g id="edge5" class="edge"><title>4-&gt;2</title><path fill="none" stroke="#000" d="M594.5599,-388.1827C594.5599,-517.8589 594.5599,-816.1375 594.5599,-968.0861"/><polygon fill="none" stroke="#000" points="584.06 -968.176 594.56 -998.176 605.06 -968.176 584.06 -968.176"/></g><g id="edge6" class="edge"><title>4-&gt;3</title><path fill="none" stroke="#000" d="M635.3136,-387.968C650.0418,-410.5436 667.7208,-437.6423 686.5584,-466.517"/><polygon fill="none" stroke="#000" points="677.803 -472.313 702.989 -491.702 695.391 -460.839 677.803 -472.313"/></g><g id="node6" class="node"><title>5</title><polygon fill="#f2f2f2" stroke="#000" points="2136.502 -576.1 2136.502 -868.9 2702.618 -868.9 2702.618 -576.1 2136.502 -576.1"/><text x="2419.56" y="-852.3" fill="#000" font-family="Times,serif" font-size="14" text-anchor="middle">&lt;&lt;Library&gt;&gt;</text><text x="2419.56" y="-835.5" fill="#000" font-family="Times,serif" font-size="14" text-anchor="middle">Address</text><polyline fill="none" stroke="#000" points="2136.502 -827.3 2702.618 -827.3"/><polyline fill="none" stroke="#000" points="2136.502 -802.5 2702.618 -802.5"/><text x="2144.502" y="-785.9" fill="#000" font-family="Times,serif" font-size="14" text-anchor="start">Private:</text><text x="2144.502" y="-769.1" fill="#000" font-family="Times,serif" font-size="14" text-anchor="start">_verifyCallResult(success: bool, returndata: bytes, errorMessage: string): bytes</text><text x="2144.502" y="-752.3" fill="#000" font-family="Times,serif" font-size="14" text-anchor="start">Internal:</text><text x="2144.502" y="-735.5" fill="#000" font-family="Times,serif" font-size="14" text-anchor="start">isContract(account: address): bool</text><text x="2144.502" y="-718.7" fill="#000" font-family="Times,serif" font-size="14" text-anchor="start">sendValue(recipient: address, amount: uint256)</text><text x="2144.502" y="-701.9" fill="#000" font-family="Times,serif" font-size="14" text-anchor="start">functionCall(target: address, data: bytes): bytes</text><text x="2144.502" y="-685.1" fill="#000" font-family="Times,serif" font-size="14" text-anchor="start">functionCall(target: address, data: bytes, errorMessage: string): bytes</text><text x="2144.502" y="-668.3" fill="#000" font-family="Times,serif" font-size="14" text-anchor="start">functionCallWithValue(target: address, data: bytes, value: uint256): bytes</text><text x="2144.502" y="-651.5" fill="#000" font-family="Times,serif" font-size="14" text-anchor="start">functionCallWithValue(target: address, data: bytes, value: uint256, errorMessage: string): bytes</text><text x="2144.502" y="-634.7" fill="#000" font-family="Times,serif" font-size="14" text-anchor="start">functionStaticCall(target: address, data: bytes): bytes</text><text x="2144.502" y="-617.9" fill="#000" font-family="Times,serif" font-size="14" text-anchor="start">functionStaticCall(target: address, data: bytes, errorMessage: string): bytes</text><text x="2144.502" y="-601.1" fill="#000" font-family="Times,serif" font-size="14" text-anchor="start">functionDelegateCall(target: address, data: bytes): bytes</text><text x="2144.502" y="-584.3" fill="#000" font-family="Times,serif" font-size="14" text-anchor="start">functionDelegateCall(target: address, data: bytes, errorMessage: string): bytes</text></g><g id="node7" class="node"><title>6</title><polygon fill="#f2f2f2" stroke="#000" points="1364.142 -1006.7 1364.142 -1114.7 1640.978 -1114.7 1640.978 -1006.7 1364.142 -1006.7"/><text x="1502.56" y="-1098.1" fill="#000" font-family="Times,serif" font-size="14" text-anchor="middle">&lt;&lt;Interface&gt;&gt;</text><text x="1502.56" y="-1081.3" fill="#000" font-family="Times,serif" font-size="14" text-anchor="middle">IERC165</text><polyline fill="none" stroke="#000" points="1364.142 -1073.1 1640.978 -1073.1"/><polyline fill="none" stroke="#000" points="1364.142 -1048.3 1640.978 -1048.3"/><text x="1372.142" y="-1031.7" fill="#000" font-family="Times,serif" font-size="14" text-anchor="start">External:</text><text x="1372.142" y="-1014.9" fill="#000" font-family="Times,serif" font-size="14" text-anchor="start">supportsInterface(interfaceId: bytes4): bool</text></g><g id="node8" class="node"><title>7</title><polygon fill="#f2f2f2" stroke="#000" points="2720.892 -668.5 2720.892 -776.5 2994.228 -776.5 2994.228 -668.5 2720.892 -668.5"/><text x="2857.56" y="-759.9" fill="#000" font-family="Times,serif" font-size="14" text-anchor="middle">&lt;&lt;Abstract&gt;&gt;</text><text x="2857.56" y="-743.1" fill="#000" font-family="Times,serif" font-size="14" text-anchor="middle">ERC165</text><polyline fill="none" stroke="#000" points="2720.892 -734.9 2994.228 -734.9"/><polyline fill="none" stroke="#000" points="2720.892 -710.1 2994.228 -710.1"/><text x="2728.892" y="-693.5" fill="#000" font-family="Times,serif" font-size="14" text-anchor="start">Public:</text><text x="2728.892" y="-676.7" fill="#000" font-family="Times,serif" font-size="14" text-anchor="start">supportsInterface(interfaceId: bytes4): bool</text></g><g id="edge7" class="edge"><title>7-&gt;6</title><path fill="none" stroke="#000" stroke-dasharray="5 2" d="M2839.5914,-776.5952C2818.3225,-831.2994 2777.2544,-913.3265 2711.5599,-953.4 2624.8384,-1006.3 1982.8139,-1040.3859 1671.2397,-1053.987"/><polygon fill="none" stroke="#000" points="1670.767 -1043.498 1641.246 -1055.277 1671.669 -1064.478 1670.767 -1043.498"/></g><g id="node9" class="node"><title>8</title><polygon fill="#f2f2f2" stroke="#000" points="1088.91 -626.5 1088.91 -818.5 1642.209 -818.5 1642.209 -626.5 1088.91 -626.5"/><text x="1365.56" y="-801.9" fill="#000" font-family="Times,serif" font-size="14" text-anchor="middle">&lt;&lt;Interface&gt;&gt;</text><text x="1365.56" y="-785.1" fill="#000" font-family="Times,serif" font-size="14" text-anchor="middle">IERC1363</text><polyline fill="none" stroke="#000" points="1088.91 -776.9 1642.209 -776.9"/><polyline fill="none" stroke="#000" points="1088.91 -752.1 1642.209 -752.1"/><text x="1096.91" y="-735.5" fill="#000" font-family="Times,serif" font-size="14" text-anchor="start">External:</text><text x="1096.91" y="-718.7" fill="#000" font-family="Times,serif" font-size="14" text-anchor="start">transferAndCall(recipient: address, amount: uint256): bool</text><text x="1096.91" y="-701.9" fill="#000" font-family="Times,serif" font-size="14" text-anchor="start">transferAndCall(recipient: address, amount: uint256, data: bytes): bool</text><text x="1096.91" y="-685.1" fill="#000" font-family="Times,serif" font-size="14" text-anchor="start">transferFromAndCall(sender: address, recipient: address, amount: uint256): bool</text><text x="1096.91" y="-668.3" fill="#000" font-family="Times,serif" font-size="14" text-anchor="start">transferFromAndCall(sender: address, recipient: address, amount: uint256, data: bytes): bool</text><text x="1096.91" y="-651.5" fill="#000" font-family="Times,serif" font-size="14" text-anchor="start">approveAndCall(spender: address, amount: uint256): bool</text><text x="1096.91" y="-634.7" fill="#000" font-family="Times,serif" font-size="14" text-anchor="start">approveAndCall(spender: address, amount: uint256, data: bytes): bool</text></g><g id="edge8" class="edge"><title>8-&gt;0</title><path fill="none" stroke="#000" stroke-dasharray="5 2" d="M1294.3127,-818.7177C1228.2984,-907.8684 1129.1731,-1041.7347 1053.4545,-1143.9909"/><polygon fill="none" stroke="#000" points="1044.894 -1137.908 1035.479 -1168.266 1061.771 -1150.405 1044.894 -1137.908"/></g><g id="edge9" class="edge"><title>8-&gt;6</title><path fill="none" stroke="#000" stroke-dasharray="5 2" d="M1404.4522,-818.5099C1424.9399,-869.0861 1449.8032,-930.4639 1469.3734,-978.7753"/><polygon fill="none" stroke="#000" points="1459.648 -982.734 1480.643 -1006.597 1479.112 -974.849 1459.648 -982.734"/></g><g id="node10" class="node"><title>9</title><polygon fill="#f2f2f2" stroke="#000" points="3011.761 -668.5 3011.761 -776.5 3567.359 -776.5 3567.359 -668.5 3011.761 -668.5"/><text x="3289.56" y="-759.9" fill="#000" font-family="Times,serif" font-size="14" text-anchor="middle">&lt;&lt;Interface&gt;&gt;</text><text x="3289.56" y="-743.1" fill="#000" font-family="Times,serif" font-size="14" text-anchor="middle">IERC1363Receiver</text><polyline fill="none" stroke="#000" points="3011.761 -734.9 3567.359 -734.9"/><polyline fill="none" stroke="#000" points="3011.761 -710.1 3567.359 -710.1"/><text x="3019.761" y="-693.5" fill="#000" font-family="Times,serif" font-size="14" text-anchor="start">External:</text><text x="3019.761" y="-676.7" fill="#000" font-family="Times,serif" font-size="14" text-anchor="start">onTransferReceived(operator: address, sender: address, amount: uint256, data: bytes): bytes4</text></g><g id="node11" class="node"><title>10</title><polygon fill="#f2f2f2" stroke="#000" points="1660.534 -668.5 1660.534 -776.5 2118.586 -776.5 2118.586 -668.5 1660.534 -668.5"/><text x="1889.56" y="-759.9" fill="#000" font-family="Times,serif" font-size="14" text-anchor="middle">&lt;&lt;Interface&gt;&gt;</text><text x="1889.56" y="-743.1" fill="#000" font-family="Times,serif" font-size="14" text-anchor="middle">IERC1363Spender</text><polyline fill="none" stroke="#000" points="1660.534 -734.9 2118.586 -734.9"/><polyline fill="none" stroke="#000" points="1660.534 -710.1 2118.586 -710.1"/><text x="1668.534" y="-693.5" fill="#000" font-family="Times,serif" font-size="14" text-anchor="start">External:</text><text x="1668.534" y="-676.7" fill="#000" font-family="Times,serif" font-size="14" text-anchor="start">onApprovalReceived(sender: address, amount: uint256, data: bytes): bytes4</text></g><g id="node12" class="node"><title>11</title><polygon fill="#f2f2f2" stroke="#000" points="1243.674 -195.9 1243.674 -455.1 1807.445 -455.1 1807.445 -195.9 1243.674 -195.9"/><text x="1525.56" y="-438.5" fill="#000" font-family="Times,serif" font-size="14" text-anchor="middle">&lt;&lt;Abstract&gt;&gt;</text><text x="1525.56" y="-421.7" fill="#000" font-family="Times,serif" font-size="14" text-anchor="middle">ERC1363</text><polyline fill="none" stroke="#000" points="1243.674 -413.5 1807.445 -413.5"/><polyline fill="none" stroke="#000" points="1243.674 -388.7 1807.445 -388.7"/><text x="1251.674" y="-372.1" fill="#000" font-family="Times,serif" font-size="14" text-anchor="start">Internal:</text><text x="1251.674" y="-355.3" fill="#000" font-family="Times,serif" font-size="14" text-anchor="start">_checkAndCallTransfer(sender: address, recipient: address, amount: uint256, data: bytes): bool</text><text x="1251.674" y="-338.5" fill="#000" font-family="Times,serif" font-size="14" text-anchor="start">_checkAndCallApprove(spender: address, amount: uint256, data: bytes): bool</text><text x="1251.674" y="-321.7" fill="#000" font-family="Times,serif" font-size="14" text-anchor="start">Public:</text><text x="1251.674" y="-304.9" fill="#000" font-family="Times,serif" font-size="14" text-anchor="start">supportsInterface(interfaceId: bytes4): bool</text><text x="1251.674" y="-288.1" fill="#000" font-family="Times,serif" font-size="14" text-anchor="start">transferAndCall(recipient: address, amount: uint256): bool</text><text x="1251.674" y="-271.3" fill="#000" font-family="Times,serif" font-size="14" text-anchor="start">transferAndCall(recipient: address, amount: uint256, data: bytes): bool</text><text x="1251.674" y="-254.5" fill="#000" font-family="Times,serif" font-size="14" text-anchor="start">transferFromAndCall(sender: address, recipient: address, amount: uint256): bool</text><text x="1251.674" y="-237.7" fill="#000" font-family="Times,serif" font-size="14" text-anchor="start">transferFromAndCall(sender: address, recipient: address, amount: uint256, data: bytes): bool</text><text x="1251.674" y="-220.9" fill="#000" font-family="Times,serif" font-size="14" text-anchor="start">approveAndCall(spender: address, amount: uint256): bool</text><text x="1251.674" y="-204.1" fill="#000" font-family="Times,serif" font-size="14" text-anchor="start">approveAndCall(spender: address, amount: uint256, data: bytes): bool</text></g><g id="edge10" class="edge"><title>11-&gt;3</title><path fill="none" stroke="#000" d="M1243.4299,-452.9179C1240.799,-453.8266 1238.1752,-454.721 1235.5599,-455.6 1177.4655,-475.1265 1149.7475,-461.8856 1098.1593,-483.2046"/><polygon fill="none" stroke="#000" points="1093.456 -473.817 1071.16 -496.47 1102.716 -492.665 1093.456 -473.817"/></g><g id="edge13" class="edge"><title>11-&gt;5</title><path fill="none" stroke="#000" stroke-dasharray="5 2" d="M1807.7315,-453.1087C1810.6814,-453.9636 1813.6248,-454.7945 1816.5599,-455.6 1950.7442,-492.4236 1998.9779,-438.4207 2127.5599,-491.6 2173.6116,-510.6461 2218.4131,-539.1673 2258.5395,-569.7276"/><polygon fill="#000" stroke="#000" points="2256.444 -572.532 2266.501 -575.865 2260.718 -566.988 2256.444 -572.532"/></g><g id="edge12" class="edge"><title>11-&gt;7</title><path fill="none" stroke="#000" d="M1807.6506,-453.4266C1810.6263,-454.1802 1813.5966,-454.9052 1816.5599,-455.6 1913.4569,-478.3197 2625.368,-441.8392 2711.5599,-491.6 2767.833,-524.0879 2805.6899,-587.9332 2828.7254,-640.2686"/><polygon fill="none" stroke="#000" points="2819.1 -644.471 2840.166 -668.271 2838.54 -636.529 2819.1 -644.471"/></g><g id="edge11" class="edge"><title>11-&gt;8</title><path fill="none" stroke="#000" stroke-dasharray="5 2" d="M1473.2807,-455.2179C1454.7146,-501.285 1433.8755,-552.9919 1415.509,-598.5638"/><polygon fill="none" stroke="#000" points="1405.764 -594.654 1404.289 -626.404 1425.242 -602.504 1405.764 -594.654"/></g><g id="edge14" class="edge"><title>11-&gt;9</title><path fill="none" stroke="#000" stroke-dasharray="5 2" d="M1807.6409,-453.4687C1810.6196,-454.2088 1813.5932,-454.9198 1816.5599,-455.6 1945.1726,-485.0865 2879.827,-445.7652 3003.5599,-491.6 3097.3394,-526.339 3183.479,-605.0745 3236.1891,-660.9222"/><polygon fill="#000" stroke="#000" points="3233.699 -663.384 3243.084 -668.3 3238.813 -658.604 3233.699 -663.384"/></g><g id="edge15" class="edge"><title>11-&gt;10</title><path fill="none" stroke="#000" stroke-dasharray="5 2" d="M1644.4953,-455.2179C1707.8827,-524.352 1782.9162,-606.188 1833.106,-660.928"/><polygon fill="#000" stroke="#000" points="1830.681 -663.463 1840.019 -668.468 1835.841 -658.732 1830.681 -663.463"/></g><g id="node13" class="node"><title>12</title><polygon fill="#f2f2f2" stroke="#000" points="82.123 -618.1 82.123 -826.9 566.997 -826.9 566.997 -618.1 82.123 -618.1"/><text x="324.56" y="-810.3" fill="#000" font-family="Times,serif" font-size="14" text-anchor="middle">&lt;&lt;Abstract&gt;&gt;</text><text x="324.56" y="-793.5" fill="#000" font-family="Times,serif" font-size="14" text-anchor="middle">Ownable</text><polyline fill="none" stroke="#000" points="82.123 -785.3 566.997 -785.3"/><text x="90.123" y="-768.7" fill="#000" font-family="Times,serif" font-size="14" text-anchor="start">Private:</text><text x="90.123" y="-751.9" fill="#000" font-family="Times,serif" font-size="14" text-anchor="start">_owner: address</text><polyline fill="none" stroke="#000" points="82.123 -743.7 566.997 -743.7"/><text x="90.123" y="-727.1" fill="#000" font-family="Times,serif" font-size="14" text-anchor="start">Public:</text><text x="90.123" y="-710.3" fill="#000" font-family="Times,serif" font-size="14" text-anchor="start">&lt;&lt;event&gt;&gt; OwnershipTransferred(previousOwner: address, newOwner: address)</text><text x="90.123" y="-693.5" fill="#000" font-family="Times,serif" font-size="14" text-anchor="start">&lt;&lt;modifier&gt;&gt; onlyOwner()</text><text x="90.123" y="-676.7" fill="#000" font-family="Times,serif" font-size="14" text-anchor="start">constructor()</text><text x="90.123" y="-659.9" fill="#000" font-family="Times,serif" font-size="14" text-anchor="start">owner(): address</text><text x="90.123" y="-643.1" fill="#000" font-family="Times,serif" font-size="14" text-anchor="start">renounceOwnership()</text><text x="90.123" y="-626.3" fill="#000" font-family="Times,serif" font-size="14" text-anchor="start">transferOwnership(newOwner: address)</text></g><g id="edge16" class="edge"><title>12-&gt;2</title><path fill="none" stroke="#000" d="M408.1406,-827.1925C445.7753,-874.3335 489.6782,-929.3259 525.4219,-974.0983"/><polygon fill="none" stroke="#000" points="517.426 -980.912 544.349 -997.806 533.837 -967.81 517.426 -980.912"/></g><g id="node14" class="node"><title>13</title><polygon fill="#f2f2f2" stroke="#000" points="50.049 -279.9 50.049 -371.1 433.071 -371.1 433.071 -279.9 50.049 -279.9"/><text x="241.56" y="-354.5" fill="#000" font-family="Times,serif" font-size="14" text-anchor="middle">TokenRecover</text><polyline fill="none" stroke="#000" points="50.049 -346.3 433.071 -346.3"/><polyline fill="none" stroke="#000" points="50.049 -321.5 433.071 -321.5"/><text x="58.049" y="-304.9" fill="#000" font-family="Times,serif" font-size="14" text-anchor="start">Public:</text><text x="58.049" y="-288.1" fill="#000" font-family="Times,serif" font-size="14" text-anchor="start">recoverERC20(tokenAddress: address, tokenAmount: uint256)</text></g><g id="edge18" class="edge"><title>13-&gt;0</title><path fill="none" stroke="#000" stroke-dasharray="5 2" d="M174.028,-371.1864C136.7759,-400.6567 94.0256,-442.5863 73.5599,-491.6 -5.5226,-680.997 -40.5947,-782.8304 73.5599,-953.4 147.431,-1063.778 483.4307,-1170.5151 716.0884,-1233.1283"/><polygon fill="#000" stroke="#000" points="715.484 -1236.59 726.049 -1235.799 717.296 -1229.828 715.484 -1236.59"/></g><g id="edge17" class="edge"><title>13-&gt;12</title><path fill="none" stroke="#000" d="M251.1622,-371.4288C262.2065,-424.2555 280.8407,-513.3851 296.569,-588.6158"/><polygon fill="none" stroke="#000" points="286.293 -590.772 302.71 -617.989 306.848 -586.475 286.293 -590.772"/></g><g id="node15" class="node"><title>14</title><polygon fill="#f2f2f2" stroke="#000" points="755.945 -254.7 755.945 -396.3 951.175 -396.3 951.175 -254.7 755.945 -254.7"/><text x="853.56" y="-379.7" fill="#000" font-family="Times,serif" font-size="14" text-anchor="middle">&lt;&lt;Abstract&gt;&gt;</text><text x="853.56" y="-362.9" fill="#000" font-family="Times,serif" font-size="14" text-anchor="middle">ERC20Decimals</text><polyline fill="none" stroke="#000" points="755.945 -354.7 951.175 -354.7"/><text x="763.945" y="-338.1" fill="#000" font-family="Times,serif" font-size="14" text-anchor="start">Private:</text><text x="763.945" y="-321.3" fill="#000" font-family="Times,serif" font-size="14" text-anchor="start">_decimals: uint8</text><polyline fill="none" stroke="#000" points="755.945 -313.1 951.175 -313.1"/><text x="763.945" y="-296.5" fill="#000" font-family="Times,serif" font-size="14" text-anchor="start">Public:</text><text x="763.945" y="-279.7" fill="#000" font-family="Times,serif" font-size="14" text-anchor="start">constructor(decimals_: uint8)</text><text x="763.945" y="-262.9" fill="#000" font-family="Times,serif" font-size="14" text-anchor="start">decimals(): uint8</text></g><g id="edge19" class="edge"><title>14-&gt;3</title><path fill="none" stroke="#000" d="M853.5599,-396.4756C853.5599,-415.8426 853.5599,-438.0183 853.5599,-461.4928"/><polygon fill="none" stroke="#000" points="843.06 -461.808 853.56 -491.808 864.06 -461.808 843.06 -461.808"/></g><g id="node16" class="node"><title>15</title><polygon fill="#f2f2f2" stroke="#000" points="969.028 -204.3 969.028 -446.7 1226.092 -446.7 1226.092 -204.3 969.028 -204.3"/><text x="1097.56" y="-430.1" fill="#000" font-family="Times,serif" font-size="14" text-anchor="middle">&lt;&lt;Abstract&gt;&gt;</text><text x="1097.56" y="-413.3" fill="#000" font-family="Times,serif" font-size="14" text-anchor="middle">ERC20Mintable</text><polyline fill="none" stroke="#000" points="969.028 -405.1 1226.092 -405.1"/><text x="977.028" y="-388.5" fill="#000" font-family="Times,serif" font-size="14" text-anchor="start">Private:</text><text x="977.028" y="-371.7" fill="#000" font-family="Times,serif" font-size="14" text-anchor="start">_mintingFinished: bool</text><polyline fill="none" stroke="#000" points="969.028 -363.5 1226.092 -363.5"/><text x="977.028" y="-346.9" fill="#000" font-family="Times,serif" font-size="14" text-anchor="start">Internal:</text><text x="977.028" y="-330.1" fill="#000" font-family="Times,serif" font-size="14" text-anchor="start">_finishMinting()</text><text x="977.028" y="-313.3" fill="#000" font-family="Times,serif" font-size="14" text-anchor="start">External:</text><text x="977.028" y="-296.5" fill="#000" font-family="Times,serif" font-size="14" text-anchor="start">mintingFinished(): bool</text><text x="977.028" y="-279.7" fill="#000" font-family="Times,serif" font-size="14" text-anchor="start">mint(account: address, amount: uint256)</text><text x="977.028" y="-262.9" fill="#000" font-family="Times,serif" font-size="14" text-anchor="start">finishMinting()</text><text x="977.028" y="-246.1" fill="#000" font-family="Times,serif" font-size="14" text-anchor="start">Public:</text><text x="977.028" y="-229.3" fill="#000" font-family="Times,serif" font-size="14" text-anchor="start">&lt;&lt;event&gt;&gt; MintFinished()</text><text x="977.028" y="-212.5" fill="#000" font-family="Times,serif" font-size="14" text-anchor="start">&lt;&lt;modifier&gt;&gt; canMint()</text></g><g id="edge20" class="edge"><title>15-&gt;3</title><path fill="none" stroke="#000" d="M1023.0261,-446.7703C1019.1326,-453.1052 1015.1627,-459.5644 1011.1361,-466.1158"/><polygon fill="none" stroke="#000" points="1002.129 -460.718 995.366 -491.774 1020.02 -471.714 1002.129 -460.718"/></g><g id="node17" class="node"><title>16</title><polygon fill="#f2f2f2" stroke="#000" points="1193.87 -25.7 1193.87 -133.7 1369.249 -133.7 1369.249 -25.7 1193.87 -25.7"/><text x="1281.56" y="-117.1" fill="#000" font-family="Times,serif" font-size="14" text-anchor="middle">&lt;&lt;Interface&gt;&gt;</text><text x="1281.56" y="-100.3" fill="#000" font-family="Times,serif" font-size="14" text-anchor="middle">IPayable</text><polyline fill="none" stroke="#000" points="1193.87 -92.1 1369.249 -92.1"/><polyline fill="none" stroke="#000" points="1193.87 -67.3 1369.249 -67.3"/><text x="1201.87" y="-50.7" fill="#000" font-family="Times,serif" font-size="14" text-anchor="start">External:</text><text x="1201.87" y="-33.9" fill="#000" font-family="Times,serif" font-size="14" text-anchor="start">pay(serviceName: string)</text></g><g id="node18" class="node"><title>17</title><polygon fill="#f2f2f2" stroke="#000" points="1825.52 -271.5 1825.52 -379.5 2141.6 -379.5 2141.6 -271.5 1825.52 -271.5"/><text x="1983.56" y="-362.9" fill="#000" font-family="Times,serif" font-size="14" text-anchor="middle">&lt;&lt;Abstract&gt;&gt;</text><text x="1983.56" y="-346.1" fill="#000" font-family="Times,serif" font-size="14" text-anchor="middle">ServicePayer</text><polyline fill="none" stroke="#000" points="1825.52 -337.9 2141.6 -337.9"/><polyline fill="none" stroke="#000" points="1825.52 -313.1 2141.6 -313.1"/><text x="1833.52" y="-296.5" fill="#000" font-family="Times,serif" font-size="14" text-anchor="start">Public:</text><text x="1833.52" y="-279.7" fill="#000" font-family="Times,serif" font-size="14" text-anchor="start">constructor(receiver: address, serviceName: string)</text></g><g id="node19" class="node"><title>18</title><polygon fill="#f2f2f2" stroke="#000" points="530.83 -.5 530.83 -158.9 1176.29 -158.9 1176.29 -.5 530.83 -.5"/><text x="853.56" y="-142.3" fill="#000" font-family="Times,serif" font-size="14" text-anchor="middle">AmazingERC20</text><polyline fill="none" stroke="#000" points="530.83 -134.1 1176.29 -134.1"/><polyline fill="none" stroke="#000" points="530.83 -109.3 1176.29 -109.3"/><text x="538.83" y="-92.7" fill="#000" font-family="Times,serif" font-size="14" text-anchor="start">Internal:</text><text x="538.83" y="-75.9" fill="#000" font-family="Times,serif" font-size="14" text-anchor="start">_mint(account: address, amount: uint256)</text><text x="538.83" y="-59.1" fill="#000" font-family="Times,serif" font-size="14" text-anchor="start">_finishMinting()</text><text x="538.83" y="-42.3" fill="#000" font-family="Times,serif" font-size="14" text-anchor="start">Public:</text><text x="538.83" y="-25.5" fill="#000" font-family="Times,serif" font-size="14" text-anchor="start">constructor(name_: string, symbol_: string, decimals_: uint8, initialBalance_: uint256, feeReceiver_: address)</text><text x="538.83" y="-8.7" fill="#000" font-family="Times,serif" font-size="14" text-anchor="start">decimals(): uint8</text></g><g id="edge23" class="edge"><title>18-&gt;4</title><path fill="none" stroke="#000" d="M769.8277,-159.1648C741.8392,-185.7268 710.5774,-215.3954 682.2927,-242.2386"/><polygon fill="none" stroke="#000" points="674.899 -234.78 660.367 -263.047 689.355 -250.012 674.899 -234.78"/></g><g id="edge24" class="edge"><title>18-&gt;11</title><path fill="none" stroke="#000" d="M1130.3846,-158.9713C1157.6601,-167.8046 1185.0383,-177.0665 1215.0121,-187.9048"/><polygon fill="none" stroke="#000" points="1211.56 -197.823 1243.34 -198.334 1218.815 -178.116 1211.56 -197.823"/></g><g id="edge25" class="edge"><title>18-&gt;13</title><path fill="none" stroke="#000" d="M534.0595,-158.9532C502.3305,-169.9248 470.9997,-182.0672 441.5599,-195.4 401.6216,-213.4875 360.5196,-238.8582 326.0435,-262.3977"/><polygon fill="none" stroke="#000" points="319.918 -253.868 301.382 -279.688 331.974 -271.063 319.918 -253.868"/></g><g id="edge21" class="edge"><title>18-&gt;14</title><path fill="none" stroke="#000" d="M853.5599,-159.1648C853.5599,-179.923 853.5599,-202.5784 853.5599,-224.2999"/><polygon fill="none" stroke="#000" points="843.06 -224.606 853.56 -254.606 864.06 -224.606 843.06 -224.606"/></g><g id="edge22" class="edge"><title>18-&gt;15</title><path fill="none" stroke="#000" d="M932.4428,-159.1648C939.8766,-166.6534 947.5555,-174.389 955.3476,-182.2386"/><polygon fill="none" stroke="#000" points="948.225 -189.968 976.812 -203.862 963.129 -175.173 948.225 -189.968"/></g><g id="edge26" class="edge"><title>18-&gt;17</title><path fill="none" stroke="#000" d="M1176.6378,-158.202C1179.2875,-158.612 1181.9286,-159.0115 1184.5599,-159.4 1323.7232,-179.9479 1684.8739,-145.9284 1816.5599,-195.4 1849.7869,-207.8827 1881.7112,-229.4627 1908.5869,-251.4997"/><polygon fill="none" stroke="#000" points="1901.736 -259.457 1931.275 -271.19 1915.5 -243.597 1901.736 -259.457"/></g></g></svg>