<svg xmlns="http://www.w3.org/2000/svg" xmlns:xlink="http://www.w3.org/1999/xlink" width="926pt" height="1668" viewBox="0 0 926.38 1251.4"><g id="graph0" class="graph" transform="scale(1 1) rotate(0) translate(4 1247.4)"><title>UmlClassDiagram</title><polygon fill="#fff" stroke="transparent" points="-4 4 -4 -1247.4 922.383 -1247.4 922.383 4 -4 4"/><g id="node1" class="node"><title>0</title><polygon fill="#f2f2f2" stroke="#000" points="170.394 -1000.5 170.394 -1242.9 608.994 -1242.9 608.994 -1000.5 170.394 -1000.5"/><text x="389.694" y="-1226.3" fill="#000" font-family="Times,serif" font-size="14" text-anchor="middle">&lt;&lt;Interface&gt;&gt;</text><text x="389.694" y="-1209.5" fill="#000" font-family="Times,serif" font-size="14" text-anchor="middle">IERC20</text><polyline fill="none" stroke="#000" points="170.394 -1201.3 608.994 -1201.3"/><polyline fill="none" stroke="#000" points="170.394 -1176.5 608.994 -1176.5"/><text x="178.394" y="-1159.9" fill="#000" font-family="Times,serif" font-size="14" text-anchor="start">External:</text><text x="178.394" y="-1143.1" fill="#000" font-family="Times,serif" font-size="14" text-anchor="start">totalSupply(): uint256</text><text x="178.394" y="-1126.3" fill="#000" font-family="Times,serif" font-size="14" text-anchor="start">balanceOf(account: address): uint256</text><text x="178.394" y="-1109.5" fill="#000" font-family="Times,serif" font-size="14" text-anchor="start">transfer(recipient: address, amount: uint256): bool</text><text x="178.394" y="-1092.7" fill="#000" font-family="Times,serif" font-size="14" text-anchor="start">allowance(owner: address, spender: address): uint256</text><text x="178.394" y="-1075.9" fill="#000" font-family="Times,serif" font-size="14" text-anchor="start">approve(spender: address, amount: uint256): bool</text><text x="178.394" y="-1059.1" fill="#000" font-family="Times,serif" font-size="14" text-anchor="start">transferFrom(sender: address, recipient: address, amount: uint256): bool</text><text x="178.394" y="-1042.3" fill="#000" font-family="Times,serif" font-size="14" text-anchor="start">Public:</text><text x="178.394" y="-1025.5" fill="#000" font-family="Times,serif" font-size="14" text-anchor="start">&lt;&lt;event&gt;&gt; Transfer(from: address, to: address, value: uint256)</text><text x="178.394" y="-1008.7" fill="#000" font-family="Times,serif" font-size="14" text-anchor="start">&lt;&lt;event&gt;&gt; Approval(owner: address, spender: address, value: uint256)</text></g><g id="node2" class="node"><title>1</title><polygon fill="#f2f2f2" stroke="#000" points="371.317 -821.9 371.317 -963.5 500.07 -963.5 500.07 -821.9 371.317 -821.9"/><text x="435.694" y="-946.9" fill="#000" font-family="Times,serif" font-size="14" text-anchor="middle">&lt;&lt;Interface&gt;&gt;</text><text x="435.694" y="-930.1" fill="#000" font-family="Times,serif" font-size="14" text-anchor="middle">IERC20Metadata</text><polyline fill="none" stroke="#000" points="371.317 -921.9 500.07 -921.9"/><polyline fill="none" stroke="#000" points="371.317 -897.1 500.07 -897.1"/><text x="379.317" y="-880.5" fill="#000" font-family="Times,serif" font-size="14" text-anchor="start">External:</text><text x="379.317" y="-863.7" fill="#000" font-family="Times,serif" font-size="14" text-anchor="start">name(): string</text><text x="379.317" y="-846.9" fill="#000" font-family="Times,serif" font-size="14" text-anchor="start">symbol(): string</text><text x="379.317" y="-830.1" fill="#000" font-family="Times,serif" font-size="14" text-anchor="start">decimals(): uint8</text></g><g id="edge1" class="edge"><title>1-&gt;0</title><path fill="none" stroke="#000" stroke-dasharray="5 2" d="M421.4539,-963.5888C420.9953,-965.8721 420.5311,-968.1827 420.0624,-970.516"/><polygon fill="none" stroke="#000" points="409.714 -968.719 414.1 -1000.199 430.303 -972.855 409.714 -968.719"/></g><g id="node3" class="node"><title>2</title><polygon fill="#f2f2f2" stroke="#000" points="134.744 -830.3 134.744 -955.1 292.643 -955.1 292.643 -830.3 134.744 -830.3"/><text x="213.694" y="-938.5" fill="#000" font-family="Times,serif" font-size="14" text-anchor="middle">&lt;&lt;Abstract&gt;&gt;</text><text x="213.694" y="-921.7" fill="#000" font-family="Times,serif" font-size="14" text-anchor="middle">Context</text><polyline fill="none" stroke="#000" points="134.744 -913.5 292.643 -913.5"/><polyline fill="none" stroke="#000" points="134.744 -888.7 292.643 -888.7"/><text x="142.744" y="-872.1" fill="#000" font-family="Times,serif" font-size="14" text-anchor="start">Internal:</text><text x="142.744" y="-855.3" fill="#000" font-family="Times,serif" font-size="14" text-anchor="start">_msgSender(): address</text><text x="142.744" y="-838.5" fill="#000" font-family="Times,serif" font-size="14" text-anchor="start">_msgData(): bytes</text></g><g id="node4" class="node"><title>3</title><polygon fill="#f2f2f2" stroke="#000" points="172.144 -324.1 172.144 -784.9 607.244 -784.9 607.244 -324.1 172.144 -324.1"/><text x="389.694" y="-768.3" fill="#000" font-family="Times,serif" font-size="14" text-anchor="middle">ERC20</text><polyline fill="none" stroke="#000" points="172.144 -760.1 607.244 -760.1"/><text x="180.144" y="-743.5" fill="#000" font-family="Times,serif" font-size="14" text-anchor="start">Private:</text><text x="180.144" y="-726.7" fill="#000" font-family="Times,serif" font-size="14" text-anchor="start">_balances: mapping(address=&gt;uint256)</text><text x="180.144" y="-709.9" fill="#000" font-family="Times,serif" font-size="14" text-anchor="start">_allowances: mapping(address=&gt;mapping(address=&gt;uint256))</text><text x="180.144" y="-693.1" fill="#000" font-family="Times,serif" font-size="14" text-anchor="start">_totalSupply: uint256</text><text x="180.144" y="-676.3" fill="#000" font-family="Times,serif" font-size="14" text-anchor="start">_name: string</text><text x="180.144" y="-659.5" fill="#000" font-family="Times,serif" font-size="14" text-anchor="start">_symbol: string</text><polyline fill="none" stroke="#000" points="172.144 -651.3 607.244 -651.3"/><text x="180.144" y="-634.7" fill="#000" font-family="Times,serif" font-size="14" text-anchor="start">Internal:</text><text x="180.144" y="-617.9" fill="#000" font-family="Times,serif" font-size="14" text-anchor="start">_transfer(sender: address, recipient: address, amount: uint256)</text><text x="180.144" y="-601.1" fill="#000" font-family="Times,serif" font-size="14" text-anchor="start">_mint(account: address, amount: uint256)</text><text x="180.144" y="-584.3" fill="#000" font-family="Times,serif" font-size="14" text-anchor="start">_burn(account: address, amount: uint256)</text><text x="180.144" y="-567.5" fill="#000" font-family="Times,serif" font-size="14" text-anchor="start">_approve(owner: address, spender: address, amount: uint256)</text><text x="180.144" y="-550.7" fill="#000" font-family="Times,serif" font-size="14" text-anchor="start">_beforeTokenTransfer(from: address, to: address, amount: uint256)</text><text x="180.144" y="-533.9" fill="#000" font-family="Times,serif" font-size="14" text-anchor="start">Public:</text><text x="180.144" y="-517.1" fill="#000" font-family="Times,serif" font-size="14" text-anchor="start">constructor(name_: string, symbol_: string)</text><text x="180.144" y="-500.3" fill="#000" font-family="Times,serif" font-size="14" text-anchor="start">name(): string</text><text x="180.144" y="-483.5" fill="#000" font-family="Times,serif" font-size="14" text-anchor="start">symbol(): string</text><text x="180.144" y="-466.7" fill="#000" font-family="Times,serif" font-size="14" text-anchor="start">decimals(): uint8</text><text x="180.144" y="-449.9" fill="#000" font-family="Times,serif" font-size="14" text-anchor="start">totalSupply(): uint256</text><text x="180.144" y="-433.1" fill="#000" font-family="Times,serif" font-size="14" text-anchor="start">balanceOf(account: address): uint256</text><text x="180.144" y="-416.3" fill="#000" font-family="Times,serif" font-size="14" text-anchor="start">transfer(recipient: address, amount: uint256): bool</text><text x="180.144" y="-399.5" fill="#000" font-family="Times,serif" font-size="14" text-anchor="start">allowance(owner: address, spender: address): uint256</text><text x="180.144" y="-382.7" fill="#000" font-family="Times,serif" font-size="14" text-anchor="start">approve(spender: address, amount: uint256): bool</text><text x="180.144" y="-365.9" fill="#000" font-family="Times,serif" font-size="14" text-anchor="start">transferFrom(sender: address, recipient: address, amount: uint256): bool</text><text x="180.144" y="-349.1" fill="#000" font-family="Times,serif" font-size="14" text-anchor="start">increaseAllowance(spender: address, addedValue: uint256): bool</text><text x="180.144" y="-332.3" fill="#000" font-family="Times,serif" font-size="14" text-anchor="start">decreaseAllowance(spender: address, subtractedValue: uint256): bool</text></g><g id="edge3" class="edge"><title>3-&gt;0</title><path fill="none" stroke="#000" stroke-dasharray="5 2" d="M362.3231,-784.9968C358.7295,-843.4267 357.7688,-906.0526 362.6936,-964 362.8654,-966.0217 363.0494,-968.0565 363.2448,-970.1018"/><polygon fill="none" stroke="#000" points="352.844 -971.566 366.765 -1000.14 373.702 -969.122 352.844 -971.566"/></g><g id="edge4" class="edge"><title>3-&gt;1</title><path fill="none" stroke="#000" stroke-dasharray="5 2" d="M421.0757,-785.2267C421.3754,-787.43 421.6729,-789.617 421.9679,-791.7861"/><polygon fill="none" stroke="#000" points="411.587 -793.374 426.034 -821.685 432.395 -790.543 411.587 -793.374"/></g><g id="edge2" class="edge"><title>3-&gt;2</title><path fill="none" stroke="#000" d="M269.6229,-785.2267C266.4192,-791.383 263.2811,-797.4131 260.2293,-803.2775"/><polygon fill="none" stroke="#000" points="250.762 -798.725 246.227 -830.184 269.39 -808.419 250.762 -798.725"/></g><g id="node5" class="node"><title>4</title><polygon fill="#f2f2f2" stroke="#000" points="0 -153.9 0 -278.7 287.387 -278.7 287.387 -153.9 0 -153.9"/><text x="143.694" y="-262.1" fill="#000" font-family="Times,serif" font-size="14" text-anchor="middle">&lt;&lt;Abstract&gt;&gt;</text><text x="143.694" y="-245.3" fill="#000" font-family="Times,serif" font-size="14" text-anchor="middle">ERC20Burnable</text><polyline fill="none" stroke="#000" points="0 -237.1 287.387 -237.1"/><polyline fill="none" stroke="#000" points="0 -212.3 287.387 -212.3"/><text x="8" y="-195.7" fill="#000" font-family="Times,serif" font-size="14" text-anchor="start">Public:</text><text x="8" y="-178.9" fill="#000" font-family="Times,serif" font-size="14" text-anchor="start">burn(amount: uint256)</text><text x="8" y="-162.1" fill="#000" font-family="Times,serif" font-size="14" text-anchor="start">burnFrom(account: address, amount: uint256)</text></g><g id="edge5" class="edge"><title>4-&gt;2</title><path fill="none" stroke="#000" d="M137.5709,-278.8952C129.0097,-384.906 119.0144,-605.7715 162.6936,-785.4 164.0357,-790.9193 165.6792,-796.4928 167.5438,-802.045"/><polygon fill="none" stroke="#000" points="157.891 -806.186 178.742 -830.175 177.401 -798.418 157.891 -806.186"/></g><g id="edge6" class="edge"><title>4-&gt;3</title><path fill="none" stroke="#000" d="M189.1005,-278.7252C193.9421,-285.3815 199.0549,-292.4105 204.3794,-299.7306"/><polygon fill="none" stroke="#000" points="195.893 -305.914 222.031 -323.998 212.876 -293.561 195.893 -305.914"/></g><g id="node6" class="node"><title>5</title><polygon fill="#f2f2f2" stroke="#000" points="305.079 -145.5 305.079 -287.1 500.308 -287.1 500.308 -145.5 305.079 -145.5"/><text x="402.694" y="-270.5" fill="#000" font-family="Times,serif" font-size="14" text-anchor="middle">&lt;&lt;Abstract&gt;&gt;</text><text x="402.694" y="-253.7" fill="#000" font-family="Times,serif" font-size="14" text-anchor="middle">ERC20Decimals</text><polyline fill="none" stroke="#000" points="305.079 -245.5 500.308 -245.5"/><text x="313.079" y="-228.9" fill="#000" font-family="Times,serif" font-size="14" text-anchor="start">Private:</text><text x="313.079" y="-212.1" fill="#000" font-family="Times,serif" font-size="14" text-anchor="start">_decimals: uint8</text><polyline fill="none" stroke="#000" points="305.079 -203.9 500.308 -203.9"/><text x="313.079" y="-187.3" fill="#000" font-family="Times,serif" font-size="14" text-anchor="start">Public:</text><text x="313.079" y="-170.5" fill="#000" font-family="Times,serif" font-size="14" text-anchor="start">constructor(decimals_: uint8)</text><text x="313.079" y="-153.7" fill="#000" font-family="Times,serif" font-size="14" text-anchor="start">decimals(): uint8</text></g><g id="edge7" class="edge"><title>5-&gt;3</title><path fill="none" stroke="#000" d="M399.9684,-287.1978C399.886,-289.3405 399.8024,-291.5155 399.7177,-293.7202"/><polygon fill="none" stroke="#000" points="389.219 -293.485 398.559 -323.866 410.204 -294.291 389.219 -293.485"/></g><g id="node7" class="node"><title>6</title><polygon fill="#f2f2f2" stroke="#000" points="743.004 -.5 743.004 -108.5 918.383 -108.5 918.383 -.5 743.004 -.5"/><text x="830.694" y="-91.9" fill="#000" font-family="Times,serif" font-size="14" text-anchor="middle">&lt;&lt;Interface&gt;&gt;</text><text x="830.694" y="-75.1" fill="#000" font-family="Times,serif" font-size="14" text-anchor="middle">IPayable</text><polyline fill="none" stroke="#000" points="743.004 -66.9 918.383 -66.9"/><polyline fill="none" stroke="#000" points="743.004 -42.1 918.383 -42.1"/><text x="751.004" y="-25.5" fill="#000" font-family="Times,serif" font-size="14" text-anchor="start">External:</text><text x="751.004" y="-8.7" fill="#000" font-family="Times,serif" font-size="14" text-anchor="start">pay(serviceName: string)</text></g><g id="node8" class="node"><title>7</title><polygon fill="#f2f2f2" stroke="#000" points="518.654 -162.3 518.654 -270.3 834.734 -270.3 834.734 -162.3 518.654 -162.3"/><text x="676.694" y="-253.7" fill="#000" font-family="Times,serif" font-size="14" text-anchor="middle">&lt;&lt;Abstract&gt;&gt;</text><text x="676.694" y="-236.9" fill="#000" font-family="Times,serif" font-size="14" text-anchor="middle">ServicePayer</text><polyline fill="none" stroke="#000" points="518.654 -228.7 834.734 -228.7"/><polyline fill="none" stroke="#000" points="518.654 -203.9 834.734 -203.9"/><text x="526.654" y="-187.3" fill="#000" font-family="Times,serif" font-size="14" text-anchor="start">Public:</text><text x="526.654" y="-170.5" fill="#000" font-family="Times,serif" font-size="14" text-anchor="start">constructor(receiver: address, serviceName: string)</text></g><g id="node9" class="node"><title>8</title><polygon fill="#f2f2f2" stroke="#000" points="79.964 -.5 79.964 -108.5 725.423 -108.5 725.423 -.5 79.964 -.5"/><text x="402.694" y="-91.9" fill="#000" font-family="Times,serif" font-size="14" text-anchor="middle">BurnableERC20</text><polyline fill="none" stroke="#000" points="79.964 -83.7 725.423 -83.7"/><polyline fill="none" stroke="#000" points="79.964 -58.9 725.423 -58.9"/><text x="87.964" y="-42.3" fill="#000" font-family="Times,serif" font-size="14" text-anchor="start">Public:</text><text x="87.964" y="-25.5" fill="#000" font-family="Times,serif" font-size="14" text-anchor="start">constructor(name_: string, symbol_: string, decimals_: uint8, initialBalance_: uint256, feeReceiver_: address)</text><text x="87.964" y="-8.7" fill="#000" font-family="Times,serif" font-size="14" text-anchor="start">decimals(): uint8</text></g><g id="edge9" class="edge"><title>8-&gt;4</title><path fill="none" stroke="#000" d="M316.0903,-108.602C301.0238,-118.0142 285.0841,-127.9719 269.2238,-137.88"/><polygon fill="none" stroke="#000" points="263.529 -129.057 243.649 -153.857 274.655 -146.867 263.529 -129.057"/></g><g id="edge8" class="edge"><title>8-&gt;5</title><path fill="none" stroke="#000" d="M402.6936,-108.8272C402.6936,-110.9387 402.6936,-113.0774 402.6936,-115.2366"/><polygon fill="none" stroke="#000" points="392.194 -115.45 402.694 -145.45 413.194 -115.45 392.194 -115.45"/></g><g id="edge10" class="edge"><title>8-&gt;7</title><path fill="none" stroke="#000" d="M494.3126,-108.602C515.106,-120.8807 537.4717,-134.088 559.172,-146.9022"/><polygon fill="none" stroke="#000" points="553.99 -156.036 585.161 -162.249 564.668 -137.953 553.99 -156.036"/></g></g></svg>