<svg xmlns="http://www.w3.org/2000/svg" xmlns:xlink="http://www.w3.org/1999/xlink" width="1709pt" height="1403pt" viewBox="0 0 1709.48 1402.6"><g id="graph0" class="graph" transform="scale(1 1) rotate(0) translate(4 1398.6)"><title>UmlClassDiagram</title><polygon fill="#fff" stroke="transparent" points="-4 4 -4 -1398.6 1705.477 -1398.6 1705.477 4 -4 4"/><g id="node1" class="node"><title>0</title><polygon fill="#f2f2f2" stroke="#000" points="433.488 -981.5 433.488 -1106.3 591.386 -1106.3 591.386 -981.5 433.488 -981.5"/><text x="512.437" y="-1089.7" fill="#000" font-family="Times,serif" font-size="14" text-anchor="middle">&lt;&lt;Abstract&gt;&gt;</text><text x="512.437" y="-1072.9" fill="#000" font-family="Times,serif" font-size="14" text-anchor="middle">Context</text><polyline fill="none" stroke="#000" points="433.488 -1064.7 591.386 -1064.7"/><polyline fill="none" stroke="#000" points="433.488 -1039.9 591.386 -1039.9"/><text x="441.488" y="-1023.3" fill="#000" font-family="Times,serif" font-size="14" text-anchor="start">Internal:</text><text x="441.488" y="-1006.5" fill="#000" font-family="Times,serif" font-size="14" text-anchor="start">_msgSender(): address</text><text x="441.488" y="-989.7" fill="#000" font-family="Times,serif" font-size="14" text-anchor="start">_msgData(): bytes</text></g><g id="node2" class="node"><title>1</title><polygon fill="#f2f2f2" stroke="#000" points="0 -601.3 0 -810.1 484.874 -810.1 484.874 -601.3 0 -601.3"/><text x="242.437" y="-793.5" fill="#000" font-family="Times,serif" font-size="14" text-anchor="middle">&lt;&lt;Abstract&gt;&gt;</text><text x="242.437" y="-776.7" fill="#000" font-family="Times,serif" font-size="14" text-anchor="middle">Ownable</text><polyline fill="none" stroke="#000" points="0 -768.5 484.874 -768.5"/><text x="8" y="-751.9" fill="#000" font-family="Times,serif" font-size="14" text-anchor="start">Private:</text><text x="8" y="-735.1" fill="#000" font-family="Times,serif" font-size="14" text-anchor="start">_owner: address</text><polyline fill="none" stroke="#000" points="0 -726.9 484.874 -726.9"/><text x="8" y="-710.3" fill="#000" font-family="Times,serif" font-size="14" text-anchor="start">Public:</text><text x="8" y="-693.5" fill="#000" font-family="Times,serif" font-size="14" text-anchor="start">&lt;&lt;event&gt;&gt; OwnershipTransferred(previousOwner: address, newOwner: address)</text><text x="8" y="-676.7" fill="#000" font-family="Times,serif" font-size="14" text-anchor="start">&lt;&lt;modifier&gt;&gt; onlyOwner()</text><text x="8" y="-659.9" fill="#000" font-family="Times,serif" font-size="14" text-anchor="start">constructor()</text><text x="8" y="-643.1" fill="#000" font-family="Times,serif" font-size="14" text-anchor="start">owner(): address</text><text x="8" y="-626.3" fill="#000" font-family="Times,serif" font-size="14" text-anchor="start">renounceOwnership()</text><text x="8" y="-609.5" fill="#000" font-family="Times,serif" font-size="14" text-anchor="start">transferOwnership(newOwner: address)</text></g><g id="edge1" class="edge"><title>1-&gt;0</title><path fill="none" stroke="#000" d="M326.0176,-810.3925C363.6524,-857.5335 407.5552,-912.5259 443.299,-957.2983"/><polygon fill="none" stroke="#000" points="435.303 -964.112 462.226 -981.006 451.714 -951.01 435.303 -964.112"/></g><g id="node3" class="node"><title>2</title><polygon fill="#f2f2f2" stroke="#000" points="542.137 -1151.7 542.137 -1394.1 980.737 -1394.1 980.737 -1151.7 542.137 -1151.7"/><text x="761.437" y="-1377.5" fill="#000" font-family="Times,serif" font-size="14" text-anchor="middle">&lt;&lt;Interface&gt;&gt;</text><text x="761.437" y="-1360.7" fill="#000" font-family="Times,serif" font-size="14" text-anchor="middle">IERC20</text><polyline fill="none" stroke="#000" points="542.137 -1352.5 980.737 -1352.5"/><polyline fill="none" stroke="#000" points="542.137 -1327.7 980.737 -1327.7"/><text x="550.137" y="-1311.1" fill="#000" font-family="Times,serif" font-size="14" text-anchor="start">External:</text><text x="550.137" y="-1294.3" fill="#000" font-family="Times,serif" font-size="14" text-anchor="start">totalSupply(): uint256</text><text x="550.137" y="-1277.5" fill="#000" font-family="Times,serif" font-size="14" text-anchor="start">balanceOf(account: address): uint256</text><text x="550.137" y="-1260.7" fill="#000" font-family="Times,serif" font-size="14" text-anchor="start">transfer(recipient: address, amount: uint256): bool</text><text x="550.137" y="-1243.9" fill="#000" font-family="Times,serif" font-size="14" text-anchor="start">allowance(owner: address, spender: address): uint256</text><text x="550.137" y="-1227.1" fill="#000" font-family="Times,serif" font-size="14" text-anchor="start">approve(spender: address, amount: uint256): bool</text><text x="550.137" y="-1210.3" fill="#000" font-family="Times,serif" font-size="14" text-anchor="start">transferFrom(sender: address, recipient: address, amount: uint256): bool</text><text x="550.137" y="-1193.5" fill="#000" font-family="Times,serif" font-size="14" text-anchor="start">Public:</text><text x="550.137" y="-1176.7" fill="#000" font-family="Times,serif" font-size="14" text-anchor="start">&lt;&lt;event&gt;&gt; Transfer(from: address, to: address, value: uint256)</text><text x="550.137" y="-1159.9" fill="#000" font-family="Times,serif" font-size="14" text-anchor="start">&lt;&lt;event&gt;&gt; Approval(owner: address, spender: address, value: uint256)</text></g><g id="node4" class="node"><title>3</title><polygon fill="#f2f2f2" stroke="#000" points="651.06 -973.1 651.06 -1114.7 779.814 -1114.7 779.814 -973.1 651.06 -973.1"/><text x="715.437" y="-1098.1" fill="#000" font-family="Times,serif" font-size="14" text-anchor="middle">&lt;&lt;Interface&gt;&gt;</text><text x="715.437" y="-1081.3" fill="#000" font-family="Times,serif" font-size="14" text-anchor="middle">IERC20Metadata</text><polyline fill="none" stroke="#000" points="651.06 -1073.1 779.814 -1073.1"/><polyline fill="none" stroke="#000" points="651.06 -1048.3 779.814 -1048.3"/><text x="659.06" y="-1031.7" fill="#000" font-family="Times,serif" font-size="14" text-anchor="start">External:</text><text x="659.06" y="-1014.9" fill="#000" font-family="Times,serif" font-size="14" text-anchor="start">name(): string</text><text x="659.06" y="-998.1" fill="#000" font-family="Times,serif" font-size="14" text-anchor="start">symbol(): string</text><text x="659.06" y="-981.3" fill="#000" font-family="Times,serif" font-size="14" text-anchor="start">decimals(): uint8</text></g><g id="edge2" class="edge"><title>3-&gt;2</title><path fill="none" stroke="#000" stroke-dasharray="5 2" d="M729.6767,-1114.7888C730.1353,-1117.0721 730.5995,-1119.3827 731.0682,-1121.716"/><polygon fill="none" stroke="#000" points="720.828 -1124.055 737.031 -1151.399 741.417 -1119.919 720.828 -1124.055"/></g><g id="node5" class="node"><title>4</title><polygon fill="#f2f2f2" stroke="#000" points="540.887 -475.3 540.887 -936.1 975.987 -936.1 975.987 -475.3 540.887 -475.3"/><text x="758.437" y="-919.5" fill="#000" font-family="Times,serif" font-size="14" text-anchor="middle">ERC20</text><polyline fill="none" stroke="#000" points="540.887 -911.3 975.987 -911.3"/><text x="548.887" y="-894.7" fill="#000" font-family="Times,serif" font-size="14" text-anchor="start">Private:</text><text x="548.887" y="-877.9" fill="#000" font-family="Times,serif" font-size="14" text-anchor="start">_balances: mapping(address=&gt;uint256)</text><text x="548.887" y="-861.1" fill="#000" font-family="Times,serif" font-size="14" text-anchor="start">_allowances: mapping(address=&gt;mapping(address=&gt;uint256))</text><text x="548.887" y="-844.3" fill="#000" font-family="Times,serif" font-size="14" text-anchor="start">_totalSupply: uint256</text><text x="548.887" y="-827.5" fill="#000" font-family="Times,serif" font-size="14" text-anchor="start">_name: string</text><text x="548.887" y="-810.7" fill="#000" font-family="Times,serif" font-size="14" text-anchor="start">_symbol: string</text><polyline fill="none" stroke="#000" points="540.887 -802.5 975.987 -802.5"/><text x="548.887" y="-785.9" fill="#000" font-family="Times,serif" font-size="14" text-anchor="start">Internal:</text><text x="548.887" y="-769.1" fill="#000" font-family="Times,serif" font-size="14" text-anchor="start">_transfer(sender: address, recipient: address, amount: uint256)</text><text x="548.887" y="-752.3" fill="#000" font-family="Times,serif" font-size="14" text-anchor="start">_mint(account: address, amount: uint256)</text><text x="548.887" y="-735.5" fill="#000" font-family="Times,serif" font-size="14" text-anchor="start">_burn(account: address, amount: uint256)</text><text x="548.887" y="-718.7" fill="#000" font-family="Times,serif" font-size="14" text-anchor="start">_approve(owner: address, spender: address, amount: uint256)</text><text x="548.887" y="-701.9" fill="#000" font-family="Times,serif" font-size="14" text-anchor="start">_beforeTokenTransfer(from: address, to: address, amount: uint256)</text><text x="548.887" y="-685.1" fill="#000" font-family="Times,serif" font-size="14" text-anchor="start">Public:</text><text x="548.887" y="-668.3" fill="#000" font-family="Times,serif" font-size="14" text-anchor="start">constructor(name_: string, symbol_: string)</text><text x="548.887" y="-651.5" fill="#000" font-family="Times,serif" font-size="14" text-anchor="start">name(): string</text><text x="548.887" y="-634.7" fill="#000" font-family="Times,serif" font-size="14" text-anchor="start">symbol(): string</text><text x="548.887" y="-617.9" fill="#000" font-family="Times,serif" font-size="14" text-anchor="start">decimals(): uint8</text><text x="548.887" y="-601.1" fill="#000" font-family="Times,serif" font-size="14" text-anchor="start">totalSupply(): uint256</text><text x="548.887" y="-584.3" fill="#000" font-family="Times,serif" font-size="14" text-anchor="start">balanceOf(account: address): uint256</text><text x="548.887" y="-567.5" fill="#000" font-family="Times,serif" font-size="14" text-anchor="start">transfer(recipient: address, amount: uint256): bool</text><text x="548.887" y="-550.7" fill="#000" font-family="Times,serif" font-size="14" text-anchor="start">allowance(owner: address, spender: address): uint256</text><text x="548.887" y="-533.9" fill="#000" font-family="Times,serif" font-size="14" text-anchor="start">approve(spender: address, amount: uint256): bool</text><text x="548.887" y="-517.1" fill="#000" font-family="Times,serif" font-size="14" text-anchor="start">transferFrom(sender: address, recipient: address, amount: uint256): bool</text><text x="548.887" y="-500.3" fill="#000" font-family="Times,serif" font-size="14" text-anchor="start">increaseAllowance(spender: address, addedValue: uint256): bool</text><text x="548.887" y="-483.5" fill="#000" font-family="Times,serif" font-size="14" text-anchor="start">decreaseAllowance(spender: address, subtractedValue: uint256): bool</text></g><g id="edge3" class="edge"><title>4-&gt;0</title><path fill="none" stroke="#000" d="M590.6109,-936.4267C585.4932,-943.4625 580.4955,-950.3334 575.6605,-956.9805"/><polygon fill="none" stroke="#000" points="567.066 -950.947 557.91 -981.384 584.048 -963.299 567.066 -950.947"/></g><g id="edge4" class="edge"><title>4-&gt;2</title><path fill="none" stroke="#000" stroke-dasharray="5 2" d="M788.0905,-936.1559C792.0996,-994.5866 793.3643,-1057.2232 788.437,-1115.2 788.2652,-1117.2217 788.0812,-1119.2565 787.8858,-1121.3018"/><polygon fill="none" stroke="#000" points="777.429 -1120.322 784.366 -1151.34 798.286 -1122.766 777.429 -1120.322"/></g><g id="edge5" class="edge"><title>4-&gt;3</title><path fill="none" stroke="#000" stroke-dasharray="5 2" d="M729.1016,-936.4267C728.8214,-938.63 728.5434,-940.817 728.2676,-942.9861"/><polygon fill="none" stroke="#000" points="717.834 -941.8 724.466 -972.885 738.666 -944.449 717.834 -941.8"/></g><g id="node6" class="node"><title>5</title><polygon fill="#f2f2f2" stroke="#000" points="889.405 -229.5 889.405 -404.7 1153.469 -404.7 1153.469 -229.5 889.405 -229.5"/><text x="1021.437" y="-388.1" fill="#000" font-family="Times,serif" font-size="14" text-anchor="middle">&lt;&lt;Abstract&gt;&gt;</text><text x="1021.437" y="-371.3" fill="#000" font-family="Times,serif" font-size="14" text-anchor="middle">ERC20Capped</text><polyline fill="none" stroke="#000" points="889.405 -363.1 1153.469 -363.1"/><text x="897.405" y="-346.5" fill="#000" font-family="Times,serif" font-size="14" text-anchor="start">Private:</text><text x="897.405" y="-329.7" fill="#000" font-family="Times,serif" font-size="14" text-anchor="start">_cap: uint256</text><polyline fill="none" stroke="#000" points="889.405 -321.5 1153.469 -321.5"/><text x="897.405" y="-304.9" fill="#000" font-family="Times,serif" font-size="14" text-anchor="start">Internal:</text><text x="897.405" y="-288.1" fill="#000" font-family="Times,serif" font-size="14" text-anchor="start">_mint(account: address, amount: uint256)</text><text x="897.405" y="-271.3" fill="#000" font-family="Times,serif" font-size="14" text-anchor="start">Public:</text><text x="897.405" y="-254.5" fill="#000" font-family="Times,serif" font-size="14" text-anchor="start">constructor(cap_: uint256)</text><text x="897.405" y="-237.7" fill="#000" font-family="Times,serif" font-size="14" text-anchor="start">cap(): uint256</text></g><g id="edge6" class="edge"><title>5-&gt;4</title><path fill="none" stroke="#000" d="M962.0867,-404.794C952.4853,-418.9807 942.1406,-434.2657 931.3837,-450.1597"/><polygon fill="none" stroke="#000" points="922.608 -444.394 914.489 -475.123 939.999 -456.164 922.608 -444.394"/></g><g id="node7" class="node"><title>6</title><polygon fill="#f2f2f2" stroke="#000" points="270.743 -254.7 270.743 -379.5 558.131 -379.5 558.131 -254.7 270.743 -254.7"/><text x="414.437" y="-362.9" fill="#000" font-family="Times,serif" font-size="14" text-anchor="middle">&lt;&lt;Abstract&gt;&gt;</text><text x="414.437" y="-346.1" fill="#000" font-family="Times,serif" font-size="14" text-anchor="middle">ERC20Burnable</text><polyline fill="none" stroke="#000" points="270.743 -337.9 558.131 -337.9"/><polyline fill="none" stroke="#000" points="270.743 -313.1 558.131 -313.1"/><text x="278.743" y="-296.5" fill="#000" font-family="Times,serif" font-size="14" text-anchor="start">Public:</text><text x="278.743" y="-279.7" fill="#000" font-family="Times,serif" font-size="14" text-anchor="start">burn(amount: uint256)</text><text x="278.743" y="-262.9" fill="#000" font-family="Times,serif" font-size="14" text-anchor="start">burnFrom(account: address, amount: uint256)</text></g><g id="edge7" class="edge"><title>6-&gt;0</title><path fill="none" stroke="#000" d="M453.7015,-379.8604C469.1,-407.8339 485.0642,-441.8573 493.437,-474.8 535.0163,-638.3944 529.5828,-836.9319 521.3527,-951.0226"/><polygon fill="none" stroke="#000" points="510.864 -950.469 518.965 -981.204 531.798 -952.126 510.864 -950.469"/></g><g id="edge8" class="edge"><title>6-&gt;4</title><path fill="none" stroke="#000" d="M469.7066,-379.5353C488.4021,-400.6548 510.5816,-425.7098 534.2141,-452.4064"/><polygon fill="none" stroke="#000" points="526.616 -459.664 554.363 -475.167 542.34 -445.744 526.616 -459.664"/></g><g id="node8" class="node"><title>7</title><polygon fill="#f2f2f2" stroke="#000" points="1171.822 -246.3 1171.822 -387.9 1367.052 -387.9 1367.052 -246.3 1171.822 -246.3"/><text x="1269.437" y="-371.3" fill="#000" font-family="Times,serif" font-size="14" text-anchor="middle">&lt;&lt;Abstract&gt;&gt;</text><text x="1269.437" y="-354.5" fill="#000" font-family="Times,serif" font-size="14" text-anchor="middle">ERC20Decimals</text><polyline fill="none" stroke="#000" points="1171.822 -346.3 1367.052 -346.3"/><text x="1179.822" y="-329.7" fill="#000" font-family="Times,serif" font-size="14" text-anchor="start">Private:</text><text x="1179.822" y="-312.9" fill="#000" font-family="Times,serif" font-size="14" text-anchor="start">_decimals: uint8</text><polyline fill="none" stroke="#000" points="1171.822 -304.7 1367.052 -304.7"/><text x="1179.822" y="-288.1" fill="#000" font-family="Times,serif" font-size="14" text-anchor="start">Public:</text><text x="1179.822" y="-271.3" fill="#000" font-family="Times,serif" font-size="14" text-anchor="start">constructor(decimals_: uint8)</text><text x="1179.822" y="-254.5" fill="#000" font-family="Times,serif" font-size="14" text-anchor="start">decimals(): uint8</text></g><g id="edge9" class="edge"><title>7-&gt;4</title><path fill="none" stroke="#000" d="M1212.7265,-388.0192C1197.27,-405.4943 1179.9369,-423.5532 1162.437,-438.8 1113.0386,-481.8385 1056.2726,-523.4096 1001.2038,-560.4175"/><polygon fill="none" stroke="#000" points="995.258 -551.762 976.054 -577.089 1006.86 -569.265 995.258 -551.762"/></g><g id="node9" class="node"><title>8</title><polygon fill="#f2f2f2" stroke="#000" points="575.905 -195.9 575.905 -438.3 832.969 -438.3 832.969 -195.9 575.905 -195.9"/><text x="704.437" y="-421.7" fill="#000" font-family="Times,serif" font-size="14" text-anchor="middle">&lt;&lt;Abstract&gt;&gt;</text><text x="704.437" y="-404.9" fill="#000" font-family="Times,serif" font-size="14" text-anchor="middle">ERC20Mintable</text><polyline fill="none" stroke="#000" points="575.905 -396.7 832.969 -396.7"/><text x="583.905" y="-380.1" fill="#000" font-family="Times,serif" font-size="14" text-anchor="start">Private:</text><text x="583.905" y="-363.3" fill="#000" font-family="Times,serif" font-size="14" text-anchor="start">_mintingFinished: bool</text><polyline fill="none" stroke="#000" points="575.905 -355.1 832.969 -355.1"/><text x="583.905" y="-338.5" fill="#000" font-family="Times,serif" font-size="14" text-anchor="start">Internal:</text><text x="583.905" y="-321.7" fill="#000" font-family="Times,serif" font-size="14" text-anchor="start">_finishMinting()</text><text x="583.905" y="-304.9" fill="#000" font-family="Times,serif" font-size="14" text-anchor="start">External:</text><text x="583.905" y="-288.1" fill="#000" font-family="Times,serif" font-size="14" text-anchor="start">mintingFinished(): bool</text><text x="583.905" y="-271.3" fill="#000" font-family="Times,serif" font-size="14" text-anchor="start">mint(account: address, amount: uint256)</text><text x="583.905" y="-254.5" fill="#000" font-family="Times,serif" font-size="14" text-anchor="start">finishMinting()</text><text x="583.905" y="-237.7" fill="#000" font-family="Times,serif" font-size="14" text-anchor="start">Public:</text><text x="583.905" y="-220.9" fill="#000" font-family="Times,serif" font-size="14" text-anchor="start">&lt;&lt;event&gt;&gt; MintFinished()</text><text x="583.905" y="-204.1" fill="#000" font-family="Times,serif" font-size="14" text-anchor="start">&lt;&lt;modifier&gt;&gt; canMint()</text></g><g id="edge10" class="edge"><title>8-&gt;4</title><path fill="none" stroke="#000" d="M721.3008,-438.457C721.6242,-440.784 721.9498,-443.1273 722.2775,-445.4853"/><polygon fill="none" stroke="#000" points="711.886 -446.995 726.415 -475.264 732.686 -444.104 711.886 -446.995"/></g><g id="node10" class="node"><title>9</title><polygon fill="#f2f2f2" stroke="#000" points="1243.748 -25.7 1243.748 -133.7 1419.126 -133.7 1419.126 -25.7 1243.748 -25.7"/><text x="1331.437" y="-117.1" fill="#000" font-family="Times,serif" font-size="14" text-anchor="middle">&lt;&lt;Interface&gt;&gt;</text><text x="1331.437" y="-100.3" fill="#000" font-family="Times,serif" font-size="14" text-anchor="middle">IPayable</text><polyline fill="none" stroke="#000" points="1243.748 -92.1 1419.126 -92.1"/><polyline fill="none" stroke="#000" points="1243.748 -67.3 1419.126 -67.3"/><text x="1251.748" y="-50.7" fill="#000" font-family="Times,serif" font-size="14" text-anchor="start">External:</text><text x="1251.748" y="-33.9" fill="#000" font-family="Times,serif" font-size="14" text-anchor="start">pay(serviceName: string)</text></g><g id="node11" class="node"><title>10</title><polygon fill="#f2f2f2" stroke="#000" points="1385.397 -263.1 1385.397 -371.1 1701.477 -371.1 1701.477 -263.1 1385.397 -263.1"/><text x="1543.437" y="-354.5" fill="#000" font-family="Times,serif" font-size="14" text-anchor="middle">&lt;&lt;Abstract&gt;&gt;</text><text x="1543.437" y="-337.7" fill="#000" font-family="Times,serif" font-size="14" text-anchor="middle">ServicePayer</text><polyline fill="none" stroke="#000" points="1385.397 -329.5 1701.477 -329.5"/><polyline fill="none" stroke="#000" points="1385.397 -304.7 1701.477 -304.7"/><text x="1393.397" y="-288.1" fill="#000" font-family="Times,serif" font-size="14" text-anchor="start">Public:</text><text x="1393.397" y="-271.3" fill="#000" font-family="Times,serif" font-size="14" text-anchor="start">constructor(receiver: address, serviceName: string)</text></g><g id="node12" class="node"><title>11</title><polygon fill="#f2f2f2" stroke="#000" points="496.907 -.5 496.907 -158.9 1225.967 -158.9 1225.967 -.5 496.907 -.5"/><text x="861.437" y="-142.3" fill="#000" font-family="Times,serif" font-size="14" text-anchor="middle">CommonERC20</text><polyline fill="none" stroke="#000" points="496.907 -134.1 1225.967 -134.1"/><polyline fill="none" stroke="#000" points="496.907 -109.3 1225.967 -109.3"/><text x="504.907" y="-92.7" fill="#000" font-family="Times,serif" font-size="14" text-anchor="start">Internal:</text><text x="504.907" y="-75.9" fill="#000" font-family="Times,serif" font-size="14" text-anchor="start">_mint(account: address, amount: uint256)</text><text x="504.907" y="-59.1" fill="#000" font-family="Times,serif" font-size="14" text-anchor="start">_finishMinting()</text><text x="504.907" y="-42.3" fill="#000" font-family="Times,serif" font-size="14" text-anchor="start">Public:</text><text x="504.907" y="-25.5" fill="#000" font-family="Times,serif" font-size="14" text-anchor="start">constructor(name_: string, symbol_: string, decimals_: uint8, cap_: uint256, initialBalance_: uint256, feeReceiver_: address)</text><text x="504.907" y="-8.7" fill="#000" font-family="Times,serif" font-size="14" text-anchor="start">decimals(): uint8</text></g><g id="edge15" class="edge"><title>11-&gt;1</title><path fill="none" stroke="#000" d="M496.5644,-112.4185C391.1289,-129.7323 295.2716,-155.9368 261.437,-195.4 173.8628,-297.5426 183.4429,-457.9189 205.764,-571.5878"/><polygon fill="none" stroke="#000" points="195.558 -574.075 212.076 -601.23 216.098 -569.701 195.558 -574.075"/></g><g id="edge17" class="edge"><title>11-&gt;4</title><path fill="none" stroke="#000" stroke-dasharray="5 2" d="M862.9388,-159.1702C862.9777,-232.3789 859.6274,-343.7298 842.437,-438.8 840.867,-447.4828 839.0969,-456.2772 837.163,-465.1236"/><polygon fill="#000" stroke="#000" points="833.692 -464.606 834.912 -475.13 840.521 -466.142 833.692 -464.606"/></g><g id="edge12" class="edge"><title>11-&gt;5</title><path fill="none" stroke="#000" d="M914.9371,-159.0808C924.7155,-173.5895 935.0893,-188.9817 945.3761,-204.2447"/><polygon fill="none" stroke="#000" points="936.729 -210.201 962.202 -229.21 954.143 -198.465 936.729 -210.201"/></g><g id="edge14" class="edge"><title>11-&gt;6</title><path fill="none" stroke="#000" d="M637.7588,-159.0662C613.1812,-170.231 588.9372,-182.3838 566.437,-195.4 546.2836,-207.0586 525.9724,-221.2526 507.047,-235.7741"/><polygon fill="none" stroke="#000" points="500.438 -227.615 483.516 -254.52 513.523 -244.04 500.438 -227.615"/></g><g id="edge11" class="edge"><title>11-&gt;7</title><path fill="none" stroke="#000" d="M1100.3383,-158.9103C1122.0747,-169.8209 1143.1411,-181.9631 1162.437,-195.4 1174.2945,-203.6571 1185.7009,-213.4994 1196.36,-223.9586"/><polygon fill="none" stroke="#000" points="1188.886 -231.337 1217.095 -245.983 1204.176 -216.943 1188.886 -231.337"/></g><g id="edge13" class="edge"><title>11-&gt;8</title><path fill="none" stroke="#000" d="M808.94,-159.0808C806.4273,-162.8803 803.8745,-166.7404 801.2937,-170.6428"/><polygon fill="none" stroke="#000" points="792.391 -165.069 784.601 -195.884 809.907 -176.653 792.391 -165.069"/></g><g id="edge16" class="edge"><title>11-&gt;10</title><path fill="none" stroke="#000" d="M1226.2202,-158.942C1304.7931,-176.5655 1367.3464,-191.2816 1376.437,-195.4 1404.5968,-208.1573 1432.7214,-226.1159 1457.6436,-244.3286"/><polygon fill="none" stroke="#000" points="1451.635 -252.952 1481.85 -262.816 1464.381 -236.262 1451.635 -252.952"/></g></g></svg>