<svg xmlns="http://www.w3.org/2000/svg" xmlns:xlink="http://www.w3.org/1999/xlink" width="1435pt" height="1403pt" viewBox="0 0 1435.48 1402.6"><g id="graph0" class="graph" transform="scale(1 1) rotate(0) translate(4 1398.6)"><title>UmlClassDiagram</title><polygon fill="#fff" stroke="transparent" points="-4 4 -4 -1398.6 1431.477 -1398.6 1431.477 4 -4 4"/><g id="node1" class="node"><title>0</title><polygon fill="#f2f2f2" stroke="#000" points="349.488 -981.5 349.488 -1106.3 507.386 -1106.3 507.386 -981.5 349.488 -981.5"/><text x="428.437" y="-1089.7" fill="#000" font-family="Times,serif" font-size="14" text-anchor="middle">&lt;&lt;Abstract&gt;&gt;</text><text x="428.437" y="-1072.9" fill="#000" font-family="Times,serif" font-size="14" text-anchor="middle">Context</text><polyline fill="none" stroke="#000" points="349.488 -1064.7 507.386 -1064.7"/><polyline fill="none" stroke="#000" points="349.488 -1039.9 507.386 -1039.9"/><text x="357.488" y="-1023.3" fill="#000" font-family="Times,serif" font-size="14" text-anchor="start">Internal:</text><text x="357.488" y="-1006.5" fill="#000" font-family="Times,serif" font-size="14" text-anchor="start">_msgSender(): address</text><text x="357.488" y="-989.7" fill="#000" font-family="Times,serif" font-size="14" text-anchor="start">_msgData(): bytes</text></g><g id="node2" class="node"><title>1</title><polygon fill="#f2f2f2" stroke="#000" points="0 -601.3 0 -810.1 484.874 -810.1 484.874 -601.3 0 -601.3"/><text x="242.437" y="-793.5" fill="#000" font-family="Times,serif" font-size="14" text-anchor="middle">&lt;&lt;Abstract&gt;&gt;</text><text x="242.437" y="-776.7" fill="#000" font-family="Times,serif" font-size="14" text-anchor="middle">Ownable</text><polyline fill="none" stroke="#000" points="0 -768.5 484.874 -768.5"/><text x="8" y="-751.9" fill="#000" font-family="Times,serif" font-size="14" text-anchor="start">Private:</text><text x="8" y="-735.1" fill="#000" font-family="Times,serif" font-size="14" text-anchor="start">_owner: address</text><polyline fill="none" stroke="#000" points="0 -726.9 484.874 -726.9"/><text x="8" y="-710.3" fill="#000" font-family="Times,serif" font-size="14" text-anchor="start">Public:</text><text x="8" y="-693.5" fill="#000" font-family="Times,serif" font-size="14" text-anchor="start">&lt;&lt;event&gt;&gt; OwnershipTransferred(previousOwner: address, newOwner: address)</text><text x="8" y="-676.7" fill="#000" font-family="Times,serif" font-size="14" text-anchor="start">&lt;&lt;modifier&gt;&gt; onlyOwner()</text><text x="8" y="-659.9" fill="#000" font-family="Times,serif" font-size="14" text-anchor="start">constructor()</text><text x="8" y="-643.1" fill="#000" font-family="Times,serif" font-size="14" text-anchor="start">owner(): address</text><text x="8" y="-626.3" fill="#000" font-family="Times,serif" font-size="14" text-anchor="start">renounceOwnership()</text><text x="8" y="-609.5" fill="#000" font-family="Times,serif" font-size="14" text-anchor="start">transferOwnership(newOwner: address)</text></g><g id="edge1" class="edge"><title>1-&gt;0</title><path fill="none" stroke="#000" d="M300.0148,-810.3925C325.4008,-856.5514 354.9268,-910.2379 379.2624,-954.4868"/><polygon fill="none" stroke="#000" points="370.19 -959.779 393.847 -981.006 388.59 -949.659 370.19 -959.779"/></g><g id="node3" class="node"><title>2</title><polygon fill="#f2f2f2" stroke="#000" points="501.137 -1151.7 501.137 -1394.1 939.737 -1394.1 939.737 -1151.7 501.137 -1151.7"/><text x="720.437" y="-1377.5" fill="#000" font-family="Times,serif" font-size="14" text-anchor="middle">&lt;&lt;Interface&gt;&gt;</text><text x="720.437" y="-1360.7" fill="#000" font-family="Times,serif" font-size="14" text-anchor="middle">IERC20</text><polyline fill="none" stroke="#000" points="501.137 -1352.5 939.737 -1352.5"/><polyline fill="none" stroke="#000" points="501.137 -1327.7 939.737 -1327.7"/><text x="509.137" y="-1311.1" fill="#000" font-family="Times,serif" font-size="14" text-anchor="start">External:</text><text x="509.137" y="-1294.3" fill="#000" font-family="Times,serif" font-size="14" text-anchor="start">totalSupply(): uint256</text><text x="509.137" y="-1277.5" fill="#000" font-family="Times,serif" font-size="14" text-anchor="start">balanceOf(account: address): uint256</text><text x="509.137" y="-1260.7" fill="#000" font-family="Times,serif" font-size="14" text-anchor="start">transfer(recipient: address, amount: uint256): bool</text><text x="509.137" y="-1243.9" fill="#000" font-family="Times,serif" font-size="14" text-anchor="start">allowance(owner: address, spender: address): uint256</text><text x="509.137" y="-1227.1" fill="#000" font-family="Times,serif" font-size="14" text-anchor="start">approve(spender: address, amount: uint256): bool</text><text x="509.137" y="-1210.3" fill="#000" font-family="Times,serif" font-size="14" text-anchor="start">transferFrom(sender: address, recipient: address, amount: uint256): bool</text><text x="509.137" y="-1193.5" fill="#000" font-family="Times,serif" font-size="14" text-anchor="start">Public:</text><text x="509.137" y="-1176.7" fill="#000" font-family="Times,serif" font-size="14" text-anchor="start">&lt;&lt;event&gt;&gt; Transfer(from: address, to: address, value: uint256)</text><text x="509.137" y="-1159.9" fill="#000" font-family="Times,serif" font-size="14" text-anchor="start">&lt;&lt;event&gt;&gt; Approval(owner: address, spender: address, value: uint256)</text></g><g id="node4" class="node"><title>3</title><polygon fill="#f2f2f2" stroke="#000" points="702.06 -973.1 702.06 -1114.7 830.814 -1114.7 830.814 -973.1 702.06 -973.1"/><text x="766.437" y="-1098.1" fill="#000" font-family="Times,serif" font-size="14" text-anchor="middle">&lt;&lt;Interface&gt;&gt;</text><text x="766.437" y="-1081.3" fill="#000" font-family="Times,serif" font-size="14" text-anchor="middle">IERC20Metadata</text><polyline fill="none" stroke="#000" points="702.06 -1073.1 830.814 -1073.1"/><polyline fill="none" stroke="#000" points="702.06 -1048.3 830.814 -1048.3"/><text x="710.06" y="-1031.7" fill="#000" font-family="Times,serif" font-size="14" text-anchor="start">External:</text><text x="710.06" y="-1014.9" fill="#000" font-family="Times,serif" font-size="14" text-anchor="start">name(): string</text><text x="710.06" y="-998.1" fill="#000" font-family="Times,serif" font-size="14" text-anchor="start">symbol(): string</text><text x="710.06" y="-981.3" fill="#000" font-family="Times,serif" font-size="14" text-anchor="start">decimals(): uint8</text></g><g id="edge2" class="edge"><title>3-&gt;2</title><path fill="none" stroke="#000" stroke-dasharray="5 2" d="M752.1973,-1114.7888C751.7387,-1117.0721 751.2745,-1119.3827 750.8058,-1121.716"/><polygon fill="none" stroke="#000" points="740.457 -1119.919 744.843 -1151.399 761.046 -1124.055 740.457 -1119.919"/></g><g id="node5" class="node"><title>4</title><polygon fill="#f2f2f2" stroke="#000" points="502.887 -475.3 502.887 -936.1 937.987 -936.1 937.987 -475.3 502.887 -475.3"/><text x="720.437" y="-919.5" fill="#000" font-family="Times,serif" font-size="14" text-anchor="middle">ERC20</text><polyline fill="none" stroke="#000" points="502.887 -911.3 937.987 -911.3"/><text x="510.887" y="-894.7" fill="#000" font-family="Times,serif" font-size="14" text-anchor="start">Private:</text><text x="510.887" y="-877.9" fill="#000" font-family="Times,serif" font-size="14" text-anchor="start">_balances: mapping(address=&gt;uint256)</text><text x="510.887" y="-861.1" fill="#000" font-family="Times,serif" font-size="14" text-anchor="start">_allowances: mapping(address=&gt;mapping(address=&gt;uint256))</text><text x="510.887" y="-844.3" fill="#000" font-family="Times,serif" font-size="14" text-anchor="start">_totalSupply: uint256</text><text x="510.887" y="-827.5" fill="#000" font-family="Times,serif" font-size="14" text-anchor="start">_name: string</text><text x="510.887" y="-810.7" fill="#000" font-family="Times,serif" font-size="14" text-anchor="start">_symbol: string</text><polyline fill="none" stroke="#000" points="502.887 -802.5 937.987 -802.5"/><text x="510.887" y="-785.9" fill="#000" font-family="Times,serif" font-size="14" text-anchor="start">Internal:</text><text x="510.887" y="-769.1" fill="#000" font-family="Times,serif" font-size="14" text-anchor="start">_transfer(sender: address, recipient: address, amount: uint256)</text><text x="510.887" y="-752.3" fill="#000" font-family="Times,serif" font-size="14" text-anchor="start">_mint(account: address, amount: uint256)</text><text x="510.887" y="-735.5" fill="#000" font-family="Times,serif" font-size="14" text-anchor="start">_burn(account: address, amount: uint256)</text><text x="510.887" y="-718.7" fill="#000" font-family="Times,serif" font-size="14" text-anchor="start">_approve(owner: address, spender: address, amount: uint256)</text><text x="510.887" y="-701.9" fill="#000" font-family="Times,serif" font-size="14" text-anchor="start">_beforeTokenTransfer(from: address, to: address, amount: uint256)</text><text x="510.887" y="-685.1" fill="#000" font-family="Times,serif" font-size="14" text-anchor="start">Public:</text><text x="510.887" y="-668.3" fill="#000" font-family="Times,serif" font-size="14" text-anchor="start">constructor(name_: string, symbol_: string)</text><text x="510.887" y="-651.5" fill="#000" font-family="Times,serif" font-size="14" text-anchor="start">name(): string</text><text x="510.887" y="-634.7" fill="#000" font-family="Times,serif" font-size="14" text-anchor="start">symbol(): string</text><text x="510.887" y="-617.9" fill="#000" font-family="Times,serif" font-size="14" text-anchor="start">decimals(): uint8</text><text x="510.887" y="-601.1" fill="#000" font-family="Times,serif" font-size="14" text-anchor="start">totalSupply(): uint256</text><text x="510.887" y="-584.3" fill="#000" font-family="Times,serif" font-size="14" text-anchor="start">balanceOf(account: address): uint256</text><text x="510.887" y="-567.5" fill="#000" font-family="Times,serif" font-size="14" text-anchor="start">transfer(recipient: address, amount: uint256): bool</text><text x="510.887" y="-550.7" fill="#000" font-family="Times,serif" font-size="14" text-anchor="start">allowance(owner: address, spender: address): uint256</text><text x="510.887" y="-533.9" fill="#000" font-family="Times,serif" font-size="14" text-anchor="start">approve(spender: address, amount: uint256): bool</text><text x="510.887" y="-517.1" fill="#000" font-family="Times,serif" font-size="14" text-anchor="start">transferFrom(sender: address, recipient: address, amount: uint256): bool</text><text x="510.887" y="-500.3" fill="#000" font-family="Times,serif" font-size="14" text-anchor="start">increaseAllowance(spender: address, addedValue: uint256): bool</text><text x="510.887" y="-483.5" fill="#000" font-family="Times,serif" font-size="14" text-anchor="start">decreaseAllowance(spender: address, subtractedValue: uint256): bool</text></g><g id="edge3" class="edge"><title>4-&gt;0</title><path fill="none" stroke="#000" d="M521.2288,-936.4267C514.7203,-943.9651 508.3751,-951.3141 502.256,-958.4014"/><polygon fill="none" stroke="#000" points="494.071 -951.814 482.413 -981.384 509.966 -965.538 494.071 -951.814"/></g><g id="edge4" class="edge"><title>4-&gt;2</title><path fill="none" stroke="#000" stroke-dasharray="5 2" d="M693.0665,-936.1968C689.4729,-994.6267 688.5122,-1057.2526 693.437,-1115.2 693.6088,-1117.2217 693.7928,-1119.2565 693.9882,-1121.3018"/><polygon fill="none" stroke="#000" points="683.588 -1122.766 697.508 -1151.34 704.445 -1120.322 683.588 -1122.766"/></g><g id="edge5" class="edge"><title>4-&gt;3</title><path fill="none" stroke="#000" stroke-dasharray="5 2" d="M751.8191,-936.4267C752.1188,-938.63 752.4163,-940.817 752.7113,-942.9861"/><polygon fill="none" stroke="#000" points="742.33 -944.573 756.778 -972.885 763.139 -941.743 742.33 -944.573"/></g><g id="node6" class="node"><title>5</title><polygon fill="#f2f2f2" stroke="#000" points="340.405 -229.5 340.405 -404.7 604.469 -404.7 604.469 -229.5 340.405 -229.5"/><text x="472.437" y="-388.1" fill="#000" font-family="Times,serif" font-size="14" text-anchor="middle">&lt;&lt;Abstract&gt;&gt;</text><text x="472.437" y="-371.3" fill="#000" font-family="Times,serif" font-size="14" text-anchor="middle">ERC20Capped</text><polyline fill="none" stroke="#000" points="340.405 -363.1 604.469 -363.1"/><text x="348.405" y="-346.5" fill="#000" font-family="Times,serif" font-size="14" text-anchor="start">Private:</text><text x="348.405" y="-329.7" fill="#000" font-family="Times,serif" font-size="14" text-anchor="start">_cap: uint256</text><polyline fill="none" stroke="#000" points="340.405 -321.5 604.469 -321.5"/><text x="348.405" y="-304.9" fill="#000" font-family="Times,serif" font-size="14" text-anchor="start">Internal:</text><text x="348.405" y="-288.1" fill="#000" font-family="Times,serif" font-size="14" text-anchor="start">_mint(account: address, amount: uint256)</text><text x="348.405" y="-271.3" fill="#000" font-family="Times,serif" font-size="14" text-anchor="start">Public:</text><text x="348.405" y="-254.5" fill="#000" font-family="Times,serif" font-size="14" text-anchor="start">constructor(cap_: uint256)</text><text x="348.405" y="-237.7" fill="#000" font-family="Times,serif" font-size="14" text-anchor="start">cap(): uint256</text></g><g id="edge6" class="edge"><title>5-&gt;4</title><path fill="none" stroke="#000" d="M528.4023,-404.794C537.349,-418.8129 546.98,-433.9041 556.9942,-449.5957"/><polygon fill="none" stroke="#000" points="548.295 -455.483 573.286 -475.123 565.998 -444.186 548.295 -455.483"/></g><g id="node7" class="node"><title>6</title><polygon fill="#f2f2f2" stroke="#000" points="622.822 -246.3 622.822 -387.9 818.052 -387.9 818.052 -246.3 622.822 -246.3"/><text x="720.437" y="-371.3" fill="#000" font-family="Times,serif" font-size="14" text-anchor="middle">&lt;&lt;Abstract&gt;&gt;</text><text x="720.437" y="-354.5" fill="#000" font-family="Times,serif" font-size="14" text-anchor="middle">ERC20Decimals</text><polyline fill="none" stroke="#000" points="622.822 -346.3 818.052 -346.3"/><text x="630.822" y="-329.7" fill="#000" font-family="Times,serif" font-size="14" text-anchor="start">Private:</text><text x="630.822" y="-312.9" fill="#000" font-family="Times,serif" font-size="14" text-anchor="start">_decimals: uint8</text><polyline fill="none" stroke="#000" points="622.822 -304.7 818.052 -304.7"/><text x="630.822" y="-288.1" fill="#000" font-family="Times,serif" font-size="14" text-anchor="start">Public:</text><text x="630.822" y="-271.3" fill="#000" font-family="Times,serif" font-size="14" text-anchor="start">constructor(decimals_: uint8)</text><text x="630.822" y="-254.5" fill="#000" font-family="Times,serif" font-size="14" text-anchor="start">decimals(): uint8</text></g><g id="edge7" class="edge"><title>6-&gt;4</title><path fill="none" stroke="#000" d="M720.437,-387.9234C720.437,-405.0844 720.437,-424.4397 720.437,-444.9151"/><polygon fill="none" stroke="#000" points="709.937 -445.04 720.437 -475.04 730.937 -445.04 709.937 -445.04"/></g><g id="node8" class="node"><title>7</title><polygon fill="#f2f2f2" stroke="#000" points="835.905 -195.9 835.905 -438.3 1092.969 -438.3 1092.969 -195.9 835.905 -195.9"/><text x="964.437" y="-421.7" fill="#000" font-family="Times,serif" font-size="14" text-anchor="middle">&lt;&lt;Abstract&gt;&gt;</text><text x="964.437" y="-404.9" fill="#000" font-family="Times,serif" font-size="14" text-anchor="middle">ERC20Mintable</text><polyline fill="none" stroke="#000" points="835.905 -396.7 1092.969 -396.7"/><text x="843.905" y="-380.1" fill="#000" font-family="Times,serif" font-size="14" text-anchor="start">Private:</text><text x="843.905" y="-363.3" fill="#000" font-family="Times,serif" font-size="14" text-anchor="start">_mintingFinished: bool</text><polyline fill="none" stroke="#000" points="835.905 -355.1 1092.969 -355.1"/><text x="843.905" y="-338.5" fill="#000" font-family="Times,serif" font-size="14" text-anchor="start">Internal:</text><text x="843.905" y="-321.7" fill="#000" font-family="Times,serif" font-size="14" text-anchor="start">_finishMinting()</text><text x="843.905" y="-304.9" fill="#000" font-family="Times,serif" font-size="14" text-anchor="start">External:</text><text x="843.905" y="-288.1" fill="#000" font-family="Times,serif" font-size="14" text-anchor="start">mintingFinished(): bool</text><text x="843.905" y="-271.3" fill="#000" font-family="Times,serif" font-size="14" text-anchor="start">mint(account: address, amount: uint256)</text><text x="843.905" y="-254.5" fill="#000" font-family="Times,serif" font-size="14" text-anchor="start">finishMinting()</text><text x="843.905" y="-237.7" fill="#000" font-family="Times,serif" font-size="14" text-anchor="start">Public:</text><text x="843.905" y="-220.9" fill="#000" font-family="Times,serif" font-size="14" text-anchor="start">&lt;&lt;event&gt;&gt; MintFinished()</text><text x="843.905" y="-204.1" fill="#000" font-family="Times,serif" font-size="14" text-anchor="start">&lt;&lt;modifier&gt;&gt; canMint()</text></g><g id="edge8" class="edge"><title>7-&gt;4</title><path fill="none" stroke="#000" d="M888.2375,-438.457C885.8998,-442.1802 883.5358,-445.9452 881.1497,-449.7452"/><polygon fill="none" stroke="#000" points="872.187 -444.274 865.126 -475.264 889.972 -455.441 872.187 -444.274"/></g><g id="node9" class="node"><title>8</title><polygon fill="#f2f2f2" stroke="#000" points="1102.748 -25.7 1102.748 -133.7 1278.126 -133.7 1278.126 -25.7 1102.748 -25.7"/><text x="1190.437" y="-117.1" fill="#000" font-family="Times,serif" font-size="14" text-anchor="middle">&lt;&lt;Interface&gt;&gt;</text><text x="1190.437" y="-100.3" fill="#000" font-family="Times,serif" font-size="14" text-anchor="middle">IPayable</text><polyline fill="none" stroke="#000" points="1102.748 -92.1 1278.126 -92.1"/><polyline fill="none" stroke="#000" points="1102.748 -67.3 1278.126 -67.3"/><text x="1110.748" y="-50.7" fill="#000" font-family="Times,serif" font-size="14" text-anchor="start">External:</text><text x="1110.748" y="-33.9" fill="#000" font-family="Times,serif" font-size="14" text-anchor="start">pay(serviceName: string)</text></g><g id="node10" class="node"><title>9</title><polygon fill="#f2f2f2" stroke="#000" points="1111.397 -263.1 1111.397 -371.1 1427.477 -371.1 1427.477 -263.1 1111.397 -263.1"/><text x="1269.437" y="-354.5" fill="#000" font-family="Times,serif" font-size="14" text-anchor="middle">&lt;&lt;Abstract&gt;&gt;</text><text x="1269.437" y="-337.7" fill="#000" font-family="Times,serif" font-size="14" text-anchor="middle">ServicePayer</text><polyline fill="none" stroke="#000" points="1111.397 -329.5 1427.477 -329.5"/><polyline fill="none" stroke="#000" points="1111.397 -304.7 1427.477 -304.7"/><text x="1119.397" y="-288.1" fill="#000" font-family="Times,serif" font-size="14" text-anchor="start">Public:</text><text x="1119.397" y="-271.3" fill="#000" font-family="Times,serif" font-size="14" text-anchor="start">constructor(receiver: address, serviceName: string)</text></g><g id="node11" class="node"><title>10</title><polygon fill="#f2f2f2" stroke="#000" points="355.907 -.5 355.907 -158.9 1084.967 -158.9 1084.967 -.5 355.907 -.5"/><text x="720.437" y="-142.3" fill="#000" font-family="Times,serif" font-size="14" text-anchor="middle">MintableERC20</text><polyline fill="none" stroke="#000" points="355.907 -134.1 1084.967 -134.1"/><polyline fill="none" stroke="#000" points="355.907 -109.3 1084.967 -109.3"/><text x="363.907" y="-92.7" fill="#000" font-family="Times,serif" font-size="14" text-anchor="start">Internal:</text><text x="363.907" y="-75.9" fill="#000" font-family="Times,serif" font-size="14" text-anchor="start">_mint(account: address, amount: uint256)</text><text x="363.907" y="-59.1" fill="#000" font-family="Times,serif" font-size="14" text-anchor="start">_finishMinting()</text><text x="363.907" y="-42.3" fill="#000" font-family="Times,serif" font-size="14" text-anchor="start">Public:</text><text x="363.907" y="-25.5" fill="#000" font-family="Times,serif" font-size="14" text-anchor="start">constructor(name_: string, symbol_: string, decimals_: uint8, cap_: uint256, initialBalance_: uint256, feeReceiver_: address)</text><text x="363.907" y="-8.7" fill="#000" font-family="Times,serif" font-size="14" text-anchor="start">decimals(): uint8</text></g><g id="edge12" class="edge"><title>10-&gt;1</title><path fill="none" stroke="#000" d="M355.6581,-150.9836C320.1972,-163.9695 292.2392,-178.7653 278.437,-195.4 192.6569,-298.7842 195.6751,-458.1461 212.505,-571.2456"/><polygon fill="none" stroke="#000" points="202.188 -573.214 217.425 -601.109 222.908 -569.801 202.188 -573.214"/></g><g id="edge14" class="edge"><title>10-&gt;4</title><path fill="none" stroke="#000" stroke-dasharray="5 2" d="M384.9556,-158.9522C360.3017,-170.0904 341.2312,-182.2687 331.437,-195.4 266.76,-282.114 263.7472,-354.4168 331.437,-438.8 377.5884,-496.333 428.9335,-439.0328 493.437,-474.8 493.533,-474.8532 493.629,-474.9065 493.725,-474.9599"/><polygon fill="#000" stroke="#000" points="492.196 -478.118 502.61 -480.071 495.687 -472.051 492.196 -478.118"/></g><g id="edge10" class="edge"><title>10-&gt;5</title><path fill="none" stroke="#000" d="M637.5118,-159.0808C620.9775,-174.9084 603.3447,-191.7875 585.987,-208.4033"/><polygon fill="none" stroke="#000" points="578.662 -200.88 564.251 -229.21 593.183 -216.05 578.662 -200.88"/></g><g id="edge9" class="edge"><title>10-&gt;6</title><path fill="none" stroke="#000" d="M720.437,-159.0808C720.437,-177.3484 720.437,-197.0166 720.437,-216.0641"/><polygon fill="none" stroke="#000" points="709.937 -216.175 720.437 -246.175 730.937 -216.176 709.937 -216.175"/></g><g id="edge11" class="edge"><title>10-&gt;7</title><path fill="none" stroke="#000" d="M802.0247,-159.0808C807.3585,-164.2703 812.8085,-169.5729 818.327,-174.9422"/><polygon fill="none" stroke="#000" points="811.027 -182.49 839.851 -195.884 825.672 -167.438 811.027 -182.49"/></g><g id="edge13" class="edge"><title>10-&gt;9</title><path fill="none" stroke="#000" d="M1017.823,-158.934C1046.9411,-169.8971 1075.608,-182.0432 1102.437,-195.4 1129.6326,-208.9393 1157.1094,-226.8378 1181.7057,-244.7301"/><polygon fill="none" stroke="#000" points="1175.418 -253.14 1205.692 -262.823 1188.064 -236.374 1175.418 -253.14"/></g></g></svg>