<svg xmlns="http://www.w3.org/2000/svg" xmlns:xlink="http://www.w3.org/1999/xlink" width="2184" height="1780" viewBox="0 0 1638.48 1335.4"><g id="graph0" class="graph" transform="scale(1 1) rotate(0) translate(4 1331.4)"><title>UmlClassDiagram</title><polygon fill="#fff" stroke="transparent" points="-4 4 -4 -1331.4 1634.477 -1331.4 1634.477 4 -4 4"/><g id="node1" class="node"><title>0</title><polygon fill="#f2f2f2" stroke="#000" points="511.488 -914.3 511.488 -1039.1 669.386 -1039.1 669.386 -914.3 511.488 -914.3"/><text x="590.437" y="-1022.5" fill="#000" font-family="Times,serif" font-size="14" text-anchor="middle">&lt;&lt;Abstract&gt;&gt;</text><text x="590.437" y="-1005.7" fill="#000" font-family="Times,serif" font-size="14" text-anchor="middle">Context</text><polyline fill="none" stroke="#000" points="511.488 -997.5 669.386 -997.5"/><polyline fill="none" stroke="#000" points="511.488 -972.7 669.386 -972.7"/><text x="519.488" y="-956.1" fill="#000" font-family="Times,serif" font-size="14" text-anchor="start">Internal:</text><text x="519.488" y="-939.3" fill="#000" font-family="Times,serif" font-size="14" text-anchor="start">_msgSender(): address</text><text x="519.488" y="-922.5" fill="#000" font-family="Times,serif" font-size="14" text-anchor="start">_msgData(): bytes</text></g><g id="node2" class="node"><title>1</title><polygon fill="#f2f2f2" stroke="#000" points="0 -534.1 0 -742.9 484.874 -742.9 484.874 -534.1 0 -534.1"/><text x="242.437" y="-726.3" fill="#000" font-family="Times,serif" font-size="14" text-anchor="middle">&lt;&lt;Abstract&gt;&gt;</text><text x="242.437" y="-709.5" fill="#000" font-family="Times,serif" font-size="14" text-anchor="middle">Ownable</text><polyline fill="none" stroke="#000" points="0 -701.3 484.874 -701.3"/><text x="8" y="-684.7" fill="#000" font-family="Times,serif" font-size="14" text-anchor="start">Private:</text><text x="8" y="-667.9" fill="#000" font-family="Times,serif" font-size="14" text-anchor="start">_owner: address</text><polyline fill="none" stroke="#000" points="0 -659.7 484.874 -659.7"/><text x="8" y="-643.1" fill="#000" font-family="Times,serif" font-size="14" text-anchor="start">Public:</text><text x="8" y="-626.3" fill="#000" font-family="Times,serif" font-size="14" text-anchor="start">&lt;&lt;event&gt;&gt; OwnershipTransferred(previousOwner: address, newOwner: address)</text><text x="8" y="-609.5" fill="#000" font-family="Times,serif" font-size="14" text-anchor="start">&lt;&lt;modifier&gt;&gt; onlyOwner()</text><text x="8" y="-592.7" fill="#000" font-family="Times,serif" font-size="14" text-anchor="start">constructor()</text><text x="8" y="-575.9" fill="#000" font-family="Times,serif" font-size="14" text-anchor="start">owner(): address</text><text x="8" y="-559.1" fill="#000" font-family="Times,serif" font-size="14" text-anchor="start">renounceOwnership()</text><text x="8" y="-542.3" fill="#000" font-family="Times,serif" font-size="14" text-anchor="start">transferOwnership(newOwner: address)</text></g><g id="edge1" class="edge"><title>1-&gt;0</title><path fill="none" stroke="#000" d="M350.1632,-743.1925C399.7667,-791.3991 457.8185,-847.8162 504.4338,-893.1187"/><polygon fill="none" stroke="#000" points="497.144 -900.676 525.976 -914.055 511.78 -885.617 497.144 -900.676"/></g><g id="node3" class="node"><title>2</title><polygon fill="#f2f2f2" stroke="#000" points="810.137 -1084.5 810.137 -1326.9 1248.737 -1326.9 1248.737 -1084.5 810.137 -1084.5"/><text x="1029.437" y="-1310.3" fill="#000" font-family="Times,serif" font-size="14" text-anchor="middle">&lt;&lt;Interface&gt;&gt;</text><text x="1029.437" y="-1293.5" fill="#000" font-family="Times,serif" font-size="14" text-anchor="middle">IERC20</text><polyline fill="none" stroke="#000" points="810.137 -1285.3 1248.737 -1285.3"/><polyline fill="none" stroke="#000" points="810.137 -1260.5 1248.737 -1260.5"/><text x="818.137" y="-1243.9" fill="#000" font-family="Times,serif" font-size="14" text-anchor="start">External:</text><text x="818.137" y="-1227.1" fill="#000" font-family="Times,serif" font-size="14" text-anchor="start">totalSupply(): uint256</text><text x="818.137" y="-1210.3" fill="#000" font-family="Times,serif" font-size="14" text-anchor="start">balanceOf(account: address): uint256</text><text x="818.137" y="-1193.5" fill="#000" font-family="Times,serif" font-size="14" text-anchor="start">transfer(recipient: address, amount: uint256): bool</text><text x="818.137" y="-1176.7" fill="#000" font-family="Times,serif" font-size="14" text-anchor="start">allowance(owner: address, spender: address): uint256</text><text x="818.137" y="-1159.9" fill="#000" font-family="Times,serif" font-size="14" text-anchor="start">approve(spender: address, amount: uint256): bool</text><text x="818.137" y="-1143.1" fill="#000" font-family="Times,serif" font-size="14" text-anchor="start">transferFrom(sender: address, recipient: address, amount: uint256): bool</text><text x="818.137" y="-1126.3" fill="#000" font-family="Times,serif" font-size="14" text-anchor="start">Public:</text><text x="818.137" y="-1109.5" fill="#000" font-family="Times,serif" font-size="14" text-anchor="start">&lt;&lt;event&gt;&gt; Transfer(from: address, to: address, value: uint256)</text><text x="818.137" y="-1092.7" fill="#000" font-family="Times,serif" font-size="14" text-anchor="start">&lt;&lt;event&gt;&gt; Approval(owner: address, spender: address, value: uint256)</text></g><g id="node4" class="node"><title>3</title><polygon fill="#f2f2f2" stroke="#000" points="919.06 -905.9 919.06 -1047.5 1047.814 -1047.5 1047.814 -905.9 919.06 -905.9"/><text x="983.437" y="-1030.9" fill="#000" font-family="Times,serif" font-size="14" text-anchor="middle">&lt;&lt;Interface&gt;&gt;</text><text x="983.437" y="-1014.1" fill="#000" font-family="Times,serif" font-size="14" text-anchor="middle">IERC20Metadata</text><polyline fill="none" stroke="#000" points="919.06 -1005.9 1047.814 -1005.9"/><polyline fill="none" stroke="#000" points="919.06 -981.1 1047.814 -981.1"/><text x="927.06" y="-964.5" fill="#000" font-family="Times,serif" font-size="14" text-anchor="start">External:</text><text x="927.06" y="-947.7" fill="#000" font-family="Times,serif" font-size="14" text-anchor="start">name(): string</text><text x="927.06" y="-930.9" fill="#000" font-family="Times,serif" font-size="14" text-anchor="start">symbol(): string</text><text x="927.06" y="-914.1" fill="#000" font-family="Times,serif" font-size="14" text-anchor="start">decimals(): uint8</text></g><g id="edge2" class="edge"><title>3-&gt;2</title><path fill="none" stroke="#000" stroke-dasharray="5 2" d="M997.6767,-1047.5888C998.1353,-1049.8721 998.5995,-1052.1827 999.0682,-1054.516"/><polygon fill="none" stroke="#000" points="988.828 -1056.855 1005.031 -1084.199 1009.417 -1052.719 988.828 -1056.855"/></g><g id="node5" class="node"><title>4</title><polygon fill="#f2f2f2" stroke="#000" points="811.887 -408.1 811.887 -868.9 1246.987 -868.9 1246.987 -408.1 811.887 -408.1"/><text x="1029.437" y="-852.3" fill="#000" font-family="Times,serif" font-size="14" text-anchor="middle">ERC20</text><polyline fill="none" stroke="#000" points="811.887 -844.1 1246.987 -844.1"/><text x="819.887" y="-827.5" fill="#000" font-family="Times,serif" font-size="14" text-anchor="start">Private:</text><text x="819.887" y="-810.7" fill="#000" font-family="Times,serif" font-size="14" text-anchor="start">_balances: mapping(address=&gt;uint256)</text><text x="819.887" y="-793.9" fill="#000" font-family="Times,serif" font-size="14" text-anchor="start">_allowances: mapping(address=&gt;mapping(address=&gt;uint256))</text><text x="819.887" y="-777.1" fill="#000" font-family="Times,serif" font-size="14" text-anchor="start">_totalSupply: uint256</text><text x="819.887" y="-760.3" fill="#000" font-family="Times,serif" font-size="14" text-anchor="start">_name: string</text><text x="819.887" y="-743.5" fill="#000" font-family="Times,serif" font-size="14" text-anchor="start">_symbol: string</text><polyline fill="none" stroke="#000" points="811.887 -735.3 1246.987 -735.3"/><text x="819.887" y="-718.7" fill="#000" font-family="Times,serif" font-size="14" text-anchor="start">Internal:</text><text x="819.887" y="-701.9" fill="#000" font-family="Times,serif" font-size="14" text-anchor="start">_transfer(sender: address, recipient: address, amount: uint256)</text><text x="819.887" y="-685.1" fill="#000" font-family="Times,serif" font-size="14" text-anchor="start">_mint(account: address, amount: uint256)</text><text x="819.887" y="-668.3" fill="#000" font-family="Times,serif" font-size="14" text-anchor="start">_burn(account: address, amount: uint256)</text><text x="819.887" y="-651.5" fill="#000" font-family="Times,serif" font-size="14" text-anchor="start">_approve(owner: address, spender: address, amount: uint256)</text><text x="819.887" y="-634.7" fill="#000" font-family="Times,serif" font-size="14" text-anchor="start">_beforeTokenTransfer(from: address, to: address, amount: uint256)</text><text x="819.887" y="-617.9" fill="#000" font-family="Times,serif" font-size="14" text-anchor="start">Public:</text><text x="819.887" y="-601.1" fill="#000" font-family="Times,serif" font-size="14" text-anchor="start">constructor(name_: string, symbol_: string)</text><text x="819.887" y="-584.3" fill="#000" font-family="Times,serif" font-size="14" text-anchor="start">name(): string</text><text x="819.887" y="-567.5" fill="#000" font-family="Times,serif" font-size="14" text-anchor="start">symbol(): string</text><text x="819.887" y="-550.7" fill="#000" font-family="Times,serif" font-size="14" text-anchor="start">decimals(): uint8</text><text x="819.887" y="-533.9" fill="#000" font-family="Times,serif" font-size="14" text-anchor="start">totalSupply(): uint256</text><text x="819.887" y="-517.1" fill="#000" font-family="Times,serif" font-size="14" text-anchor="start">balanceOf(account: address): uint256</text><text x="819.887" y="-500.3" fill="#000" font-family="Times,serif" font-size="14" text-anchor="start">transfer(recipient: address, amount: uint256): bool</text><text x="819.887" y="-483.5" fill="#000" font-family="Times,serif" font-size="14" text-anchor="start">allowance(owner: address, spender: address): uint256</text><text x="819.887" y="-466.7" fill="#000" font-family="Times,serif" font-size="14" text-anchor="start">approve(spender: address, amount: uint256): bool</text><text x="819.887" y="-449.9" fill="#000" font-family="Times,serif" font-size="14" text-anchor="start">transferFrom(sender: address, recipient: address, amount: uint256): bool</text><text x="819.887" y="-433.1" fill="#000" font-family="Times,serif" font-size="14" text-anchor="start">increaseAllowance(spender: address, addedValue: uint256): bool</text><text x="819.887" y="-416.3" fill="#000" font-family="Times,serif" font-size="14" text-anchor="start">decreaseAllowance(spender: address, subtractedValue: uint256): bool</text></g><g id="edge3" class="edge"><title>4-&gt;0</title><path fill="none" stroke="#000" d="M811.5763,-863.3418C808.8673,-865.3931 806.1537,-867.4134 803.437,-869.4 770.8515,-893.2278 732.1932,-914.4688 696.8136,-931.6375"/><polygon fill="none" stroke="#000" points="692.348 -922.135 669.631 -944.365 701.253 -941.153 692.348 -922.135"/></g><g id="edge4" class="edge"><title>4-&gt;2</title><path fill="none" stroke="#000" stroke-dasharray="5 2" d="M1056.8075,-868.9968C1060.4011,-927.4267 1061.3618,-990.0526 1056.437,-1048 1056.2652,-1050.0217 1056.0812,-1052.0565 1055.8858,-1054.1018"/><polygon fill="none" stroke="#000" points="1045.429 -1053.122 1052.366 -1084.14 1066.286 -1055.566 1045.429 -1053.122"/></g><g id="edge5" class="edge"><title>4-&gt;3</title><path fill="none" stroke="#000" stroke-dasharray="5 2" d="M998.0549,-869.2267C997.7552,-871.43 997.4577,-873.617 997.1627,-875.7861"/><polygon fill="none" stroke="#000" points="986.735 -874.543 993.096 -905.685 1007.544 -877.374 986.735 -874.543"/></g><g id="node6" class="node"><title>5</title><polygon fill="#f2f2f2" stroke="#000" points="368.743 -237.9 368.743 -362.7 656.131 -362.7 656.131 -237.9 368.743 -237.9"/><text x="512.437" y="-346.1" fill="#000" font-family="Times,serif" font-size="14" text-anchor="middle">&lt;&lt;Abstract&gt;&gt;</text><text x="512.437" y="-329.3" fill="#000" font-family="Times,serif" font-size="14" text-anchor="middle">ERC20Burnable</text><polyline fill="none" stroke="#000" points="368.743 -321.1 656.131 -321.1"/><polyline fill="none" stroke="#000" points="368.743 -296.3 656.131 -296.3"/><text x="376.743" y="-279.7" fill="#000" font-family="Times,serif" font-size="14" text-anchor="start">Public:</text><text x="376.743" y="-262.9" fill="#000" font-family="Times,serif" font-size="14" text-anchor="start">burn(amount: uint256)</text><text x="376.743" y="-246.1" fill="#000" font-family="Times,serif" font-size="14" text-anchor="start">burnFrom(account: address, amount: uint256)</text></g><g id="edge6" class="edge"><title>5-&gt;0</title><path fill="none" stroke="#000" d="M505.2041,-362.7669C494.9386,-469.0509 482.4095,-690.9007 531.437,-869.4 532.9995,-875.0887 534.9165,-880.8048 537.0928,-886.4757"/><polygon fill="none" stroke="#000" points="527.695 -891.175 549.694 -914.116 546.803 -882.463 527.695 -891.175"/></g><g id="edge7" class="edge"><title>5-&gt;4</title><path fill="none" stroke="#000" d="M642.3973,-362.7828C650.1358,-365.9032 657.8547,-368.8697 665.437,-371.6 715.756,-389.7194 740.3725,-380.2484 784.7776,-398.9448"/><polygon fill="none" stroke="#000" points="780.26 -408.427 811.772 -412.584 789.731 -389.683 780.26 -408.427"/></g><g id="node7" class="node"><title>6</title><polygon fill="#f2f2f2" stroke="#000" points="540.635 -508.9 540.635 -768.1 794.239 -768.1 794.239 -508.9 540.635 -508.9"/><text x="667.437" y="-751.5" fill="#000" font-family="Times,serif" font-size="14" text-anchor="middle">&lt;&lt;Abstract&gt;&gt;</text><text x="667.437" y="-734.7" fill="#000" font-family="Times,serif" font-size="14" text-anchor="middle">Pausable</text><polyline fill="none" stroke="#000" points="540.635 -726.5 794.239 -726.5"/><text x="548.635" y="-709.9" fill="#000" font-family="Times,serif" font-size="14" text-anchor="start">Private:</text><text x="548.635" y="-693.1" fill="#000" font-family="Times,serif" font-size="14" text-anchor="start">_paused: bool</text><polyline fill="none" stroke="#000" points="540.635 -684.9 794.239 -684.9"/><text x="548.635" y="-668.3" fill="#000" font-family="Times,serif" font-size="14" text-anchor="start">Internal:</text><text x="548.635" y="-651.5" fill="#000" font-family="Times,serif" font-size="14" text-anchor="start">_pause()</text><text x="548.635" y="-634.7" fill="#000" font-family="Times,serif" font-size="14" text-anchor="start">_unpause()</text><text x="548.635" y="-617.9" fill="#000" font-family="Times,serif" font-size="14" text-anchor="start">Public:</text><text x="548.635" y="-601.1" fill="#000" font-family="Times,serif" font-size="14" text-anchor="start">&lt;&lt;event&gt;&gt; Paused(account: address)</text><text x="548.635" y="-584.3" fill="#000" font-family="Times,serif" font-size="14" text-anchor="start">&lt;&lt;event&gt;&gt; Unpaused(account: address)</text><text x="548.635" y="-567.5" fill="#000" font-family="Times,serif" font-size="14" text-anchor="start">&lt;&lt;modifier&gt;&gt; whenNotPaused()</text><text x="548.635" y="-550.7" fill="#000" font-family="Times,serif" font-size="14" text-anchor="start">&lt;&lt;modifier&gt;&gt; whenPaused()</text><text x="548.635" y="-533.9" fill="#000" font-family="Times,serif" font-size="14" text-anchor="start">constructor()</text><text x="548.635" y="-517.1" fill="#000" font-family="Times,serif" font-size="14" text-anchor="start">paused(): bool</text></g><g id="edge8" class="edge"><title>6-&gt;0</title><path fill="none" stroke="#000" d="M637.887,-768.2897C629.0409,-807.1435 619.5275,-848.9285 611.3585,-884.8083"/><polygon fill="none" stroke="#000" points="601.069 -882.705 604.647 -914.287 621.545 -887.367 601.069 -882.705"/></g><g id="node8" class="node"><title>7</title><polygon fill="#f2f2f2" stroke="#000" points="674.309 -246.3 674.309 -354.3 1082.565 -354.3 1082.565 -246.3 674.309 -246.3"/><text x="878.437" y="-337.7" fill="#000" font-family="Times,serif" font-size="14" text-anchor="middle">&lt;&lt;Abstract&gt;&gt;</text><text x="878.437" y="-320.9" fill="#000" font-family="Times,serif" font-size="14" text-anchor="middle">ERC20Pausable</text><polyline fill="none" stroke="#000" points="674.309 -312.7 1082.565 -312.7"/><polyline fill="none" stroke="#000" points="674.309 -287.9 1082.565 -287.9"/><text x="682.309" y="-271.3" fill="#000" font-family="Times,serif" font-size="14" text-anchor="start">Internal:</text><text x="682.309" y="-254.5" fill="#000" font-family="Times,serif" font-size="14" text-anchor="start">_beforeTokenTransfer(from: address, to: address, amount: uint256)</text></g><g id="edge9" class="edge"><title>7-&gt;4</title><path fill="none" stroke="#000" d="M902.6978,-354.6377C906.2539,-362.6025 910.0972,-371.2105 914.1551,-380.2992"/><polygon fill="none" stroke="#000" points="904.675 -384.82 926.493 -407.933 923.85 -376.259 904.675 -384.82"/></g><g id="edge10" class="edge"><title>7-&gt;6</title><path fill="none" stroke="#000" d="M838.6441,-354.5301C826.6921,-371.3314 813.7555,-390.0449 802.437,-407.6 786.9832,-431.5689 771.1744,-457.3267 756.0704,-482.6355"/><polygon fill="none" stroke="#000" points="746.858 -477.585 740.63 -508.754 764.936 -488.272 746.858 -477.585"/></g><g id="node9" class="node"><title>8</title><polygon fill="#f2f2f2" stroke="#000" points="1100.822 -229.5 1100.822 -371.1 1296.052 -371.1 1296.052 -229.5 1100.822 -229.5"/><text x="1198.437" y="-354.5" fill="#000" font-family="Times,serif" font-size="14" text-anchor="middle">&lt;&lt;Abstract&gt;&gt;</text><text x="1198.437" y="-337.7" fill="#000" font-family="Times,serif" font-size="14" text-anchor="middle">ERC20Decimals</text><polyline fill="none" stroke="#000" points="1100.822 -329.5 1296.052 -329.5"/><text x="1108.822" y="-312.9" fill="#000" font-family="Times,serif" font-size="14" text-anchor="start">Private:</text><text x="1108.822" y="-296.1" fill="#000" font-family="Times,serif" font-size="14" text-anchor="start">_decimals: uint8</text><polyline fill="none" stroke="#000" points="1100.822 -287.9 1296.052 -287.9"/><text x="1108.822" y="-271.3" fill="#000" font-family="Times,serif" font-size="14" text-anchor="start">Public:</text><text x="1108.822" y="-254.5" fill="#000" font-family="Times,serif" font-size="14" text-anchor="start">constructor(decimals_: uint8)</text><text x="1108.822" y="-237.7" fill="#000" font-family="Times,serif" font-size="14" text-anchor="start">decimals(): uint8</text></g><g id="edge11" class="edge"><title>8-&gt;4</title><path fill="none" stroke="#000" d="M1163.0091,-371.1978C1161.4476,-374.3226 1159.8519,-377.5159 1158.2257,-380.7702"/><polygon fill="none" stroke="#000" points="1148.703 -376.336 1144.686 -407.866 1167.489 -385.724 1148.703 -376.336"/></g><g id="node10" class="node"><title>9</title><polygon fill="#f2f2f2" stroke="#000" points="1218.748 -42.5 1218.748 -150.5 1394.126 -150.5 1394.126 -42.5 1218.748 -42.5"/><text x="1306.437" y="-133.9" fill="#000" font-family="Times,serif" font-size="14" text-anchor="middle">&lt;&lt;Interface&gt;&gt;</text><text x="1306.437" y="-117.1" fill="#000" font-family="Times,serif" font-size="14" text-anchor="middle">IPayable</text><polyline fill="none" stroke="#000" points="1218.748 -108.9 1394.126 -108.9"/><polyline fill="none" stroke="#000" points="1218.748 -84.1 1394.126 -84.1"/><text x="1226.748" y="-67.5" fill="#000" font-family="Times,serif" font-size="14" text-anchor="start">External:</text><text x="1226.748" y="-50.7" fill="#000" font-family="Times,serif" font-size="14" text-anchor="start">pay(serviceName: string)</text></g><g id="node11" class="node"><title>10</title><polygon fill="#f2f2f2" stroke="#000" points="1314.397 -246.3 1314.397 -354.3 1630.477 -354.3 1630.477 -246.3 1314.397 -246.3"/><text x="1472.437" y="-337.7" fill="#000" font-family="Times,serif" font-size="14" text-anchor="middle">&lt;&lt;Abstract&gt;&gt;</text><text x="1472.437" y="-320.9" fill="#000" font-family="Times,serif" font-size="14" text-anchor="middle">ServicePayer</text><polyline fill="none" stroke="#000" points="1314.397 -312.7 1630.477 -312.7"/><polyline fill="none" stroke="#000" points="1314.397 -287.9 1630.477 -287.9"/><text x="1322.397" y="-271.3" fill="#000" font-family="Times,serif" font-size="14" text-anchor="start">Public:</text><text x="1322.397" y="-254.5" fill="#000" font-family="Times,serif" font-size="14" text-anchor="start">constructor(receiver: address, serviceName: string)</text></g><g id="node12" class="node"><title>11</title><polygon fill="#f2f2f2" stroke="#000" points="555.707 -.5 555.707 -192.5 1201.167 -192.5 1201.167 -.5 555.707 -.5"/><text x="878.437" y="-175.9" fill="#000" font-family="Times,serif" font-size="14" text-anchor="middle">PausableERC20</text><polyline fill="none" stroke="#000" points="555.707 -167.7 1201.167 -167.7"/><polyline fill="none" stroke="#000" points="555.707 -142.9 1201.167 -142.9"/><text x="563.707" y="-126.3" fill="#000" font-family="Times,serif" font-size="14" text-anchor="start">Internal:</text><text x="563.707" y="-109.5" fill="#000" font-family="Times,serif" font-size="14" text-anchor="start">_beforeTokenTransfer(from: address, to: address, amount: uint256)</text><text x="563.707" y="-92.7" fill="#000" font-family="Times,serif" font-size="14" text-anchor="start">External:</text><text x="563.707" y="-75.9" fill="#000" font-family="Times,serif" font-size="14" text-anchor="start">pause()</text><text x="563.707" y="-59.1" fill="#000" font-family="Times,serif" font-size="14" text-anchor="start">unpause()</text><text x="563.707" y="-42.3" fill="#000" font-family="Times,serif" font-size="14" text-anchor="start">Public:</text><text x="563.707" y="-25.5" fill="#000" font-family="Times,serif" font-size="14" text-anchor="start">constructor(name_: string, symbol_: string, decimals_: uint8, initialBalance_: uint256, feeReceiver_: address)</text><text x="563.707" y="-8.7" fill="#000" font-family="Times,serif" font-size="14" text-anchor="start">decimals(): uint8</text></g><g id="edge15" class="edge"><title>11-&gt;1</title><path fill="none" stroke="#000" d="M555.6253,-151.9268C469.0774,-172.5786 390.7775,-198.5353 359.437,-229 286.0033,-300.3815 257.7821,-414.3938 247.3456,-504.0115"/><polygon fill="none" stroke="#000" points="236.885 -503.093 244.399 -533.977 257.785 -505.148 236.885 -503.093"/></g><g id="edge13" class="edge"><title>11-&gt;5</title><path fill="none" stroke="#000" d="M705.8865,-192.5814C687.4493,-202.8478 668.8701,-213.1933 650.9009,-223.1991"/><polygon fill="none" stroke="#000" points="645.751 -214.048 624.649 -237.817 655.968 -232.396 645.751 -214.048"/></g><g id="edge14" class="edge"><title>11-&gt;7</title><path fill="none" stroke="#000" d="M878.437,-192.7304C878.437,-200.4698 878.437,-208.2529 878.437,-215.9004"/><polygon fill="none" stroke="#000" points="867.937 -216.115 878.437 -246.115 888.937 -216.115 867.937 -216.115"/></g><g id="edge12" class="edge"><title>11-&gt;8</title><path fill="none" stroke="#000" d="M1034.0966,-192.5469C1046.9568,-200.635 1059.8691,-208.8052 1075.1784,-218.5963"/><polygon fill="none" stroke="#000" points="1069.641 -227.519 1100.556 -234.9 1080.991 -209.851 1069.641 -227.519"/></g><g id="edge16" class="edge"><title>11-&gt;10</title><path fill="none" stroke="#000" d="M1200.5141,-192.5532C1236.0929,-204.3162 1271.6508,-216.5827 1305.437,-229 1310.8741,-230.9983 1316.3911,-233.077 1321.9485,-235.2144"/><polygon fill="none" stroke="#000" points="1318.131 -244.996 1349.889 -246.289 1325.869 -225.474 1318.131 -244.996"/></g></g></svg>