<svg xmlns="http://www.w3.org/2000/svg" xmlns:xlink="http://www.w3.org/1999/xlink" width="950pt" height="787pt" viewBox="0 0 949.74 787.2"><g id="graph0" class="graph" transform="scale(1 1) rotate(0) translate(4 783.2)"><title>UmlClassDiagram</title><polygon fill="#fff" stroke="transparent" points="-4 4 -4 -783.2 945.737 -783.2 945.737 4 -4 4"/><g id="node1" class="node"><title>0</title><polygon fill="#f2f2f2" stroke="#000" points="0 -374.5 0 -616.9 438.6 -616.9 438.6 -374.5 0 -374.5"/><text x="219.3" y="-600.3" fill="#000" font-family="Times,serif" font-size="14" text-anchor="middle">&lt;&lt;Interface&gt;&gt;</text><text x="219.3" y="-583.5" fill="#000" font-family="Times,serif" font-size="14" text-anchor="middle">IERC20</text><polyline fill="none" stroke="#000" points="0 -575.3 438.6 -575.3"/><polyline fill="none" stroke="#000" points="0 -550.5 438.6 -550.5"/><text x="8" y="-533.9" fill="#000" font-family="Times,serif" font-size="14" text-anchor="start">External:</text><text x="8" y="-517.1" fill="#000" font-family="Times,serif" font-size="14" text-anchor="start">totalSupply(): uint256</text><text x="8" y="-500.3" fill="#000" font-family="Times,serif" font-size="14" text-anchor="start">balanceOf(account: address): uint256</text><text x="8" y="-483.5" fill="#000" font-family="Times,serif" font-size="14" text-anchor="start">transfer(recipient: address, amount: uint256): bool</text><text x="8" y="-466.7" fill="#000" font-family="Times,serif" font-size="14" text-anchor="start">allowance(owner: address, spender: address): uint256</text><text x="8" y="-449.9" fill="#000" font-family="Times,serif" font-size="14" text-anchor="start">approve(spender: address, amount: uint256): bool</text><text x="8" y="-433.1" fill="#000" font-family="Times,serif" font-size="14" text-anchor="start">transferFrom(sender: address, recipient: address, amount: uint256): bool</text><text x="8" y="-416.3" fill="#000" font-family="Times,serif" font-size="14" text-anchor="start">Public:</text><text x="8" y="-399.5" fill="#000" font-family="Times,serif" font-size="14" text-anchor="start">&lt;&lt;event&gt;&gt; Transfer(from: address, to: address, value: uint256)</text><text x="8" y="-382.7" fill="#000" font-family="Times,serif" font-size="14" text-anchor="start">&lt;&lt;event&gt;&gt; Approval(owner: address, spender: address, value: uint256)</text></g><g id="node2" class="node"><title>1</title><polygon fill="#f2f2f2" stroke="#000" points="620.351 -653.9 620.351 -778.7 778.249 -778.7 778.249 -653.9 620.351 -653.9"/><text x="699.3" y="-762.1" fill="#000" font-family="Times,serif" font-size="14" text-anchor="middle">&lt;&lt;Abstract&gt;&gt;</text><text x="699.3" y="-745.3" fill="#000" font-family="Times,serif" font-size="14" text-anchor="middle">Context</text><polyline fill="none" stroke="#000" points="620.351 -737.1 778.249 -737.1"/><polyline fill="none" stroke="#000" points="620.351 -712.3 778.249 -712.3"/><text x="628.351" y="-695.7" fill="#000" font-family="Times,serif" font-size="14" text-anchor="start">Internal:</text><text x="628.351" y="-678.9" fill="#000" font-family="Times,serif" font-size="14" text-anchor="start">_msgSender(): address</text><text x="628.351" y="-662.1" fill="#000" font-family="Times,serif" font-size="14" text-anchor="start">_msgData(): bytes</text></g><g id="node3" class="node"><title>2</title><polygon fill="#f2f2f2" stroke="#000" points="456.863 -391.3 456.863 -600.1 941.737 -600.1 941.737 -391.3 456.863 -391.3"/><text x="699.3" y="-583.5" fill="#000" font-family="Times,serif" font-size="14" text-anchor="middle">&lt;&lt;Abstract&gt;&gt;</text><text x="699.3" y="-566.7" fill="#000" font-family="Times,serif" font-size="14" text-anchor="middle">Ownable</text><polyline fill="none" stroke="#000" points="456.863 -558.5 941.737 -558.5"/><text x="464.863" y="-541.9" fill="#000" font-family="Times,serif" font-size="14" text-anchor="start">Private:</text><text x="464.863" y="-525.1" fill="#000" font-family="Times,serif" font-size="14" text-anchor="start">_owner: address</text><polyline fill="none" stroke="#000" points="456.863 -516.9 941.737 -516.9"/><text x="464.863" y="-500.3" fill="#000" font-family="Times,serif" font-size="14" text-anchor="start">Public:</text><text x="464.863" y="-483.5" fill="#000" font-family="Times,serif" font-size="14" text-anchor="start">&lt;&lt;event&gt;&gt; OwnershipTransferred(previousOwner: address, newOwner: address)</text><text x="464.863" y="-466.7" fill="#000" font-family="Times,serif" font-size="14" text-anchor="start">&lt;&lt;modifier&gt;&gt; onlyOwner()</text><text x="464.863" y="-449.9" fill="#000" font-family="Times,serif" font-size="14" text-anchor="start">constructor()</text><text x="464.863" y="-433.1" fill="#000" font-family="Times,serif" font-size="14" text-anchor="start">owner(): address</text><text x="464.863" y="-416.3" fill="#000" font-family="Times,serif" font-size="14" text-anchor="start">renounceOwnership()</text><text x="464.863" y="-399.5" fill="#000" font-family="Times,serif" font-size="14" text-anchor="start">transferOwnership(newOwner: address)</text></g><g id="edge1" class="edge"><title>2-&gt;1</title><path fill="none" stroke="#000" d="M699.2999,-600.1858C699.2999,-607.8908 699.2999,-615.6337 699.2999,-623.2636"/><polygon fill="none" stroke="#000" points="688.8 -623.606 699.3 -653.606 709.8 -623.606 688.8 -623.606"/></g><g id="node4" class="node"><title>3</title><polygon fill="#f2f2f2" stroke="#000" points="507.789 -246.3 507.789 -337.5 890.811 -337.5 890.811 -246.3 507.789 -246.3"/><text x="699.3" y="-320.9" fill="#000" font-family="Times,serif" font-size="14" text-anchor="middle">TokenRecover</text><polyline fill="none" stroke="#000" points="507.789 -312.7 890.811 -312.7"/><polyline fill="none" stroke="#000" points="507.789 -287.9 890.811 -287.9"/><text x="515.789" y="-271.3" fill="#000" font-family="Times,serif" font-size="14" text-anchor="start">Public:</text><text x="515.789" y="-254.5" fill="#000" font-family="Times,serif" font-size="14" text-anchor="start">recoverERC20(tokenAddress: address, tokenAmount: uint256)</text></g><g id="edge3" class="edge"><title>3-&gt;0</title><path fill="none" stroke="#000" stroke-dasharray="5 2" d="M545.434,-337.5785C512.9704,-348.5045 479.2025,-360.8506 448.2999,-374 448.1996,-374.0427 448.0992,-374.0854 447.9989,-374.1282"/><polygon fill="#000" stroke="#000" points="446.414 -371 438.625 -378.182 449.193 -377.425 446.414 -371"/></g><g id="edge2" class="edge"><title>3-&gt;2</title><path fill="none" stroke="#000" d="M699.2999,-337.6367C699.2999,-344.8689 699.2999,-352.6499 699.2999,-360.7429"/><polygon fill="none" stroke="#000" points="688.8 -360.992 699.3 -390.992 709.8 -360.992 688.8 -360.992"/></g><g id="node5" class="node"><title>4</title><polygon fill="#f2f2f2" stroke="#000" points="498.063 -.5 498.063 -209.3 900.537 -209.3 900.537 -.5 498.063 -.5"/><text x="699.3" y="-192.7" fill="#000" font-family="Times,serif" font-size="14" text-anchor="middle">ServiceReceiver</text><polyline fill="none" stroke="#000" points="498.063 -184.5 900.537 -184.5"/><text x="506.063" y="-167.9" fill="#000" font-family="Times,serif" font-size="14" text-anchor="start">Private:</text><text x="506.063" y="-151.1" fill="#000" font-family="Times,serif" font-size="14" text-anchor="start">_prices: mapping(bytes32=&gt;uint256)</text><polyline fill="none" stroke="#000" points="498.063 -142.9 900.537 -142.9"/><text x="506.063" y="-126.3" fill="#000" font-family="Times,serif" font-size="14" text-anchor="start">Private:</text><text x="506.063" y="-109.5" fill="#000" font-family="Times,serif" font-size="14" text-anchor="start">_toBytes32(serviceName: string): bytes32</text><text x="506.063" y="-92.7" fill="#000" font-family="Times,serif" font-size="14" text-anchor="start">Public:</text><text x="506.063" y="-75.9" fill="#000" font-family="Times,serif" font-size="14" text-anchor="start">&lt;&lt;payable&gt;&gt; pay(serviceName: string)</text><text x="506.063" y="-59.1" fill="#000" font-family="Times,serif" font-size="14" text-anchor="start">&lt;&lt;event&gt;&gt; Created(serviceName: string, serviceAddress: address)</text><text x="506.063" y="-42.3" fill="#000" font-family="Times,serif" font-size="14" text-anchor="start">getPrice(serviceName: string): uint256</text><text x="506.063" y="-25.5" fill="#000" font-family="Times,serif" font-size="14" text-anchor="start">setPrice(serviceName: string, amount: uint256)</text><text x="506.063" y="-8.7" fill="#000" font-family="Times,serif" font-size="14" text-anchor="start">withdraw(amount: uint256)</text></g><g id="edge4" class="edge"><title>4-&gt;3</title><path fill="none" stroke="#000" d="M699.2999,-209.3347C699.2999,-211.5492 699.2999,-213.7553 699.2999,-215.948"/><polygon fill="none" stroke="#000" points="688.8 -216.147 699.3 -246.147 709.8 -216.147 688.8 -216.147"/></g></g></svg>