<svg xmlns="http://www.w3.org/2000/svg" xmlns:xlink="http://www.w3.org/1999/xlink" width="1133pt" height="1073pt" viewBox="0 0 1132.99 1072.8"><g id="graph0" class="graph" transform="scale(1 1) rotate(0) translate(4 1068.8)"><title>UmlClassDiagram</title><polygon fill="#fff" stroke="transparent" points="-4 4 -4 -1068.8 1128.989 -1068.8 1128.989 4 -4 4"/><g id="node1" class="node"><title>0</title><polygon fill="#f2f2f2" stroke="#000" points="0 -821.9 0 -1064.3 438.6 -1064.3 438.6 -821.9 0 -821.9"/><text x="219.3" y="-1047.7" fill="#000" font-family="Times,serif" font-size="14" text-anchor="middle">&lt;&lt;Interface&gt;&gt;</text><text x="219.3" y="-1030.9" fill="#000" font-family="Times,serif" font-size="14" text-anchor="middle">IERC20</text><polyline fill="none" stroke="#000" points="0 -1022.7 438.6 -1022.7"/><polyline fill="none" stroke="#000" points="0 -997.9 438.6 -997.9"/><text x="8" y="-981.3" fill="#000" font-family="Times,serif" font-size="14" text-anchor="start">External:</text><text x="8" y="-964.5" fill="#000" font-family="Times,serif" font-size="14" text-anchor="start">totalSupply(): uint256</text><text x="8" y="-947.7" fill="#000" font-family="Times,serif" font-size="14" text-anchor="start">balanceOf(account: address): uint256</text><text x="8" y="-930.9" fill="#000" font-family="Times,serif" font-size="14" text-anchor="start">transfer(recipient: address, amount: uint256): bool</text><text x="8" y="-914.1" fill="#000" font-family="Times,serif" font-size="14" text-anchor="start">allowance(owner: address, spender: address): uint256</text><text x="8" y="-897.3" fill="#000" font-family="Times,serif" font-size="14" text-anchor="start">approve(spender: address, amount: uint256): bool</text><text x="8" y="-880.5" fill="#000" font-family="Times,serif" font-size="14" text-anchor="start">transferFrom(sender: address, recipient: address, amount: uint256): bool</text><text x="8" y="-863.7" fill="#000" font-family="Times,serif" font-size="14" text-anchor="start">Public:</text><text x="8" y="-846.9" fill="#000" font-family="Times,serif" font-size="14" text-anchor="start">&lt;&lt;event&gt;&gt; Transfer(from: address, to: address, value: uint256)</text><text x="8" y="-830.1" fill="#000" font-family="Times,serif" font-size="14" text-anchor="start">&lt;&lt;event&gt;&gt; Approval(owner: address, spender: address, value: uint256)</text></g><g id="node2" class="node"><title>1</title><polygon fill="#f2f2f2" stroke="#000" points="200.923 -643.3 200.923 -784.9 329.676 -784.9 329.676 -643.3 200.923 -643.3"/><text x="265.3" y="-768.3" fill="#000" font-family="Times,serif" font-size="14" text-anchor="middle">&lt;&lt;Interface&gt;&gt;</text><text x="265.3" y="-751.5" fill="#000" font-family="Times,serif" font-size="14" text-anchor="middle">IERC20Metadata</text><polyline fill="none" stroke="#000" points="200.923 -743.3 329.676 -743.3"/><polyline fill="none" stroke="#000" points="200.923 -718.5 329.676 -718.5"/><text x="208.923" y="-701.9" fill="#000" font-family="Times,serif" font-size="14" text-anchor="start">External:</text><text x="208.923" y="-685.1" fill="#000" font-family="Times,serif" font-size="14" text-anchor="start">name(): string</text><text x="208.923" y="-668.3" fill="#000" font-family="Times,serif" font-size="14" text-anchor="start">symbol(): string</text><text x="208.923" y="-651.5" fill="#000" font-family="Times,serif" font-size="14" text-anchor="start">decimals(): uint8</text></g><g id="edge1" class="edge"><title>1-&gt;0</title><path fill="none" stroke="#000" stroke-dasharray="5 2" d="M251.0602,-784.9888C250.6016,-787.2721 250.1374,-789.5827 249.6687,-791.916"/><polygon fill="none" stroke="#000" points="239.32 -790.119 243.706 -821.599 259.909 -794.255 239.32 -790.119"/></g><g id="node3" class="node"><title>2</title><polygon fill="#f2f2f2" stroke="#000" points="347.351 -651.7 347.351 -776.5 505.249 -776.5 505.249 -651.7 347.351 -651.7"/><text x="426.3" y="-759.9" fill="#000" font-family="Times,serif" font-size="14" text-anchor="middle">&lt;&lt;Abstract&gt;&gt;</text><text x="426.3" y="-743.1" fill="#000" font-family="Times,serif" font-size="14" text-anchor="middle">Context</text><polyline fill="none" stroke="#000" points="347.351 -734.9 505.249 -734.9"/><polyline fill="none" stroke="#000" points="347.351 -710.1 505.249 -710.1"/><text x="355.351" y="-693.5" fill="#000" font-family="Times,serif" font-size="14" text-anchor="start">Internal:</text><text x="355.351" y="-676.7" fill="#000" font-family="Times,serif" font-size="14" text-anchor="start">_msgSender(): address</text><text x="355.351" y="-659.9" fill="#000" font-family="Times,serif" font-size="14" text-anchor="start">_msgData(): bytes</text></g><g id="node4" class="node"><title>3</title><polygon fill="#f2f2f2" stroke="#000" points="47.75 -145.5 47.75 -606.3 482.85 -606.3 482.85 -145.5 47.75 -145.5"/><text x="265.3" y="-589.7" fill="#000" font-family="Times,serif" font-size="14" text-anchor="middle">ERC20</text><polyline fill="none" stroke="#000" points="47.75 -581.5 482.85 -581.5"/><text x="55.75" y="-564.9" fill="#000" font-family="Times,serif" font-size="14" text-anchor="start">Private:</text><text x="55.75" y="-548.1" fill="#000" font-family="Times,serif" font-size="14" text-anchor="start">_balances: mapping(address=&gt;uint256)</text><text x="55.75" y="-531.3" fill="#000" font-family="Times,serif" font-size="14" text-anchor="start">_allowances: mapping(address=&gt;mapping(address=&gt;uint256))</text><text x="55.75" y="-514.5" fill="#000" font-family="Times,serif" font-size="14" text-anchor="start">_totalSupply: uint256</text><text x="55.75" y="-497.7" fill="#000" font-family="Times,serif" font-size="14" text-anchor="start">_name: string</text><text x="55.75" y="-480.9" fill="#000" font-family="Times,serif" font-size="14" text-anchor="start">_symbol: string</text><polyline fill="none" stroke="#000" points="47.75 -472.7 482.85 -472.7"/><text x="55.75" y="-456.1" fill="#000" font-family="Times,serif" font-size="14" text-anchor="start">Internal:</text><text x="55.75" y="-439.3" fill="#000" font-family="Times,serif" font-size="14" text-anchor="start">_transfer(sender: address, recipient: address, amount: uint256)</text><text x="55.75" y="-422.5" fill="#000" font-family="Times,serif" font-size="14" text-anchor="start">_mint(account: address, amount: uint256)</text><text x="55.75" y="-405.7" fill="#000" font-family="Times,serif" font-size="14" text-anchor="start">_burn(account: address, amount: uint256)</text><text x="55.75" y="-388.9" fill="#000" font-family="Times,serif" font-size="14" text-anchor="start">_approve(owner: address, spender: address, amount: uint256)</text><text x="55.75" y="-372.1" fill="#000" font-family="Times,serif" font-size="14" text-anchor="start">_beforeTokenTransfer(from: address, to: address, amount: uint256)</text><text x="55.75" y="-355.3" fill="#000" font-family="Times,serif" font-size="14" text-anchor="start">Public:</text><text x="55.75" y="-338.5" fill="#000" font-family="Times,serif" font-size="14" text-anchor="start">constructor(name_: string, symbol_: string)</text><text x="55.75" y="-321.7" fill="#000" font-family="Times,serif" font-size="14" text-anchor="start">name(): string</text><text x="55.75" y="-304.9" fill="#000" font-family="Times,serif" font-size="14" text-anchor="start">symbol(): string</text><text x="55.75" y="-288.1" fill="#000" font-family="Times,serif" font-size="14" text-anchor="start">decimals(): uint8</text><text x="55.75" y="-271.3" fill="#000" font-family="Times,serif" font-size="14" text-anchor="start">totalSupply(): uint256</text><text x="55.75" y="-254.5" fill="#000" font-family="Times,serif" font-size="14" text-anchor="start">balanceOf(account: address): uint256</text><text x="55.75" y="-237.7" fill="#000" font-family="Times,serif" font-size="14" text-anchor="start">transfer(recipient: address, amount: uint256): bool</text><text x="55.75" y="-220.9" fill="#000" font-family="Times,serif" font-size="14" text-anchor="start">allowance(owner: address, spender: address): uint256</text><text x="55.75" y="-204.1" fill="#000" font-family="Times,serif" font-size="14" text-anchor="start">approve(spender: address, amount: uint256): bool</text><text x="55.75" y="-187.3" fill="#000" font-family="Times,serif" font-size="14" text-anchor="start">transferFrom(sender: address, recipient: address, amount: uint256): bool</text><text x="55.75" y="-170.5" fill="#000" font-family="Times,serif" font-size="14" text-anchor="start">increaseAllowance(spender: address, addedValue: uint256): bool</text><text x="55.75" y="-153.7" fill="#000" font-family="Times,serif" font-size="14" text-anchor="start">decreaseAllowance(spender: address, subtractedValue: uint256): bool</text></g><g id="edge3" class="edge"><title>3-&gt;0</title><path fill="none" stroke="#000" stroke-dasharray="5 2" d="M198.1569,-606.5863C195.8807,-618.7737 193.8983,-630.8972 192.2999,-642.8 183.8647,-705.6139 186.9329,-722.2499 192.2999,-785.4 192.4717,-787.4217 192.6557,-789.4565 192.8511,-791.5018"/><polygon fill="none" stroke="#000" points="182.451 -792.966 196.371 -821.54 203.308 -790.522 182.451 -792.966"/></g><g id="edge4" class="edge"><title>3-&gt;1</title><path fill="none" stroke="#000" stroke-dasharray="5 2" d="M265.2999,-606.6267C265.2999,-608.7298 265.2999,-610.8182 265.2999,-612.8902"/><polygon fill="none" stroke="#000" points="254.8 -613.085 265.3 -643.085 275.8 -613.085 254.8 -613.085"/></g><g id="edge2" class="edge"><title>3-&gt;2</title><path fill="none" stroke="#000" d="M375.1373,-606.6267C378.0082,-612.6574 380.8214,-618.5669 383.5593,-624.3182"/><polygon fill="none" stroke="#000" points="374.164 -629.01 396.539 -651.584 393.125 -619.983 374.164 -629.01"/></g><g id="node5" class="node"><title>4</title><polygon fill="#f2f2f2" stroke="#000" points="949.611 -.5 949.611 -108.5 1124.989 -108.5 1124.989 -.5 949.611 -.5"/><text x="1037.3" y="-91.9" fill="#000" font-family="Times,serif" font-size="14" text-anchor="middle">&lt;&lt;Interface&gt;&gt;</text><text x="1037.3" y="-75.1" fill="#000" font-family="Times,serif" font-size="14" text-anchor="middle">IPayable</text><polyline fill="none" stroke="#000" points="949.611 -66.9 1124.989 -66.9"/><polyline fill="none" stroke="#000" points="949.611 -42.1 1124.989 -42.1"/><text x="957.611" y="-25.5" fill="#000" font-family="Times,serif" font-size="14" text-anchor="start">External:</text><text x="957.611" y="-8.7" fill="#000" font-family="Times,serif" font-size="14" text-anchor="start">pay(serviceName: string)</text></g><g id="node6" class="node"><title>5</title><polygon fill="#f2f2f2" stroke="#000" points="501.26 -321.9 501.26 -429.9 817.34 -429.9 817.34 -321.9 501.26 -321.9"/><text x="659.3" y="-413.3" fill="#000" font-family="Times,serif" font-size="14" text-anchor="middle">&lt;&lt;Abstract&gt;&gt;</text><text x="659.3" y="-396.5" fill="#000" font-family="Times,serif" font-size="14" text-anchor="middle">ServicePayer</text><polyline fill="none" stroke="#000" points="501.26 -388.3 817.34 -388.3"/><polyline fill="none" stroke="#000" points="501.26 -363.5 817.34 -363.5"/><text x="509.26" y="-346.9" fill="#000" font-family="Times,serif" font-size="14" text-anchor="start">Public:</text><text x="509.26" y="-330.1" fill="#000" font-family="Times,serif" font-size="14" text-anchor="start">constructor(receiver: address, serviceName: string)</text></g><g id="node7" class="node"><title>6</title><polygon fill="#f2f2f2" stroke="#000" points="835.408 -296.7 835.408 -455.1 1025.192 -455.1 1025.192 -296.7 835.408 -296.7"/><text x="930.3" y="-438.5" fill="#000" font-family="Times,serif" font-size="14" text-anchor="middle">GeneratorCopyright</text><polyline fill="none" stroke="#000" points="835.408 -430.3 1025.192 -430.3"/><text x="843.408" y="-413.7" fill="#000" font-family="Times,serif" font-size="14" text-anchor="start">Private:</text><text x="843.408" y="-396.9" fill="#000" font-family="Times,serif" font-size="14" text-anchor="start">_GENERATOR: string</text><text x="843.408" y="-380.1" fill="#000" font-family="Times,serif" font-size="14" text-anchor="start">_version: string</text><polyline fill="none" stroke="#000" points="835.408 -371.9 1025.192 -371.9"/><text x="843.408" y="-355.3" fill="#000" font-family="Times,serif" font-size="14" text-anchor="start">Public:</text><text x="843.408" y="-338.5" fill="#000" font-family="Times,serif" font-size="14" text-anchor="start">constructor(version_: string)</text><text x="843.408" y="-321.7" fill="#000" font-family="Times,serif" font-size="14" text-anchor="start">generator(): string</text><text x="843.408" y="-304.9" fill="#000" font-family="Times,serif" font-size="14" text-anchor="start">version(): string</text></g><g id="node8" class="node"><title>7</title><polygon fill="#f2f2f2" stroke="#000" points="386.536 -8.9 386.536 -100.1 932.064 -100.1 932.064 -8.9 386.536 -8.9"/><text x="659.3" y="-83.5" fill="#000" font-family="Times,serif" font-size="14" text-anchor="middle">SimpleERC20</text><polyline fill="none" stroke="#000" points="386.536 -75.3 932.064 -75.3"/><polyline fill="none" stroke="#000" points="386.536 -50.5 932.064 -50.5"/><text x="394.536" y="-33.9" fill="#000" font-family="Times,serif" font-size="14" text-anchor="start">Public:</text><text x="394.536" y="-17.1" fill="#000" font-family="Times,serif" font-size="14" text-anchor="start">constructor(name_: string, symbol_: string, initialBalance_: uint256, feeReceiver_: address)</text></g><g id="edge5" class="edge"><title>7-&gt;3</title><path fill="none" stroke="#000" d="M563.1039,-100.3151C545.6678,-109.839 527.6657,-120.475 507.1738,-134.6263"/><polygon fill="none" stroke="#000" points="501.014 -126.123 482.877 -152.225 513.333 -143.13 501.014 -126.123"/></g><g id="edge6" class="edge"><title>7-&gt;5</title><path fill="none" stroke="#000" d="M659.2999,-100.2075C659.2999,-149.8282 659.2999,-230.1667 659.2999,-291.3498"/><polygon fill="none" stroke="#000" points="648.8 -291.763 659.3 -321.763 669.8 -291.763 648.8 -291.763"/></g><g id="edge7" class="edge"><title>7-&gt;6</title><path fill="none" stroke="#000" d="M768.62,-100.3389C789.576,-112.6327 810.0262,-127.4854 826.2999,-145 858.5782,-179.7396 882.1188,-226.1942 898.5545,-268.3252"/><polygon fill="none" stroke="#000" points="888.713 -271.987 908.818 -296.605 908.453 -264.823 888.713 -271.987"/></g></g></svg>