<svg xmlns="http://www.w3.org/2000/svg" xmlns:xlink="http://www.w3.org/1999/xlink" width="926pt" height="1668" viewBox="0 0 925.99 1251.4"><g id="graph0" class="graph" transform="scale(1 1) rotate(0) translate(4 1247.4)"><title>UmlClassDiagram</title><polygon fill="#fff" stroke="transparent" points="-4 4 -4 -1247.4 921.989 -1247.4 921.989 4 -4 4"/><g id="node1" class="node"><title>0</title><polygon fill="#f2f2f2" stroke="#000" points="0 -1000.5 0 -1242.9 438.6 -1242.9 438.6 -1000.5 0 -1000.5"/><text x="219.3" y="-1226.3" fill="#000" font-family="Times,serif" font-size="14" text-anchor="middle">&lt;&lt;Interface&gt;&gt;</text><text x="219.3" y="-1209.5" fill="#000" font-family="Times,serif" font-size="14" text-anchor="middle">IERC20</text><polyline fill="none" stroke="#000" points="0 -1201.3 438.6 -1201.3"/><polyline fill="none" stroke="#000" points="0 -1176.5 438.6 -1176.5"/><text x="8" y="-1159.9" fill="#000" font-family="Times,serif" font-size="14" text-anchor="start">External:</text><text x="8" y="-1143.1" fill="#000" font-family="Times,serif" font-size="14" text-anchor="start">totalSupply(): uint256</text><text x="8" y="-1126.3" fill="#000" font-family="Times,serif" font-size="14" text-anchor="start">balanceOf(account: address): uint256</text><text x="8" y="-1109.5" fill="#000" font-family="Times,serif" font-size="14" text-anchor="start">transfer(recipient: address, amount: uint256): bool</text><text x="8" y="-1092.7" fill="#000" font-family="Times,serif" font-size="14" text-anchor="start">allowance(owner: address, spender: address): uint256</text><text x="8" y="-1075.9" fill="#000" font-family="Times,serif" font-size="14" text-anchor="start">approve(spender: address, amount: uint256): bool</text><text x="8" y="-1059.1" fill="#000" font-family="Times,serif" font-size="14" text-anchor="start">transferFrom(sender: address, recipient: address, amount: uint256): bool</text><text x="8" y="-1042.3" fill="#000" font-family="Times,serif" font-size="14" text-anchor="start">Public:</text><text x="8" y="-1025.5" fill="#000" font-family="Times,serif" font-size="14" text-anchor="start">&lt;&lt;event&gt;&gt; Transfer(from: address, to: address, value: uint256)</text><text x="8" y="-1008.7" fill="#000" font-family="Times,serif" font-size="14" text-anchor="start">&lt;&lt;event&gt;&gt; Approval(owner: address, spender: address, value: uint256)</text></g><g id="node2" class="node"><title>1</title><polygon fill="#f2f2f2" stroke="#000" points="200.923 -821.9 200.923 -963.5 329.676 -963.5 329.676 -821.9 200.923 -821.9"/><text x="265.3" y="-946.9" fill="#000" font-family="Times,serif" font-size="14" text-anchor="middle">&lt;&lt;Interface&gt;&gt;</text><text x="265.3" y="-930.1" fill="#000" font-family="Times,serif" font-size="14" text-anchor="middle">IERC20Metadata</text><polyline fill="none" stroke="#000" points="200.923 -921.9 329.676 -921.9"/><polyline fill="none" stroke="#000" points="200.923 -897.1 329.676 -897.1"/><text x="208.923" y="-880.5" fill="#000" font-family="Times,serif" font-size="14" text-anchor="start">External:</text><text x="208.923" y="-863.7" fill="#000" font-family="Times,serif" font-size="14" text-anchor="start">name(): string</text><text x="208.923" y="-846.9" fill="#000" font-family="Times,serif" font-size="14" text-anchor="start">symbol(): string</text><text x="208.923" y="-830.1" fill="#000" font-family="Times,serif" font-size="14" text-anchor="start">decimals(): uint8</text></g><g id="edge1" class="edge"><title>1-&gt;0</title><path fill="none" stroke="#000" stroke-dasharray="5 2" d="M251.0602,-963.5888C250.6016,-965.8721 250.1374,-968.1827 249.6687,-970.516"/><polygon fill="none" stroke="#000" points="239.32 -968.719 243.706 -1000.199 259.909 -972.855 239.32 -968.719"/></g><g id="node3" class="node"><title>2</title><polygon fill="#f2f2f2" stroke="#000" points="347.351 -830.3 347.351 -955.1 505.249 -955.1 505.249 -830.3 347.351 -830.3"/><text x="426.3" y="-938.5" fill="#000" font-family="Times,serif" font-size="14" text-anchor="middle">&lt;&lt;Abstract&gt;&gt;</text><text x="426.3" y="-921.7" fill="#000" font-family="Times,serif" font-size="14" text-anchor="middle">Context</text><polyline fill="none" stroke="#000" points="347.351 -913.5 505.249 -913.5"/><polyline fill="none" stroke="#000" points="347.351 -888.7 505.249 -888.7"/><text x="355.351" y="-872.1" fill="#000" font-family="Times,serif" font-size="14" text-anchor="start">Internal:</text><text x="355.351" y="-855.3" fill="#000" font-family="Times,serif" font-size="14" text-anchor="start">_msgSender(): address</text><text x="355.351" y="-838.5" fill="#000" font-family="Times,serif" font-size="14" text-anchor="start">_msgData(): bytes</text></g><g id="node4" class="node"><title>3</title><polygon fill="#f2f2f2" stroke="#000" points="47.75 -324.1 47.75 -784.9 482.85 -784.9 482.85 -324.1 47.75 -324.1"/><text x="265.3" y="-768.3" fill="#000" font-family="Times,serif" font-size="14" text-anchor="middle">ERC20</text><polyline fill="none" stroke="#000" points="47.75 -760.1 482.85 -760.1"/><text x="55.75" y="-743.5" fill="#000" font-family="Times,serif" font-size="14" text-anchor="start">Private:</text><text x="55.75" y="-726.7" fill="#000" font-family="Times,serif" font-size="14" text-anchor="start">_balances: mapping(address=&gt;uint256)</text><text x="55.75" y="-709.9" fill="#000" font-family="Times,serif" font-size="14" text-anchor="start">_allowances: mapping(address=&gt;mapping(address=&gt;uint256))</text><text x="55.75" y="-693.1" fill="#000" font-family="Times,serif" font-size="14" text-anchor="start">_totalSupply: uint256</text><text x="55.75" y="-676.3" fill="#000" font-family="Times,serif" font-size="14" text-anchor="start">_name: string</text><text x="55.75" y="-659.5" fill="#000" font-family="Times,serif" font-size="14" text-anchor="start">_symbol: string</text><polyline fill="none" stroke="#000" points="47.75 -651.3 482.85 -651.3"/><text x="55.75" y="-634.7" fill="#000" font-family="Times,serif" font-size="14" text-anchor="start">Internal:</text><text x="55.75" y="-617.9" fill="#000" font-family="Times,serif" font-size="14" text-anchor="start">_transfer(sender: address, recipient: address, amount: uint256)</text><text x="55.75" y="-601.1" fill="#000" font-family="Times,serif" font-size="14" text-anchor="start">_mint(account: address, amount: uint256)</text><text x="55.75" y="-584.3" fill="#000" font-family="Times,serif" font-size="14" text-anchor="start">_burn(account: address, amount: uint256)</text><text x="55.75" y="-567.5" fill="#000" font-family="Times,serif" font-size="14" text-anchor="start">_approve(owner: address, spender: address, amount: uint256)</text><text x="55.75" y="-550.7" fill="#000" font-family="Times,serif" font-size="14" text-anchor="start">_beforeTokenTransfer(from: address, to: address, amount: uint256)</text><text x="55.75" y="-533.9" fill="#000" font-family="Times,serif" font-size="14" text-anchor="start">Public:</text><text x="55.75" y="-517.1" fill="#000" font-family="Times,serif" font-size="14" text-anchor="start">constructor(name_: string, symbol_: string)</text><text x="55.75" y="-500.3" fill="#000" font-family="Times,serif" font-size="14" text-anchor="start">name(): string</text><text x="55.75" y="-483.5" fill="#000" font-family="Times,serif" font-size="14" text-anchor="start">symbol(): string</text><text x="55.75" y="-466.7" fill="#000" font-family="Times,serif" font-size="14" text-anchor="start">decimals(): uint8</text><text x="55.75" y="-449.9" fill="#000" font-family="Times,serif" font-size="14" text-anchor="start">totalSupply(): uint256</text><text x="55.75" y="-433.1" fill="#000" font-family="Times,serif" font-size="14" text-anchor="start">balanceOf(account: address): uint256</text><text x="55.75" y="-416.3" fill="#000" font-family="Times,serif" font-size="14" text-anchor="start">transfer(recipient: address, amount: uint256): bool</text><text x="55.75" y="-399.5" fill="#000" font-family="Times,serif" font-size="14" text-anchor="start">allowance(owner: address, spender: address): uint256</text><text x="55.75" y="-382.7" fill="#000" font-family="Times,serif" font-size="14" text-anchor="start">approve(spender: address, amount: uint256): bool</text><text x="55.75" y="-365.9" fill="#000" font-family="Times,serif" font-size="14" text-anchor="start">transferFrom(sender: address, recipient: address, amount: uint256): bool</text><text x="55.75" y="-349.1" fill="#000" font-family="Times,serif" font-size="14" text-anchor="start">increaseAllowance(spender: address, addedValue: uint256): bool</text><text x="55.75" y="-332.3" fill="#000" font-family="Times,serif" font-size="14" text-anchor="start">decreaseAllowance(spender: address, subtractedValue: uint256): bool</text></g><g id="edge3" class="edge"><title>3-&gt;0</title><path fill="none" stroke="#000" stroke-dasharray="5 2" d="M198.1569,-785.1863C195.8807,-797.3737 193.8983,-809.4972 192.2999,-821.4 183.8647,-884.2139 186.9329,-900.8499 192.2999,-964 192.4717,-966.0217 192.6557,-968.0565 192.8511,-970.1018"/><polygon fill="none" stroke="#000" points="182.451 -971.566 196.371 -1000.14 203.308 -969.122 182.451 -971.566"/></g><g id="edge4" class="edge"><title>3-&gt;1</title><path fill="none" stroke="#000" stroke-dasharray="5 2" d="M265.2999,-785.2267C265.2999,-787.3298 265.2999,-789.4182 265.2999,-791.4902"/><polygon fill="none" stroke="#000" points="254.8 -791.685 265.3 -821.685 275.8 -791.685 254.8 -791.685"/></g><g id="edge2" class="edge"><title>3-&gt;2</title><path fill="none" stroke="#000" d="M375.1373,-785.2267C378.0082,-791.2574 380.8214,-797.1669 383.5593,-802.9182"/><polygon fill="none" stroke="#000" points="374.164 -807.61 396.539 -830.184 393.125 -798.583 374.164 -807.61"/></g><g id="node5" class="node"><title>4</title><polygon fill="#f2f2f2" stroke="#000" points="167.685 -145.5 167.685 -287.1 362.915 -287.1 362.915 -145.5 167.685 -145.5"/><text x="265.3" y="-270.5" fill="#000" font-family="Times,serif" font-size="14" text-anchor="middle">&lt;&lt;Abstract&gt;&gt;</text><text x="265.3" y="-253.7" fill="#000" font-family="Times,serif" font-size="14" text-anchor="middle">ERC20Decimals</text><polyline fill="none" stroke="#000" points="167.685 -245.5 362.915 -245.5"/><text x="175.685" y="-228.9" fill="#000" font-family="Times,serif" font-size="14" text-anchor="start">Private:</text><text x="175.685" y="-212.1" fill="#000" font-family="Times,serif" font-size="14" text-anchor="start">_decimals: uint8</text><polyline fill="none" stroke="#000" points="167.685 -203.9 362.915 -203.9"/><text x="175.685" y="-187.3" fill="#000" font-family="Times,serif" font-size="14" text-anchor="start">Public:</text><text x="175.685" y="-170.5" fill="#000" font-family="Times,serif" font-size="14" text-anchor="start">constructor(decimals_: uint8)</text><text x="175.685" y="-153.7" fill="#000" font-family="Times,serif" font-size="14" text-anchor="start">decimals(): uint8</text></g><g id="edge5" class="edge"><title>4-&gt;3</title><path fill="none" stroke="#000" d="M265.2999,-287.1978C265.2999,-289.3405 265.2999,-291.5155 265.2999,-293.7202"/><polygon fill="none" stroke="#000" points="254.8 -293.866 265.3 -323.866 275.8 -293.866 254.8 -293.866"/></g><g id="node6" class="node"><title>5</title><polygon fill="#f2f2f2" stroke="#000" points="742.611 -.5 742.611 -108.5 917.989 -108.5 917.989 -.5 742.611 -.5"/><text x="830.3" y="-91.9" fill="#000" font-family="Times,serif" font-size="14" text-anchor="middle">&lt;&lt;Interface&gt;&gt;</text><text x="830.3" y="-75.1" fill="#000" font-family="Times,serif" font-size="14" text-anchor="middle">IPayable</text><polyline fill="none" stroke="#000" points="742.611 -66.9 917.989 -66.9"/><polyline fill="none" stroke="#000" points="742.611 -42.1 917.989 -42.1"/><text x="750.611" y="-25.5" fill="#000" font-family="Times,serif" font-size="14" text-anchor="start">External:</text><text x="750.611" y="-8.7" fill="#000" font-family="Times,serif" font-size="14" text-anchor="start">pay(serviceName: string)</text></g><g id="node7" class="node"><title>6</title><polygon fill="#f2f2f2" stroke="#000" points="381.26 -162.3 381.26 -270.3 697.34 -270.3 697.34 -162.3 381.26 -162.3"/><text x="539.3" y="-253.7" fill="#000" font-family="Times,serif" font-size="14" text-anchor="middle">&lt;&lt;Abstract&gt;&gt;</text><text x="539.3" y="-236.9" fill="#000" font-family="Times,serif" font-size="14" text-anchor="middle">ServicePayer</text><polyline fill="none" stroke="#000" points="381.26 -228.7 697.34 -228.7"/><polyline fill="none" stroke="#000" points="381.26 -203.9 697.34 -203.9"/><text x="389.26" y="-187.3" fill="#000" font-family="Times,serif" font-size="14" text-anchor="start">Public:</text><text x="389.26" y="-170.5" fill="#000" font-family="Times,serif" font-size="14" text-anchor="start">constructor(receiver: address, serviceName: string)</text></g><g id="node8" class="node"><title>7</title><polygon fill="#f2f2f2" stroke="#000" points="79.57 -.5 79.57 -108.5 725.03 -108.5 725.03 -.5 79.57 -.5"/><text x="402.3" y="-91.9" fill="#000" font-family="Times,serif" font-size="14" text-anchor="middle">StandardERC20</text><polyline fill="none" stroke="#000" points="79.57 -83.7 725.03 -83.7"/><polyline fill="none" stroke="#000" points="79.57 -58.9 725.03 -58.9"/><text x="87.57" y="-42.3" fill="#000" font-family="Times,serif" font-size="14" text-anchor="start">Public:</text><text x="87.57" y="-25.5" fill="#000" font-family="Times,serif" font-size="14" text-anchor="start">constructor(name_: string, symbol_: string, decimals_: uint8, initialBalance_: uint256, feeReceiver_: address)</text><text x="87.57" y="-8.7" fill="#000" font-family="Times,serif" font-size="14" text-anchor="start">decimals(): uint8</text></g><g id="edge6" class="edge"><title>7-&gt;4</title><path fill="none" stroke="#000" d="M356.2998,-108.8272C352.5685,-113.2338 348.7371,-117.7589 344.857,-122.3413"/><polygon fill="none" stroke="#000" points="336.663 -115.77 325.29 -145.45 352.69 -129.34 336.663 -115.77"/></g><g id="edge7" class="edge"><title>7-&gt;6</title><path fill="none" stroke="#000" d="M448.3,-108.8272C456.4767,-118.484 465.1345,-128.7091 473.7307,-138.8614"/><polygon fill="none" stroke="#000" points="466.022 -146.006 493.421 -162.116 482.049 -132.436 466.022 -146.006"/></g></g></svg>