<svg xmlns="http://www.w3.org/2000/svg" xmlns:xlink="http://www.w3.org/1999/xlink" width="1879pt" height="1436pt" viewBox="0 0 1879.2 1436.2"><g id="graph0" class="graph" transform="scale(1 1) rotate(0) translate(4 1432.2)"><title>UmlClassDiagram</title><polygon fill="#fff" stroke="transparent" points="-4 4 -4 -1432.2 1875.204 -1432.2 1875.204 4 -4 4"/><g id="node1" class="node"><title>0</title><polygon fill="#f2f2f2" stroke="#000" points="640.665 -998.3 640.665 -1123.1 798.564 -1123.1 798.564 -998.3 640.665 -998.3"/><text x="719.615" y="-1106.5" fill="#000" font-family="Times,serif" font-size="14" text-anchor="middle">&lt;&lt;Abstract&gt;&gt;</text><text x="719.615" y="-1089.7" fill="#000" font-family="Times,serif" font-size="14" text-anchor="middle">Context</text><polyline fill="none" stroke="#000" points="640.665 -1081.5 798.564 -1081.5"/><polyline fill="none" stroke="#000" points="640.665 -1056.7 798.564 -1056.7"/><text x="648.665" y="-1040.1" fill="#000" font-family="Times,serif" font-size="14" text-anchor="start">Internal:</text><text x="648.665" y="-1023.3" fill="#000" font-family="Times,serif" font-size="14" text-anchor="start">_msgSender(): address</text><text x="648.665" y="-1006.5" fill="#000" font-family="Times,serif" font-size="14" text-anchor="start">_msgData(): bytes</text></g><g id="node2" class="node"><title>1</title><polygon fill="#f2f2f2" stroke="#000" points="615.178 -601.3 615.178 -810.1 1100.052 -810.1 1100.052 -601.3 615.178 -601.3"/><text x="857.615" y="-793.5" fill="#000" font-family="Times,serif" font-size="14" text-anchor="middle">&lt;&lt;Abstract&gt;&gt;</text><text x="857.615" y="-776.7" fill="#000" font-family="Times,serif" font-size="14" text-anchor="middle">Ownable</text><polyline fill="none" stroke="#000" points="615.178 -768.5 1100.052 -768.5"/><text x="623.178" y="-751.9" fill="#000" font-family="Times,serif" font-size="14" text-anchor="start">Private:</text><text x="623.178" y="-735.1" fill="#000" font-family="Times,serif" font-size="14" text-anchor="start">_owner: address</text><polyline fill="none" stroke="#000" points="615.178 -726.9 1100.052 -726.9"/><text x="623.178" y="-710.3" fill="#000" font-family="Times,serif" font-size="14" text-anchor="start">Public:</text><text x="623.178" y="-693.5" fill="#000" font-family="Times,serif" font-size="14" text-anchor="start">&lt;&lt;event&gt;&gt; OwnershipTransferred(previousOwner: address, newOwner: address)</text><text x="623.178" y="-676.7" fill="#000" font-family="Times,serif" font-size="14" text-anchor="start">&lt;&lt;modifier&gt;&gt; onlyOwner()</text><text x="623.178" y="-659.9" fill="#000" font-family="Times,serif" font-size="14" text-anchor="start">constructor()</text><text x="623.178" y="-643.1" fill="#000" font-family="Times,serif" font-size="14" text-anchor="start">owner(): address</text><text x="623.178" y="-626.3" fill="#000" font-family="Times,serif" font-size="14" text-anchor="start">renounceOwnership()</text><text x="623.178" y="-609.5" fill="#000" font-family="Times,serif" font-size="14" text-anchor="start">transferOwnership(newOwner: address)</text></g><g id="edge2" class="edge"><title>1-&gt;0</title><path fill="none" stroke="#000" d="M816.9565,-810.2916C797.2569,-860.9682 773.8268,-921.2414 754.8905,-969.9542"/><polygon fill="none" stroke="#000" points="744.98 -966.469 743.897 -998.235 764.553 -974.078 744.98 -966.469"/></g><g id="node3" class="node"><title>2</title><polygon fill="#f2f2f2" stroke="#000" points="122.315 -1185.3 122.315 -1427.7 560.915 -1427.7 560.915 -1185.3 122.315 -1185.3"/><text x="341.615" y="-1411.1" fill="#000" font-family="Times,serif" font-size="14" text-anchor="middle">&lt;&lt;Interface&gt;&gt;</text><text x="341.615" y="-1394.3" fill="#000" font-family="Times,serif" font-size="14" text-anchor="middle">IERC20</text><polyline fill="none" stroke="#000" points="122.315 -1386.1 560.915 -1386.1"/><polyline fill="none" stroke="#000" points="122.315 -1361.3 560.915 -1361.3"/><text x="130.315" y="-1344.7" fill="#000" font-family="Times,serif" font-size="14" text-anchor="start">External:</text><text x="130.315" y="-1327.9" fill="#000" font-family="Times,serif" font-size="14" text-anchor="start">totalSupply(): uint256</text><text x="130.315" y="-1311.1" fill="#000" font-family="Times,serif" font-size="14" text-anchor="start">balanceOf(account: address): uint256</text><text x="130.315" y="-1294.3" fill="#000" font-family="Times,serif" font-size="14" text-anchor="start">transfer(recipient: address, amount: uint256): bool</text><text x="130.315" y="-1277.5" fill="#000" font-family="Times,serif" font-size="14" text-anchor="start">allowance(owner: address, spender: address): uint256</text><text x="130.315" y="-1260.7" fill="#000" font-family="Times,serif" font-size="14" text-anchor="start">approve(spender: address, amount: uint256): bool</text><text x="130.315" y="-1243.9" fill="#000" font-family="Times,serif" font-size="14" text-anchor="start">transferFrom(sender: address, recipient: address, amount: uint256): bool</text><text x="130.315" y="-1227.1" fill="#000" font-family="Times,serif" font-size="14" text-anchor="start">Public:</text><text x="130.315" y="-1210.3" fill="#000" font-family="Times,serif" font-size="14" text-anchor="start">&lt;&lt;event&gt;&gt; Transfer(from: address, to: address, value: uint256)</text><text x="130.315" y="-1193.5" fill="#000" font-family="Times,serif" font-size="14" text-anchor="start">&lt;&lt;event&gt;&gt; Approval(owner: address, spender: address, value: uint256)</text></g><g id="node4" class="node"><title>3</title><polygon fill="#f2f2f2" stroke="#000" points="231.238 -989.9 231.238 -1131.5 359.991 -1131.5 359.991 -989.9 231.238 -989.9"/><text x="295.615" y="-1114.9" fill="#000" font-family="Times,serif" font-size="14" text-anchor="middle">&lt;&lt;Interface&gt;&gt;</text><text x="295.615" y="-1098.1" fill="#000" font-family="Times,serif" font-size="14" text-anchor="middle">IERC20Metadata</text><polyline fill="none" stroke="#000" points="231.238 -1089.9 359.991 -1089.9"/><polyline fill="none" stroke="#000" points="231.238 -1065.1 359.991 -1065.1"/><text x="239.238" y="-1048.5" fill="#000" font-family="Times,serif" font-size="14" text-anchor="start">External:</text><text x="239.238" y="-1031.7" fill="#000" font-family="Times,serif" font-size="14" text-anchor="start">name(): string</text><text x="239.238" y="-1014.9" fill="#000" font-family="Times,serif" font-size="14" text-anchor="start">symbol(): string</text><text x="239.238" y="-998.1" fill="#000" font-family="Times,serif" font-size="14" text-anchor="start">decimals(): uint8</text></g><g id="edge3" class="edge"><title>3-&gt;2</title><path fill="none" stroke="#000" stroke-dasharray="5 2" d="M308.9198,-1131.7955C310.3386,-1139.3766 311.8176,-1147.2796 313.3287,-1155.3546"/><polygon fill="none" stroke="#000" points="303.052 -1157.523 318.892 -1185.08 323.694 -1153.66 303.052 -1157.523"/></g><g id="node5" class="node"><title>4</title><polygon fill="#f2f2f2" stroke="#000" points="124.065 -475.3 124.065 -936.1 559.165 -936.1 559.165 -475.3 124.065 -475.3"/><text x="341.615" y="-919.5" fill="#000" font-family="Times,serif" font-size="14" text-anchor="middle">ERC20</text><polyline fill="none" stroke="#000" points="124.065 -911.3 559.165 -911.3"/><text x="132.065" y="-894.7" fill="#000" font-family="Times,serif" font-size="14" text-anchor="start">Private:</text><text x="132.065" y="-877.9" fill="#000" font-family="Times,serif" font-size="14" text-anchor="start">_balances: mapping(address=&gt;uint256)</text><text x="132.065" y="-861.1" fill="#000" font-family="Times,serif" font-size="14" text-anchor="start">_allowances: mapping(address=&gt;mapping(address=&gt;uint256))</text><text x="132.065" y="-844.3" fill="#000" font-family="Times,serif" font-size="14" text-anchor="start">_totalSupply: uint256</text><text x="132.065" y="-827.5" fill="#000" font-family="Times,serif" font-size="14" text-anchor="start">_name: string</text><text x="132.065" y="-810.7" fill="#000" font-family="Times,serif" font-size="14" text-anchor="start">_symbol: string</text><polyline fill="none" stroke="#000" points="124.065 -802.5 559.165 -802.5"/><text x="132.065" y="-785.9" fill="#000" font-family="Times,serif" font-size="14" text-anchor="start">Internal:</text><text x="132.065" y="-769.1" fill="#000" font-family="Times,serif" font-size="14" text-anchor="start">_transfer(sender: address, recipient: address, amount: uint256)</text><text x="132.065" y="-752.3" fill="#000" font-family="Times,serif" font-size="14" text-anchor="start">_mint(account: address, amount: uint256)</text><text x="132.065" y="-735.5" fill="#000" font-family="Times,serif" font-size="14" text-anchor="start">_burn(account: address, amount: uint256)</text><text x="132.065" y="-718.7" fill="#000" font-family="Times,serif" font-size="14" text-anchor="start">_approve(owner: address, spender: address, amount: uint256)</text><text x="132.065" y="-701.9" fill="#000" font-family="Times,serif" font-size="14" text-anchor="start">_beforeTokenTransfer(from: address, to: address, amount: uint256)</text><text x="132.065" y="-685.1" fill="#000" font-family="Times,serif" font-size="14" text-anchor="start">Public:</text><text x="132.065" y="-668.3" fill="#000" font-family="Times,serif" font-size="14" text-anchor="start">constructor(name_: string, symbol_: string)</text><text x="132.065" y="-651.5" fill="#000" font-family="Times,serif" font-size="14" text-anchor="start">name(): string</text><text x="132.065" y="-634.7" fill="#000" font-family="Times,serif" font-size="14" text-anchor="start">symbol(): string</text><text x="132.065" y="-617.9" fill="#000" font-family="Times,serif" font-size="14" text-anchor="start">decimals(): uint8</text><text x="132.065" y="-601.1" fill="#000" font-family="Times,serif" font-size="14" text-anchor="start">totalSupply(): uint256</text><text x="132.065" y="-584.3" fill="#000" font-family="Times,serif" font-size="14" text-anchor="start">balanceOf(account: address): uint256</text><text x="132.065" y="-567.5" fill="#000" font-family="Times,serif" font-size="14" text-anchor="start">transfer(recipient: address, amount: uint256): bool</text><text x="132.065" y="-550.7" fill="#000" font-family="Times,serif" font-size="14" text-anchor="start">allowance(owner: address, spender: address): uint256</text><text x="132.065" y="-533.9" fill="#000" font-family="Times,serif" font-size="14" text-anchor="start">approve(spender: address, amount: uint256): bool</text><text x="132.065" y="-517.1" fill="#000" font-family="Times,serif" font-size="14" text-anchor="start">transferFrom(sender: address, recipient: address, amount: uint256): bool</text><text x="132.065" y="-500.3" fill="#000" font-family="Times,serif" font-size="14" text-anchor="start">increaseAllowance(spender: address, addedValue: uint256): bool</text><text x="132.065" y="-483.5" fill="#000" font-family="Times,serif" font-size="14" text-anchor="start">decreaseAllowance(spender: address, subtractedValue: uint256): bool</text></g><g id="edge4" class="edge"><title>4-&gt;0</title><path fill="none" stroke="#000" d="M559.4089,-923.4324C564.1706,-927.8777 568.9099,-932.2716 573.6147,-936.6 588.5831,-950.371 604.7296,-964.6428 620.6375,-978.3907"/><polygon fill="none" stroke="#000" points="613.986 -986.518 643.609 -998.039 627.636 -970.559 613.986 -986.518"/></g><g id="edge5" class="edge"><title>4-&gt;2</title><path fill="none" stroke="#000" stroke-dasharray="5 2" d="M368.378,-936.1154C372.8996,-1004.6119 374.4803,-1079.7824 368.6147,-1148.8 368.4429,-1150.8217 368.2589,-1152.8565 368.0635,-1154.9018"/><polygon fill="none" stroke="#000" points="357.607 -1153.922 364.543 -1184.94 378.464 -1156.366 357.607 -1153.922"/></g><g id="edge6" class="edge"><title>4-&gt;3</title><path fill="none" stroke="#000" stroke-dasharray="5 2" d="M311.7033,-936.5382C310.6872,-944.3796 309.691,-952.0679 308.7236,-959.5336"/><polygon fill="none" stroke="#000" points="298.258 -958.593 304.815 -989.694 319.084 -961.292 298.258 -958.593"/></g><g id="node6" class="node"><title>5</title><polygon fill="#f2f2f2" stroke="#000" points="487.921 -254.7 487.921 -379.5 775.308 -379.5 775.308 -254.7 487.921 -254.7"/><text x="631.615" y="-362.9" fill="#000" font-family="Times,serif" font-size="14" text-anchor="middle">&lt;&lt;Abstract&gt;&gt;</text><text x="631.615" y="-346.1" fill="#000" font-family="Times,serif" font-size="14" text-anchor="middle">ERC20Burnable</text><polyline fill="none" stroke="#000" points="487.921 -337.9 775.308 -337.9"/><polyline fill="none" stroke="#000" points="487.921 -313.1 775.308 -313.1"/><text x="495.921" y="-296.5" fill="#000" font-family="Times,serif" font-size="14" text-anchor="start">Public:</text><text x="495.921" y="-279.7" fill="#000" font-family="Times,serif" font-size="14" text-anchor="start">burn(amount: uint256)</text><text x="495.921" y="-262.9" fill="#000" font-family="Times,serif" font-size="14" text-anchor="start">burnFrom(account: address, amount: uint256)</text></g><g id="edge7" class="edge"><title>5-&gt;0</title><path fill="none" stroke="#000" d="M619.3627,-379.7558C614.3253,-408.5782 609.0963,-443.2964 606.6147,-474.8 590.497,-679.4106 532.5275,-745.1937 606.6147,-936.6 611.73,-949.8155 618.9799,-962.4885 627.3687,-974.3483"/><polygon fill="none" stroke="#000" points="619.535 -981.363 646.508 -998.177 635.908 -968.212 619.535 -981.363"/></g><g id="edge8" class="edge"><title>5-&gt;4</title><path fill="none" stroke="#000" d="M585.0212,-379.5353C569.5756,-400.2324 551.3093,-424.7092 531.8337,-450.8066"/><polygon fill="none" stroke="#000" points="523.182 -444.844 513.654 -475.167 540.012 -457.404 523.182 -444.844"/></g><g id="node7" class="node"><title>6</title><polygon fill="#f2f2f2" stroke="#000" points="0 -246.3 0 -387.9 195.229 -387.9 195.229 -246.3 0 -246.3"/><text x="97.615" y="-371.3" fill="#000" font-family="Times,serif" font-size="14" text-anchor="middle">&lt;&lt;Abstract&gt;&gt;</text><text x="97.615" y="-354.5" fill="#000" font-family="Times,serif" font-size="14" text-anchor="middle">ERC20Decimals</text><polyline fill="none" stroke="#000" points="0 -346.3 195.229 -346.3"/><text x="8" y="-329.7" fill="#000" font-family="Times,serif" font-size="14" text-anchor="start">Private:</text><text x="8" y="-312.9" fill="#000" font-family="Times,serif" font-size="14" text-anchor="start">_decimals: uint8</text><polyline fill="none" stroke="#000" points="0 -304.7 195.229 -304.7"/><text x="8" y="-288.1" fill="#000" font-family="Times,serif" font-size="14" text-anchor="start">Public:</text><text x="8" y="-271.3" fill="#000" font-family="Times,serif" font-size="14" text-anchor="start">constructor(decimals_: uint8)</text><text x="8" y="-254.5" fill="#000" font-family="Times,serif" font-size="14" text-anchor="start">decimals(): uint8</text></g><g id="edge9" class="edge"><title>6-&gt;4</title><path fill="none" stroke="#000" d="M142.0843,-387.9234C153.6694,-406.374 166.847,-427.361 180.7791,-449.5495"/><polygon fill="none" stroke="#000" points="171.939 -455.217 196.785 -475.04 189.724 -444.05 171.939 -455.217"/></g><g id="node8" class="node"><title>7</title><polygon fill="#f2f2f2" stroke="#000" points="213.082 -195.9 213.082 -438.3 470.147 -438.3 470.147 -195.9 213.082 -195.9"/><text x="341.615" y="-421.7" fill="#000" font-family="Times,serif" font-size="14" text-anchor="middle">&lt;&lt;Abstract&gt;&gt;</text><text x="341.615" y="-404.9" fill="#000" font-family="Times,serif" font-size="14" text-anchor="middle">ERC20Mintable</text><polyline fill="none" stroke="#000" points="213.082 -396.7 470.147 -396.7"/><text x="221.082" y="-380.1" fill="#000" font-family="Times,serif" font-size="14" text-anchor="start">Private:</text><text x="221.082" y="-363.3" fill="#000" font-family="Times,serif" font-size="14" text-anchor="start">_mintingFinished: bool</text><polyline fill="none" stroke="#000" points="213.082 -355.1 470.147 -355.1"/><text x="221.082" y="-338.5" fill="#000" font-family="Times,serif" font-size="14" text-anchor="start">Internal:</text><text x="221.082" y="-321.7" fill="#000" font-family="Times,serif" font-size="14" text-anchor="start">_finishMinting()</text><text x="221.082" y="-304.9" fill="#000" font-family="Times,serif" font-size="14" text-anchor="start">External:</text><text x="221.082" y="-288.1" fill="#000" font-family="Times,serif" font-size="14" text-anchor="start">mintingFinished(): bool</text><text x="221.082" y="-271.3" fill="#000" font-family="Times,serif" font-size="14" text-anchor="start">mint(account: address, amount: uint256)</text><text x="221.082" y="-254.5" fill="#000" font-family="Times,serif" font-size="14" text-anchor="start">finishMinting()</text><text x="221.082" y="-237.7" fill="#000" font-family="Times,serif" font-size="14" text-anchor="start">Public:</text><text x="221.082" y="-220.9" fill="#000" font-family="Times,serif" font-size="14" text-anchor="start">&lt;&lt;event&gt;&gt; MintFinished()</text><text x="221.082" y="-204.1" fill="#000" font-family="Times,serif" font-size="14" text-anchor="start">&lt;&lt;modifier&gt;&gt; canMint()</text></g><g id="edge10" class="edge"><title>7-&gt;4</title><path fill="none" stroke="#000" d="M341.6147,-438.457C341.6147,-440.6909 341.6147,-442.9399 341.6147,-445.2024"/><polygon fill="none" stroke="#000" points="331.115 -445.264 341.615 -475.264 352.115 -445.264 331.115 -445.264"/></g><g id="node9" class="node"><title>8</title><polygon fill="#f2f2f2" stroke="#000" points="948.768 -981.5 948.768 -1139.9 1268.461 -1139.9 1268.461 -981.5 948.768 -981.5"/><text x="1108.615" y="-1123.3" fill="#000" font-family="Times,serif" font-size="14" text-anchor="middle">&lt;&lt;Library&gt;&gt;</text><text x="1108.615" y="-1106.5" fill="#000" font-family="Times,serif" font-size="14" text-anchor="middle">Strings</text><polyline fill="none" stroke="#000" points="948.768 -1098.3 1268.461 -1098.3"/><text x="956.768" y="-1081.7" fill="#000" font-family="Times,serif" font-size="14" text-anchor="start">Private:</text><text x="956.768" y="-1064.9" fill="#000" font-family="Times,serif" font-size="14" text-anchor="start">alphabet: bytes16</text><polyline fill="none" stroke="#000" points="948.768 -1056.7 1268.461 -1056.7"/><text x="956.768" y="-1040.1" fill="#000" font-family="Times,serif" font-size="14" text-anchor="start">Internal:</text><text x="956.768" y="-1023.3" fill="#000" font-family="Times,serif" font-size="14" text-anchor="start">toString(value: uint256): string</text><text x="956.768" y="-1006.5" fill="#000" font-family="Times,serif" font-size="14" text-anchor="start">toHexString(value: uint256): string</text><text x="956.768" y="-989.7" fill="#000" font-family="Times,serif" font-size="14" text-anchor="start">toHexString(value: uint256, length: uint256): string</text></g><g id="node10" class="node"><title>9</title><polygon fill="#f2f2f2" stroke="#000" points="1285.197 -1252.5 1285.197 -1360.5 1562.032 -1360.5 1562.032 -1252.5 1285.197 -1252.5"/><text x="1423.615" y="-1343.9" fill="#000" font-family="Times,serif" font-size="14" text-anchor="middle">&lt;&lt;Interface&gt;&gt;</text><text x="1423.615" y="-1327.1" fill="#000" font-family="Times,serif" font-size="14" text-anchor="middle">IERC165</text><polyline fill="none" stroke="#000" points="1285.197 -1318.9 1562.032 -1318.9"/><polyline fill="none" stroke="#000" points="1285.197 -1294.1 1562.032 -1294.1"/><text x="1293.197" y="-1277.5" fill="#000" font-family="Times,serif" font-size="14" text-anchor="start">External:</text><text x="1293.197" y="-1260.7" fill="#000" font-family="Times,serif" font-size="14" text-anchor="start">supportsInterface(interfaceId: bytes4): bool</text></g><g id="node11" class="node"><title>10</title><polygon fill="#f2f2f2" stroke="#000" points="1286.947 -1006.7 1286.947 -1114.7 1560.282 -1114.7 1560.282 -1006.7 1286.947 -1006.7"/><text x="1423.615" y="-1098.1" fill="#000" font-family="Times,serif" font-size="14" text-anchor="middle">&lt;&lt;Abstract&gt;&gt;</text><text x="1423.615" y="-1081.3" fill="#000" font-family="Times,serif" font-size="14" text-anchor="middle">ERC165</text><polyline fill="none" stroke="#000" points="1286.947 -1073.1 1560.282 -1073.1"/><polyline fill="none" stroke="#000" points="1286.947 -1048.3 1560.282 -1048.3"/><text x="1294.947" y="-1031.7" fill="#000" font-family="Times,serif" font-size="14" text-anchor="start">Public:</text><text x="1294.947" y="-1014.9" fill="#000" font-family="Times,serif" font-size="14" text-anchor="start">supportsInterface(interfaceId: bytes4): bool</text></g><g id="edge11" class="edge"><title>10-&gt;9</title><path fill="none" stroke="#000" stroke-dasharray="5 2" d="M1423.6147,-1114.9461C1423.6147,-1146.3878 1423.6147,-1186.6561 1423.6147,-1222.1509"/><polygon fill="none" stroke="#000" points="1413.115 -1222.392 1423.615 -1252.392 1434.115 -1222.392 1413.115 -1222.392"/></g><g id="node12" class="node"><title>11</title><polygon fill="#f2f2f2" stroke="#000" points="1578.026 -973.1 1578.026 -1148.3 1871.204 -1148.3 1871.204 -973.1 1578.026 -973.1"/><text x="1724.615" y="-1131.7" fill="#000" font-family="Times,serif" font-size="14" text-anchor="middle">&lt;&lt;Interface&gt;&gt;</text><text x="1724.615" y="-1114.9" fill="#000" font-family="Times,serif" font-size="14" text-anchor="middle">IAccessControl</text><polyline fill="none" stroke="#000" points="1578.026 -1106.7 1871.204 -1106.7"/><polyline fill="none" stroke="#000" points="1578.026 -1081.9 1871.204 -1081.9"/><text x="1586.026" y="-1065.3" fill="#000" font-family="Times,serif" font-size="14" text-anchor="start">External:</text><text x="1586.026" y="-1048.5" fill="#000" font-family="Times,serif" font-size="14" text-anchor="start">hasRole(role: bytes32, account: address): bool</text><text x="1586.026" y="-1031.7" fill="#000" font-family="Times,serif" font-size="14" text-anchor="start">getRoleAdmin(role: bytes32): bytes32</text><text x="1586.026" y="-1014.9" fill="#000" font-family="Times,serif" font-size="14" text-anchor="start">grantRole(role: bytes32, account: address)</text><text x="1586.026" y="-998.1" fill="#000" font-family="Times,serif" font-size="14" text-anchor="start">revokeRole(role: bytes32, account: address)</text><text x="1586.026" y="-981.3" fill="#000" font-family="Times,serif" font-size="14" text-anchor="start">renounceRole(role: bytes32, account: address)</text></g><g id="node13" class="node"><title>12</title><polygon fill="#f2f2f2" stroke="#000" points="1118.318 -492.1 1118.318 -919.3 1728.911 -919.3 1728.911 -492.1 1118.318 -492.1"/><text x="1423.615" y="-902.7" fill="#000" font-family="Times,serif" font-size="14" text-anchor="middle">&lt;&lt;Abstract&gt;&gt;</text><text x="1423.615" y="-885.9" fill="#000" font-family="Times,serif" font-size="14" text-anchor="middle">AccessControl</text><polyline fill="none" stroke="#000" points="1118.318 -877.7 1728.911 -877.7"/><text x="1126.318" y="-861.1" fill="#000" font-family="Times,serif" font-size="14" text-anchor="start">Private:</text><text x="1126.318" y="-844.3" fill="#000" font-family="Times,serif" font-size="14" text-anchor="start">_roles: mapping(bytes32=&gt;RoleData)</text><text x="1126.318" y="-827.5" fill="#000" font-family="Times,serif" font-size="14" text-anchor="start">Public:</text><text x="1126.318" y="-810.7" fill="#000" font-family="Times,serif" font-size="14" text-anchor="start">DEFAULT_ADMIN_ROLE: bytes32</text><polyline fill="none" stroke="#000" points="1118.318 -802.5 1728.911 -802.5"/><text x="1126.318" y="-785.9" fill="#000" font-family="Times,serif" font-size="14" text-anchor="start">Private:</text><text x="1126.318" y="-769.1" fill="#000" font-family="Times,serif" font-size="14" text-anchor="start">_grantRole(role: bytes32, account: address)</text><text x="1126.318" y="-752.3" fill="#000" font-family="Times,serif" font-size="14" text-anchor="start">_revokeRole(role: bytes32, account: address)</text><text x="1126.318" y="-735.5" fill="#000" font-family="Times,serif" font-size="14" text-anchor="start">Internal:</text><text x="1126.318" y="-718.7" fill="#000" font-family="Times,serif" font-size="14" text-anchor="start">_checkRole(role: bytes32, account: address)</text><text x="1126.318" y="-701.9" fill="#000" font-family="Times,serif" font-size="14" text-anchor="start">_setupRole(role: bytes32, account: address)</text><text x="1126.318" y="-685.1" fill="#000" font-family="Times,serif" font-size="14" text-anchor="start">_setRoleAdmin(role: bytes32, adminRole: bytes32)</text><text x="1126.318" y="-668.3" fill="#000" font-family="Times,serif" font-size="14" text-anchor="start">Public:</text><text x="1126.318" y="-651.5" fill="#000" font-family="Times,serif" font-size="14" text-anchor="start">&lt;&lt;event&gt;&gt; RoleAdminChanged(role: bytes32, previousAdminRole: bytes32, newAdminRole: bytes32)</text><text x="1126.318" y="-634.7" fill="#000" font-family="Times,serif" font-size="14" text-anchor="start">&lt;&lt;event&gt;&gt; RoleGranted(role: bytes32, account: address, sender: address)</text><text x="1126.318" y="-617.9" fill="#000" font-family="Times,serif" font-size="14" text-anchor="start">&lt;&lt;event&gt;&gt; RoleRevoked(role: bytes32, account: address, sender: address)</text><text x="1126.318" y="-601.1" fill="#000" font-family="Times,serif" font-size="14" text-anchor="start">&lt;&lt;modifier&gt;&gt; onlyRole(role: bytes32)</text><text x="1126.318" y="-584.3" fill="#000" font-family="Times,serif" font-size="14" text-anchor="start">supportsInterface(interfaceId: bytes4): bool</text><text x="1126.318" y="-567.5" fill="#000" font-family="Times,serif" font-size="14" text-anchor="start">hasRole(role: bytes32, account: address): bool</text><text x="1126.318" y="-550.7" fill="#000" font-family="Times,serif" font-size="14" text-anchor="start">getRoleAdmin(role: bytes32): bytes32</text><text x="1126.318" y="-533.9" fill="#000" font-family="Times,serif" font-size="14" text-anchor="start">grantRole(role: bytes32, account: address)</text><text x="1126.318" y="-517.1" fill="#000" font-family="Times,serif" font-size="14" text-anchor="start">revokeRole(role: bytes32, account: address)</text><text x="1126.318" y="-500.3" fill="#000" font-family="Times,serif" font-size="14" text-anchor="start">renounceRole(role: bytes32, account: address)</text></g><g id="edge12" class="edge"><title>12-&gt;0</title><path fill="none" stroke="#000" d="M1143.7926,-919.4293C1132.1189,-925.575 1120.3718,-931.3325 1108.6147,-936.6 1038.5308,-967.9994 1013.0849,-950.2436 939.6147,-972.6 902.0496,-984.0308 861.9174,-999.1829 826.3529,-1013.6931"/><polygon fill="none" stroke="#000" points="822.293 -1004.01 798.639 -1025.24 830.37 -1023.394 822.293 -1004.01"/></g><g id="edge15" class="edge"><title>12-&gt;8</title><path fill="none" stroke="#000" stroke-dasharray="5 2" d="M1234.0161,-919.3746C1217.1802,-938.3484 1200.8553,-956.7463 1185.8557,-973.6506"/><polygon fill="#000" stroke="#000" points="1183.079 -971.506 1179.06 -981.309 1188.315 -976.152 1183.079 -971.506"/></g><g id="edge14" class="edge"><title>12-&gt;10</title><path fill="none" stroke="#000" d="M1423.6147,-919.3746C1423.6147,-939.3482 1423.6147,-958.6836 1423.6147,-976.3103"/><polygon fill="none" stroke="#000" points="1413.115 -976.419 1423.615 -1006.419 1434.115 -976.419 1413.115 -976.419"/></g><g id="edge13" class="edge"><title>12-&gt;11</title><path fill="none" stroke="#000" stroke-dasharray="5 2" d="M1604.7867,-919.3746C1613.5576,-929.719 1622.1834,-939.8923 1630.5379,-949.7457"/><polygon fill="none" stroke="#000" points="1622.66 -956.69 1650.07 -972.782 1638.677 -943.109 1622.66 -956.69"/></g><g id="node14" class="node"><title>12struct0</title><polygon fill="#f2f2f2" stroke="#000" points="1165.774 -275.5 1165.774 -358.7 1381.456 -358.7 1381.456 -275.5 1165.774 -275.5"/><text x="1273.615" y="-342.1" fill="#000" font-family="Times,serif" font-size="14" text-anchor="middle">&lt;&lt;struct&gt;&gt;</text><text x="1273.615" y="-325.3" fill="#000" font-family="Times,serif" font-size="14" text-anchor="middle">RoleData</text><polyline fill="none" stroke="#000" points="1165.774 -317.1 1381.456 -317.1"/><text x="1173.774" y="-300.5" fill="#000" font-family="Times,serif" font-size="14" text-anchor="start">members: mapping(address=&gt;bool)</text><text x="1173.774" y="-283.7" fill="#000" font-family="Times,serif" font-size="14" text-anchor="start">adminRole: bytes32</text></g><g id="edge1" class="edge"><title>12struct0-&gt;12</title><path fill="none" stroke="#000" d="M1289.8098,-359.0562C1301.6623,-389.762 1318.7656,-434.0709 1336.8038,-480.802"/><polygon fill="#000" stroke="#000" points="1336.837 -480.887 1342.729 -485.044 1341.158 -492.082 1335.266 -487.925 1336.837 -480.887"/></g><g id="node15" class="node"><title>13</title><polygon fill="#f2f2f2" stroke="#000" points="1399.815 -254.7 1399.815 -379.5 1585.414 -379.5 1585.414 -254.7 1399.815 -254.7"/><text x="1492.615" y="-362.9" fill="#000" font-family="Times,serif" font-size="14" text-anchor="middle">Roles</text><polyline fill="none" stroke="#000" points="1399.815 -354.7 1585.414 -354.7"/><text x="1407.815" y="-338.1" fill="#000" font-family="Times,serif" font-size="14" text-anchor="start">Public:</text><text x="1407.815" y="-321.3" fill="#000" font-family="Times,serif" font-size="14" text-anchor="start">MINTER_ROLE: bytes32</text><polyline fill="none" stroke="#000" points="1399.815 -313.1 1585.414 -313.1"/><text x="1407.815" y="-296.5" fill="#000" font-family="Times,serif" font-size="14" text-anchor="start">Public:</text><text x="1407.815" y="-279.7" fill="#000" font-family="Times,serif" font-size="14" text-anchor="start">&lt;&lt;modifier&gt;&gt; onlyMinter()</text><text x="1407.815" y="-262.9" fill="#000" font-family="Times,serif" font-size="14" text-anchor="start">constructor()</text></g><g id="edge16" class="edge"><title>13-&gt;12</title><path fill="none" stroke="#000" d="M1481.5287,-379.5353C1477.3138,-403.273 1472.2161,-431.9824 1466.814,-462.4063"/><polygon fill="none" stroke="#000" points="1456.467 -460.621 1461.56 -491.995 1477.143 -464.292 1456.467 -460.621"/></g><g id="node16" class="node"><title>14</title><polygon fill="#f2f2f2" stroke="#000" points="1143.925 -25.7 1143.925 -133.7 1319.304 -133.7 1319.304 -25.7 1143.925 -25.7"/><text x="1231.615" y="-117.1" fill="#000" font-family="Times,serif" font-size="14" text-anchor="middle">&lt;&lt;Interface&gt;&gt;</text><text x="1231.615" y="-100.3" fill="#000" font-family="Times,serif" font-size="14" text-anchor="middle">IPayable</text><polyline fill="none" stroke="#000" points="1143.925 -92.1 1319.304 -92.1"/><polyline fill="none" stroke="#000" points="1143.925 -67.3 1319.304 -67.3"/><text x="1151.925" y="-50.7" fill="#000" font-family="Times,serif" font-size="14" text-anchor="start">External:</text><text x="1151.925" y="-33.9" fill="#000" font-family="Times,serif" font-size="14" text-anchor="start">pay(serviceName: string)</text></g><g id="node17" class="node"><title>15</title><polygon fill="#f2f2f2" stroke="#000" points="831.575 -263.1 831.575 -371.1 1147.655 -371.1 1147.655 -263.1 831.575 -263.1"/><text x="989.615" y="-354.5" fill="#000" font-family="Times,serif" font-size="14" text-anchor="middle">&lt;&lt;Abstract&gt;&gt;</text><text x="989.615" y="-337.7" fill="#000" font-family="Times,serif" font-size="14" text-anchor="middle">ServicePayer</text><polyline fill="none" stroke="#000" points="831.575 -329.5 1147.655 -329.5"/><polyline fill="none" stroke="#000" points="831.575 -304.7 1147.655 -304.7"/><text x="839.575" y="-288.1" fill="#000" font-family="Times,serif" font-size="14" text-anchor="start">Public:</text><text x="839.575" y="-271.3" fill="#000" font-family="Times,serif" font-size="14" text-anchor="start">constructor(receiver: address, serviceName: string)</text></g><g id="node18" class="node"><title>16</title><polygon fill="#f2f2f2" stroke="#000" points="480.885 -.5 480.885 -158.9 1126.344 -158.9 1126.344 -.5 480.885 -.5"/><text x="803.615" y="-142.3" fill="#000" font-family="Times,serif" font-size="14" text-anchor="middle">UnlimitedERC20</text><polyline fill="none" stroke="#000" points="480.885 -134.1 1126.344 -134.1"/><polyline fill="none" stroke="#000" points="480.885 -109.3 1126.344 -109.3"/><text x="488.885" y="-92.7" fill="#000" font-family="Times,serif" font-size="14" text-anchor="start">Internal:</text><text x="488.885" y="-75.9" fill="#000" font-family="Times,serif" font-size="14" text-anchor="start">_mint(account: address, amount: uint256)</text><text x="488.885" y="-59.1" fill="#000" font-family="Times,serif" font-size="14" text-anchor="start">_finishMinting()</text><text x="488.885" y="-42.3" fill="#000" font-family="Times,serif" font-size="14" text-anchor="start">Public:</text><text x="488.885" y="-25.5" fill="#000" font-family="Times,serif" font-size="14" text-anchor="start">constructor(name_: string, symbol_: string, decimals_: uint8, initialBalance_: uint256, feeReceiver_: address)</text><text x="488.885" y="-8.7" fill="#000" font-family="Times,serif" font-size="14" text-anchor="start">decimals(): uint8</text></g><g id="edge20" class="edge"><title>16-&gt;1</title><path fill="none" stroke="#000" d="M806.0446,-158.9902C808.696,-231.839 813.7892,-342.7488 822.6147,-438.8 826.5803,-481.959 832.266,-528.875 837.9051,-571.1619"/><polygon fill="none" stroke="#000" points="827.519 -572.71 841.978 -601.015 848.326 -569.871 827.519 -572.71"/></g><g id="edge19" class="edge"><title>16-&gt;5</title><path fill="none" stroke="#000" d="M746.1021,-159.0808C729.5351,-181.9471 711.378,-207.0081 694.5033,-230.2992"/><polygon fill="none" stroke="#000" points="685.93 -224.236 676.832 -254.69 702.936 -236.557 685.93 -224.236"/></g><g id="edge17" class="edge"><title>16-&gt;6</title><path fill="none" stroke="#000" d="M480.8389,-122.8126C365.9539,-142.1662 252.8591,-167.0495 203.6147,-195.4 190.2232,-203.1096 177.6823,-213.1453 166.2469,-224.1471"/><polygon fill="none" stroke="#000" points="158.505 -217.053 145.686 -246.137 173.845 -231.395 158.505 -217.053"/></g><g id="edge18" class="edge"><title>16-&gt;7</title><path fill="none" stroke="#000" d="M550.3552,-158.9062C532.9786,-166.5929 515.8538,-174.85 496.6127,-185.4016"/><polygon fill="none" stroke="#000" points="491.215 -176.393 470.418 -200.43 501.665 -194.608 491.215 -176.393"/></g><g id="edge21" class="edge"><title>16-&gt;13</title><path fill="none" stroke="#000" d="M1126.7457,-157.8876C1129.3783,-158.3986 1132.0017,-158.9029 1134.6147,-159.4 1247.4875,-180.8735 1290.1415,-139.6638 1390.6147,-195.4 1407.1272,-204.5601 1422.1056,-217.5309 1435.1887,-231.6173"/><polygon fill="none" stroke="#000" points="1427.153 -238.376 1454.436 -254.682 1443.276 -224.921 1427.153 -238.376"/></g><g id="edge22" class="edge"><title>16-&gt;15</title><path fill="none" stroke="#000" d="M865.8086,-159.0808C885.9522,-184.791 908.2695,-213.2756 928.3454,-238.8993"/><polygon fill="none" stroke="#000" points="920.368 -245.742 947.135 -262.882 936.898 -232.791 920.368 -245.742"/></g></g></svg>